<ttFont>
<head>
    <!-- Most of this table will be recalculated by the compiler -->
    <tableVersion value="1.0"/>
    <fontRevision value="1.052"/>
    <checkSumAdjustment value="0x84390ac6"/>
    <magicNumber value="0x5f0f3cf5"/>
    <flags value="00000000 00000001"/>
    <unitsPerEm value="1000"/>
    <created value="Sat Apr  9 12:31:12 2016"/>
    <modified value="Tue Jul 26 15:59:36 2016"/>
    <xMin value="-246"/>
    <yMin value="-342"/>
    <xMax value="1368"/>
    <yMax value="916"/>
    <macStyle value="00000000 00000000"/>
    <lowestRecPPEM value="6"/>
    <fontDirectionHint value="2"/>
    <indexToLocFormat value="0"/>
    <glyphDataFormat value="0"/>
  </head>
    <TTGlyph name=".notdef" xMin="50" yMin="0" xMax="450" yMax="660">
      <contour>
        <pt x="450" y="0" on="1"/>
        <pt x="50" y="0" on="1"/>
        <pt x="50" y="660" on="1"/>
        <pt x="450" y="660" on="1"/>
      </contour>
      <contour>
        <pt x="130" y="580" on="1"/>
        <pt x="130" y="80" on="1"/>
        <pt x="370" y="80" on="1"/>
        <pt x="370" y="580" on="1"/>
      </contour>
    </TTGlyph>
    <TTGlyph name="Hinferior" xMin="36" yMin="-189" xMax="453" yMax="208">
      <component glyphName="Hsuperior" x="0" y="-522" flags="0x4"/>
    </TTGlyph>
    <TTGlyph name="Hsuperior" xMin="36" yMin="333" xMax="453" yMax="730">
      <contour>
        <pt x="311" y="333" on="1"/>
        <pt x="311" y="483" on="1"/>
        <pt x="178" y="483" on="1"/>
        <pt x="178" y="333" on="1"/>
        <pt x="36" y="333" on="1"/>
        <pt x="36" y="730" on="1"/>
        <pt x="178" y="730" on="1"/>
        <pt x="178" y="587" on="1"/>
        <pt x="311" y="587" on="1"/>
        <pt x="311" y="730" on="1"/>
        <pt x="453" y="730" on="1"/>
        <pt x="453" y="333" on="1"/>
      </contour>
    </TTGlyph>
    <TTGlyph name="Iacute_J.loclNLD" xMin="61" yMin="-10" xMax="972" yMax="881">
      <component glyphName="uni0049" x="0" y="0" flags="0x4"/>
      <component glyphName="uni0301.cap" x="165" y="0" flags="0x4"/>
      <component glyphName="uni004A" x="326" y="0" flags="0x4"/>
      <component glyphName="uni0301.cap" x="819" y="0" flags="0x4"/>
    </TTGlyph>
    <TTGlyph name="Iacute_J.loclNLD.ss05" xMin="33" yMin="-10" xMax="670" yMax="881">
      <component glyphName="uni0301.cap" x="517" y="0" flags="0x4"/>
      <component glyphName="uni0301.cap" x="149" y="0" flags="0x4"/>
      <component glyphName="uni0132.ss05" x="-14" y="0" flags="0x4"/>
    </TTGlyph>
    <TTGlyph name="Oinferior" xMin="24" yMin="-195" xMax="450" yMax="213">
      <component glyphName="Osuperior" x="0" y="-522" flags="0x4"/>
    </TTGlyph>
    <TTGlyph name="Osuperior" xMin="24" yMin="327" xMax="450" yMax="735">
      <contour>
        <pt x="24" y="531" on="1"/>
        <pt x="24" y="628" on="0"/>
        <pt x="140" y="735" on="0"/>
        <pt x="237" y="735" on="1"/>
        <pt x="334" y="735" on="0"/>
        <pt x="450" y="628" on="0"/>
        <pt x="450" y="531" on="1"/>
        <pt x="450" y="434" on="0"/>
        <pt x="334" y="327" on="0"/>
        <pt x="237" y="327" on="1"/>
        <pt x="140" y="327" on="0"/>
        <pt x="24" y="434" on="0"/>
      </contour>
      <contour>
        <pt x="307" y="531" on="1"/>
        <pt x="307" y="636" on="0"/>
        <pt x="237" y="636" on="1"/>
        <pt x="167" y="636" on="0"/>
        <pt x="167" y="531" on="1"/>
        <pt x="167" y="426" on="0"/>
        <pt x="237" y="426" on="1"/>
        <pt x="307" y="426" on="0"/>
      </contour>
    </TTGlyph>
    <TTGlyph name="__swash_topleft" xMin="18" yMin="229" xMax="517" yMax="660">
      <contour>
        <pt x="281" y="363" on="1"/>
        <pt x="224" y="229" on="1"/>
        <pt x="133" y="233" on="0"/>
        <pt x="18" y="347" on="0"/>
        <pt x="18" y="444" on="1"/>
        <pt x="18" y="547" on="0"/>
        <pt x="147" y="660" on="0"/>
        <pt x="274" y="660" on="1"/>
        <pt x="517" y="660" on="1"/>
        <pt x="517" y="513" on="1"/>
        <pt x="277" y="513" on="1"/>
        <pt x="236" y="513" on="0"/>
        <pt x="198" y="472" on="0"/>
        <pt x="198" y="441" on="1"/>
        <pt x="198" y="410" on="0"/>
        <pt x="241" y="366" on="0"/>
      </contour>
    </TTGlyph>
    <TTGlyph name="bracketleftinferior" xMin="50" yMin="-269" xMax="253" yMax="288">
      <component glyphName="bracketleftsuperior" x="0" y="-522" flags="0x4"/>
    </TTGlyph>
    <TTGlyph name="bracketleftsuperior" xMin="50" yMin="253" xMax="253" yMax="810">
      <contour>
        <pt x="50" y="253" on="1"/>
        <pt x="50" y="810" on="1"/>
        <pt x="253" y="810" on="1"/>
        <pt x="253" y="716" on="1"/>
        <pt x="166" y="716" on="1"/>
        <pt x="166" y="347" on="1"/>
        <pt x="253" y="347" on="1"/>
        <pt x="253" y="253" on="1"/>
      </contour>
    </TTGlyph>
    <TTGlyph name="bracketrightinferior" xMin="17" yMin="-269" xMax="220" yMax="288">
      <component glyphName="bracketrightsuperior" x="0" y="-522" flags="0x4"/>
    </TTGlyph>
    <TTGlyph name="bracketrightsuperior" xMin="17" yMin="253" xMax="220" yMax="810">
      <component glyphName="bracketleftsuperior" x="270" y="0" scalex="-1.0" scaley="1.0" flags="0x4"/>
    </TTGlyph>
    <TTGlyph name="coloninferior" xMin="35" yMin="-195" xMax="206" yMax="148">
      <component glyphName="colonsuperior" x="0" y="-522" flags="0x4"/>
    </TTGlyph>
    <TTGlyph name="colonsuperior" xMin="35" yMin="327" xMax="206" yMax="670">
      <component glyphName="periodsuperior" x="0" y="0" flags="0x4"/>
      <component glyphName="periodsuperior" x="0" y="196" flags="0x4"/>
    </TTGlyph>
    <TTGlyph name="commainferior" xMin="31" yMin="-314" xMax="210" yMax="-48">
      <component glyphName="commasuperior" x="0" y="-522" flags="0x4"/>
    </TTGlyph>
    <TTGlyph name="commasuperior" xMin="31" yMin="208" xMax="210" yMax="474">
      <contour>
        <pt x="35" y="399" on="1"/>
        <pt x="35" y="474" on="0"/>
        <pt x="119" y="474" on="1"/>
        <pt x="166" y="474" on="0"/>
        <pt x="210" y="417" on="0"/>
        <pt x="210" y="369" on="1"/>
        <pt x="210" y="317" on="0"/>
        <pt x="153" y="231" on="0"/>
        <pt x="97" y="208" on="1"/>
        <pt x="31" y="252" on="1"/>
        <pt x="67" y="266" on="0"/>
        <pt x="121" y="305" on="0"/>
        <pt x="130" y="330" on="1"/>
        <pt x="127" y="333" on="1"/>
        <pt x="118" y="327" on="0"/>
        <pt x="107" y="327" on="1"/>
        <pt x="85" y="327" on="0"/>
        <pt x="35" y="363" on="0"/>
      </contour>
    </TTGlyph>
    <TTGlyph name="daggerdblsuperior" xMin="35" yMin="196" xMax="474" yMax="730">
      <contour>
        <pt x="474" y="320" on="1"/>
        <pt x="326" y="320" on="1"/>
        <pt x="326" y="196" on="1"/>
        <pt x="183" y="196" on="1"/>
        <pt x="183" y="320" on="1"/>
        <pt x="35" y="320" on="1"/>
        <pt x="35" y="424" on="1"/>
        <pt x="183" y="424" on="1"/>
        <pt x="183" y="502" on="1"/>
        <pt x="35" y="502" on="1"/>
        <pt x="35" y="606" on="1"/>
        <pt x="183" y="606" on="1"/>
        <pt x="183" y="730" on="1"/>
        <pt x="326" y="730" on="1"/>
        <pt x="326" y="606" on="1"/>
        <pt x="474" y="606" on="1"/>
        <pt x="474" y="502" on="1"/>
        <pt x="326" y="502" on="1"/>
        <pt x="326" y="424" on="1"/>
        <pt x="474" y="424" on="1"/>
      </contour>
    </TTGlyph>
    <TTGlyph name="daggersuperior" xMin="35" yMin="196" xMax="474" yMax="730">
      <contour>
        <pt x="474" y="461" on="1"/>
        <pt x="326" y="461" on="1"/>
        <pt x="326" y="196" on="1"/>
        <pt x="183" y="196" on="1"/>
        <pt x="183" y="461" on="1"/>
        <pt x="35" y="461" on="1"/>
        <pt x="35" y="581" on="1"/>
        <pt x="183" y="581" on="1"/>
        <pt x="183" y="730" on="1"/>
        <pt x="326" y="730" on="1"/>
        <pt x="326" y="581" on="1"/>
        <pt x="474" y="581" on="1"/>
      </contour>
    </TTGlyph>
    <TTGlyph name="emdashinferior" xMin="52" yMin="-44" xMax="630" yMax="63">
      <component glyphName="emdashsuperior" x="0" y="-522" flags="0x4"/>
    </TTGlyph>
    <TTGlyph name="emdashsuperior" xMin="52" yMin="478" xMax="630" yMax="585">
      <contour>
        <pt x="52" y="585" on="1"/>
        <pt x="630" y="585" on="1"/>
        <pt x="630" y="478" on="1"/>
        <pt x="52" y="478" on="1"/>
      </contour>
    </TTGlyph>
    <TTGlyph name="endashinferior" xMin="52" yMin="-44" xMax="426" yMax="63">
      <component glyphName="endashsuperior" x="0" y="-522" flags="0x4"/>
    </TTGlyph>
    <TTGlyph name="endashsuperior" xMin="52" yMin="478" xMax="426" yMax="585">
      <contour>
        <pt x="52" y="585" on="1"/>
        <pt x="426" y="585" on="1"/>
        <pt x="426" y="478" on="1"/>
        <pt x="52" y="478" on="1"/>
      </contour>
    </TTGlyph>
    <TTGlyph name="f_t.liga" xMin="8" yMin="-10" xMax="794" yMax="724">
      <contour>
        <pt x="794" y="26" on="1"/>
        <pt x="769" y="10" on="0"/>
        <pt x="687" y="-10" on="0"/>
        <pt x="649" y="-10" on="1"/>
        <pt x="553" y="-10" on="0"/>
        <pt x="449" y="67" on="0"/>
        <pt x="449" y="160" on="1"/>
        <pt x="449" y="361" on="1"/>
        <pt x="284" y="361" on="1"/>
        <pt x="284" y="0" on="1"/>
        <pt x="82" y="0" on="1"/>
        <pt x="82" y="361" on="1"/>
        <pt x="8" y="361" on="1"/>
        <pt x="8" y="500" on="1"/>
        <pt x="82" y="500" on="1"/>
        <pt x="82" y="532" on="1"/>
        <pt x="82" y="637" on="0"/>
        <pt x="208" y="724" on="0"/>
        <pt x="285" y="724" on="1"/>
        <pt x="324" y="724" on="0"/>
        <pt x="380" y="707" on="0"/>
        <pt x="396" y="694" on="1"/>
        <pt x="387" y="575" on="1"/>
        <pt x="366" y="587" on="0"/>
        <pt x="337" y="587" on="1"/>
        <pt x="310" y="587" on="0"/>
        <pt x="271" y="558" on="0"/>
        <pt x="271" y="521" on="1"/>
        <pt x="271" y="500" on="1"/>
        <pt x="449" y="500" on="1"/>
        <pt x="449" y="609" on="1"/>
        <pt x="651" y="665" on="1"/>
        <pt x="651" y="500" on="1"/>
        <pt x="788" y="500" on="1"/>
        <pt x="788" y="361" on="1"/>
        <pt x="651" y="361" on="1"/>
        <pt x="651" y="192" on="1"/>
        <pt x="651" y="127" on="0"/>
        <pt x="714" y="127" on="1"/>
        <pt x="752" y="127" on="0"/>
        <pt x="781" y="144" on="1"/>
      </contour>
    </TTGlyph>
    <TTGlyph name="g.ss01_j.liga" xMin="32" yMin="-215" xMax="891" yMax="723">
      <contour>
        <pt x="665" y="633" on="1"/>
        <pt x="665" y="723" on="0"/>
        <pt x="777" y="723" on="1"/>
        <pt x="839" y="723" on="0"/>
        <pt x="891" y="680" on="0"/>
        <pt x="891" y="633" on="1"/>
        <pt x="891" y="586" on="0"/>
        <pt x="839" y="544" on="0"/>
        <pt x="777" y="544" on="1"/>
        <pt x="717" y="544" on="0"/>
        <pt x="665" y="586" on="0"/>
      </contour>
      <contour>
        <pt x="307" y="163" on="1"/>
        <pt x="376" y="163" on="0"/>
        <pt x="376" y="260" on="1"/>
        <pt x="376" y="268" on="1"/>
        <pt x="376" y="365" on="0"/>
        <pt x="307" y="365" on="1"/>
        <pt x="274" y="365" on="0"/>
        <pt x="236" y="320" on="0"/>
        <pt x="236" y="264" on="1"/>
        <pt x="236" y="208" on="0"/>
        <pt x="274" y="163" on="0"/>
      </contour>
      <contour>
        <pt x="289" y="-215" on="1"/>
        <pt x="195" y="-215" on="0"/>
        <pt x="60" y="-153" on="0"/>
        <pt x="46" y="-61" on="1"/>
        <pt x="240" y="-14" on="1"/>
        <pt x="241" y="-95" on="0"/>
        <pt x="307" y="-95" on="1"/>
        <pt x="376" y="-95" on="0"/>
        <pt x="376" y="-8" on="1"/>
        <pt x="376" y="93" on="1"/>
        <pt x="325" y="19" on="0"/>
        <pt x="230" y="19" on="1"/>
        <pt x="136" y="19" on="0"/>
        <pt x="32" y="147" on="0"/>
        <pt x="32" y="262" on="1"/>
        <pt x="32" y="380" on="0"/>
        <pt x="137" y="510" on="0"/>
        <pt x="231" y="510" on="1"/>
        <pt x="298" y="510" on="0"/>
        <pt x="377" y="437" on="0"/>
        <pt x="392" y="379" on="1"/>
        <pt x="397" y="500" on="1"/>
        <pt x="578" y="500" on="1"/>
        <pt x="578" y="40" on="1"/>
        <pt x="578" y="-103" on="0"/>
        <pt x="417" y="-215" on="0"/>
      </contour>
      <contour>
        <pt x="677" y="500" on="1"/>
        <pt x="879" y="500" on="1"/>
        <pt x="879" y="-28" on="1"/>
        <pt x="879" y="-107" on="0"/>
        <pt x="816" y="-187" on="0"/>
        <pt x="719" y="-215" on="0"/>
        <pt x="666" y="-215" on="1"/>
        <pt x="617" y="-215" on="0"/>
        <pt x="575" y="-197" on="1"/>
        <pt x="602" y="-60" on="1"/>
        <pt x="616" y="-74" on="0"/>
        <pt x="641" y="-74" on="1"/>
        <pt x="677" y="-74" on="0"/>
        <pt x="677" y="-19" on="1"/>
      </contour>
    </TTGlyph>
    <TTGlyph name="g_j.liga" xMin="13" yMin="-215" xMax="838" yMax="723">
      <contour>
        <pt x="612" y="633" on="1"/>
        <pt x="612" y="723" on="0"/>
        <pt x="724" y="723" on="1"/>
        <pt x="786" y="723" on="0"/>
        <pt x="838" y="680" on="0"/>
        <pt x="838" y="633" on="1"/>
        <pt x="838" y="586" on="0"/>
        <pt x="786" y="544" on="0"/>
        <pt x="724" y="544" on="1"/>
        <pt x="664" y="544" on="0"/>
        <pt x="612" y="586" on="0"/>
      </contour>
      <contour>
        <pt x="339" y="340" on="1"/>
        <pt x="339" y="401" on="0"/>
        <pt x="281" y="401" on="1"/>
        <pt x="223" y="401" on="0"/>
        <pt x="223" y="340" on="1"/>
        <pt x="223" y="280" on="0"/>
        <pt x="281" y="280" on="1"/>
        <pt x="339" y="280" on="0"/>
      </contour>
      <contour>
        <pt x="540" y="-33" on="1"/>
        <pt x="540" y="-125" on="0"/>
        <pt x="396" y="-215" on="0"/>
        <pt x="271" y="-215" on="1"/>
        <pt x="147" y="-215" on="0"/>
        <pt x="13" y="-156" on="0"/>
        <pt x="13" y="-103" on="1"/>
        <pt x="13" y="-72" on="0"/>
        <pt x="55" y="-20" on="0"/>
        <pt x="106" y="-8" on="1"/>
        <pt x="72" y="6" on="0"/>
        <pt x="28" y="58" on="0"/>
        <pt x="28" y="99" on="1"/>
        <pt x="28" y="134" on="0"/>
        <pt x="74" y="189" on="0"/>
        <pt x="111" y="203" on="1"/>
        <pt x="28" y="246" on="0"/>
        <pt x="28" y="339" on="1"/>
        <pt x="28" y="510" on="0"/>
        <pt x="286" y="510" on="1"/>
        <pt x="343" y="510" on="0"/>
        <pt x="386" y="501" on="1"/>
        <pt x="393" y="562" on="0"/>
        <pt x="470" y="657" on="0"/>
        <pt x="550" y="649" on="1"/>
        <pt x="569" y="520" on="1"/>
        <pt x="523" y="529" on="0"/>
        <pt x="464" y="502" on="0"/>
        <pt x="454" y="478" on="1"/>
        <pt x="533" y="437" on="0"/>
        <pt x="533" y="339" on="1"/>
        <pt x="533" y="170" on="0"/>
        <pt x="286" y="170" on="1"/>
        <pt x="228" y="170" on="0"/>
        <pt x="182" y="179" on="1"/>
        <pt x="159" y="172" on="0"/>
        <pt x="159" y="155" on="1"/>
        <pt x="159" y="127" on="0"/>
        <pt x="213" y="127" on="1"/>
        <pt x="346" y="127" on="1"/>
        <pt x="438" y="127" on="0"/>
        <pt x="540" y="49" on="0"/>
      </contour>
      <contour>
        <pt x="276" y="-89" on="1"/>
        <pt x="385" y="-89" on="0"/>
        <pt x="385" y="-53" on="1"/>
        <pt x="385" y="-30" on="0"/>
        <pt x="336" y="-30" on="1"/>
        <pt x="232" y="-30" on="1"/>
        <pt x="192" y="-30" on="0"/>
        <pt x="162" y="-43" on="0"/>
        <pt x="162" y="-56" on="1"/>
        <pt x="162" y="-89" on="0"/>
      </contour>
      <contour>
        <pt x="624" y="500" on="1"/>
        <pt x="826" y="500" on="1"/>
        <pt x="826" y="-28" on="1"/>
        <pt x="826" y="-107" on="0"/>
        <pt x="765" y="-187" on="0"/>
        <pt x="670" y="-215" on="0"/>
        <pt x="618" y="-215" on="1"/>
        <pt x="569" y="-215" on="0"/>
        <pt x="533" y="-201" on="1"/>
        <pt x="559" y="-64" on="1"/>
        <pt x="570" y="-74" on="0"/>
        <pt x="592" y="-74" on="1"/>
        <pt x="624" y="-74" on="0"/>
        <pt x="624" y="-19" on="1"/>
      </contour>
    </TTGlyph>
    <TTGlyph name="hypheninferior" xMin="51" yMin="-44" xMax="306" yMax="63">
      <component glyphName="hyphensuperior" x="0" y="-522" flags="0x4"/>
    </TTGlyph>
    <TTGlyph name="hyphensuperior" xMin="51" yMin="478" xMax="306" yMax="585">
      <contour>
        <pt x="51" y="585" on="1"/>
        <pt x="306" y="585" on="1"/>
        <pt x="306" y="478" on="1"/>
        <pt x="51" y="478" on="1"/>
      </contour>
    </TTGlyph>
    <TTGlyph name="iacute_j.loclNLD" xMin="49" yMin="-215" xMax="620" yMax="734">
      <contour>
        <pt x="349" y="500" on="1"/>
        <pt x="551" y="500" on="1"/>
        <pt x="551" y="-20" on="1"/>
        <pt x="551" y="-124" on="0"/>
        <pt x="447" y="-215" on="0"/>
        <pt x="343" y="-215" on="1"/>
        <pt x="256" y="-215" on="0"/>
        <pt x="201" y="-184" on="1"/>
        <pt x="227" y="-61" on="1"/>
        <pt x="247" y="-78" on="0"/>
        <pt x="284" y="-78" on="1"/>
        <pt x="349" y="-78" on="0"/>
        <pt x="349" y="-2" on="1"/>
      </contour>
      <contour>
        <pt x="49" y="500" on="1"/>
        <pt x="251" y="500" on="1"/>
        <pt x="251" y="0" on="1"/>
        <pt x="49" y="0" on="1"/>
      </contour>
      <contour>
        <pt x="620" y="734" on="1"/>
        <pt x="437" y="734" on="1"/>
        <pt x="374" y="559" on="1"/>
        <pt x="518" y="559" on="1"/>
      </contour>
      <contour>
        <pt x="312" y="734" on="1"/>
        <pt x="129" y="734" on="1"/>
        <pt x="66" y="559" on="1"/>
        <pt x="210" y="559" on="1"/>
      </contour>
    </TTGlyph>
    <TTGlyph name="iacute_j.loclNLD.sc" xMin="61" yMin="-8" xMax="917" yMax="781">
      <component glyphName="uni0069.sc" x="0" y="0" flags="0x4"/>
      <component glyphName="uni006A.sc" x="323" y="0" flags="0x4"/>
      <component glyphName="uni0301.cap" x="764" y="-100" flags="0x4"/>
      <component glyphName="uni0301.cap" x="164" y="-100" flags="0x4"/>
    </TTGlyph>
    <TTGlyph name="iacute_j.loclNLD.sc.ss05" xMin="38" yMin="-8" xMax="624" yMax="781">
      <component glyphName="uni0133.sc.ss05" x="0" y="0" flags="0x4"/>
      <component glyphName="uni0301.cap" x="156" y="-100" flags="0x4"/>
      <component glyphName="uni0301.cap" x="471" y="-100" flags="0x4"/>
    </TTGlyph>
    <TTGlyph name="idotaccent" xMin="37" yMin="0" xMax="263" yMax="723">
      <component glyphName="uni0069" x="0" y="0" flags="0x4"/>
    </TTGlyph>
    <TTGlyph name="idotaccent.sc" xMin="60" yMin="0" xMax="267" yMax="776">
      <component glyphName="uni0069.sc" x="0" y="0" flags="0x4"/>
      <component glyphName="uni02D9" x="-88" y="52" flags="0x4"/>
    </TTGlyph>
    <TTGlyph name="indexring" xMin="72" yMin="-40" xMax="838" yMax="700">
      <contour>
        <pt x="838" y="330" on="1"/>
        <pt x="838" y="164" on="0"/>
        <pt x="627" y="-40" on="0"/>
        <pt x="455" y="-40" on="1"/>
        <pt x="283" y="-40" on="0"/>
        <pt x="72" y="164" on="0"/>
        <pt x="72" y="330" on="1"/>
        <pt x="72" y="496" on="0"/>
        <pt x="283" y="700" on="0"/>
        <pt x="455" y="700" on="1"/>
        <pt x="627" y="700" on="0"/>
        <pt x="838" y="496" on="0"/>
      </contour>
      <contour>
        <pt x="169" y="330" on="1"/>
        <pt x="169" y="203" on="0"/>
        <pt x="327" y="45" on="0"/>
        <pt x="455" y="45" on="1"/>
        <pt x="583" y="45" on="0"/>
        <pt x="741" y="203" on="0"/>
        <pt x="741" y="330" on="1"/>
        <pt x="741" y="458" on="0"/>
        <pt x="583" y="615" on="0"/>
        <pt x="455" y="615" on="1"/>
        <pt x="327" y="615" on="0"/>
        <pt x="169" y="458" on="0"/>
      </contour>
    </TTGlyph>
    <TTGlyph name="j_j.liga" xMin="-99" yMin="-215" xMax="561" yMax="723">
      <contour>
        <pt x="336" y="633" on="1"/>
        <pt x="336" y="723" on="0"/>
        <pt x="448" y="723" on="1"/>
        <pt x="510" y="723" on="0"/>
        <pt x="561" y="680" on="0"/>
        <pt x="561" y="633" on="1"/>
        <pt x="561" y="586" on="0"/>
        <pt x="510" y="544" on="0"/>
        <pt x="448" y="544" on="1"/>
        <pt x="388" y="544" on="0"/>
        <pt x="336" y="586" on="0"/>
      </contour>
      <contour>
        <pt x="37" y="633" on="1"/>
        <pt x="37" y="723" on="0"/>
        <pt x="149" y="723" on="1"/>
        <pt x="211" y="723" on="0"/>
        <pt x="263" y="680" on="0"/>
        <pt x="263" y="633" on="1"/>
        <pt x="263" y="586" on="0"/>
        <pt x="211" y="544" on="0"/>
        <pt x="149" y="544" on="1"/>
        <pt x="89" y="544" on="0"/>
        <pt x="37" y="586" on="0"/>
      </contour>
      <contour>
        <pt x="348" y="500" on="1"/>
        <pt x="550" y="500" on="1"/>
        <pt x="550" y="-28" on="1"/>
        <pt x="550" y="-107" on="0"/>
        <pt x="487" y="-187" on="0"/>
        <pt x="390" y="-215" on="0"/>
        <pt x="337" y="-215" on="1"/>
        <pt x="288" y="-215" on="0"/>
        <pt x="246" y="-197" on="1"/>
        <pt x="273" y="-60" on="1"/>
        <pt x="287" y="-74" on="0"/>
        <pt x="312" y="-74" on="1"/>
        <pt x="348" y="-74" on="0"/>
        <pt x="348" y="-19" on="1"/>
      </contour>
      <contour>
        <pt x="49" y="500" on="1"/>
        <pt x="251" y="500" on="1"/>
        <pt x="251" y="-20" on="1"/>
        <pt x="251" y="-124" on="0"/>
        <pt x="147" y="-215" on="0"/>
        <pt x="43" y="-215" on="1"/>
        <pt x="-44" y="-215" on="0"/>
        <pt x="-99" y="-184" on="1"/>
        <pt x="-73" y="-61" on="1"/>
        <pt x="-53" y="-78" on="0"/>
        <pt x="-17" y="-78" on="1"/>
        <pt x="49" y="-78" on="0"/>
        <pt x="49" y="-2" on="1"/>
      </contour>
    </TTGlyph>
    <TTGlyph name="periodinferior" xMin="35" yMin="-195" xMax="206" yMax="-48">
      <component glyphName="periodsuperior" x="0" y="-522" flags="0x4"/>
    </TTGlyph>
    <TTGlyph name="periodsuperior" xMin="35" yMin="327" xMax="206" yMax="474">
      <contour>
        <pt x="35" y="400" on="1"/>
        <pt x="35" y="474" on="0"/>
        <pt x="121" y="474" on="1"/>
        <pt x="206" y="474" on="0"/>
        <pt x="206" y="400" on="1"/>
        <pt x="206" y="327" on="0"/>
        <pt x="121" y="327" on="1"/>
        <pt x="35" y="327" on="0"/>
      </contour>
    </TTGlyph>
    <TTGlyph name="registeredsuperior" xMin="21" yMin="120" xMax="580" yMax="670">
      <contour>
        <pt x="580" y="396" on="1"/>
        <pt x="580" y="271" on="0"/>
        <pt x="428" y="120" on="0"/>
        <pt x="301" y="120" on="1"/>
        <pt x="174" y="120" on="0"/>
        <pt x="21" y="271" on="0"/>
        <pt x="21" y="396" on="1"/>
        <pt x="21" y="521" on="0"/>
        <pt x="174" y="670" on="0"/>
        <pt x="301" y="670" on="1"/>
        <pt x="428" y="670" on="0"/>
        <pt x="580" y="521" on="0"/>
      </contour>
      <contour>
        <pt x="100" y="396" on="1"/>
        <pt x="100" y="304" on="0"/>
        <pt x="210" y="193" on="0"/>
        <pt x="301" y="193" on="1"/>
        <pt x="390" y="193" on="0"/>
        <pt x="500" y="304" on="0"/>
        <pt x="500" y="396" on="1"/>
        <pt x="500" y="487" on="0"/>
        <pt x="390" y="598" on="0"/>
        <pt x="301" y="598" on="1"/>
        <pt x="210" y="598" on="0"/>
        <pt x="100" y="487" on="0"/>
      </contour>
      <contour>
        <pt x="305" y="483" on="1"/>
        <pt x="272" y="483" on="1"/>
        <pt x="272" y="401" on="1"/>
        <pt x="305" y="401" on="1"/>
        <pt x="350" y="401" on="0"/>
        <pt x="350" y="441" on="1"/>
        <pt x="350" y="483" on="0"/>
      </contour>
      <contour>
        <pt x="350" y="250" on="1"/>
        <pt x="299" y="342" on="1"/>
        <pt x="272" y="342" on="1"/>
        <pt x="272" y="250" on="1"/>
        <pt x="196" y="250" on="1"/>
        <pt x="196" y="547" on="1"/>
        <pt x="309" y="547" on="1"/>
        <pt x="362" y="547" on="0"/>
        <pt x="429" y="488" on="0"/>
        <pt x="429" y="441" on="1"/>
        <pt x="429" y="372" on="0"/>
        <pt x="369" y="350" on="1"/>
        <pt x="433" y="250" on="1"/>
      </contour>
    </TTGlyph>
    <TTGlyph name="t_t.liga" xMin="7" yMin="-10" xMax="822" yMax="665">
      <contour>
        <pt x="822" y="26" on="1"/>
        <pt x="797" y="10" on="0"/>
        <pt x="714" y="-10" on="0"/>
        <pt x="676" y="-10" on="1"/>
        <pt x="581" y="-10" on="0"/>
        <pt x="476" y="67" on="0"/>
        <pt x="476" y="160" on="1"/>
        <pt x="476" y="361" on="1"/>
        <pt x="290" y="361" on="1"/>
        <pt x="290" y="192" on="1"/>
        <pt x="290" y="157" on="0"/>
        <pt x="310" y="127" on="0"/>
        <pt x="340" y="127" on="1"/>
        <pt x="375" y="127" on="0"/>
        <pt x="400" y="146" on="1"/>
        <pt x="417" y="26" on="1"/>
        <pt x="393" y="10" on="0"/>
        <pt x="315" y="-10" on="0"/>
        <pt x="278" y="-10" on="1"/>
        <pt x="187" y="-10" on="0"/>
        <pt x="88" y="67" on="0"/>
        <pt x="88" y="160" on="1"/>
        <pt x="88" y="361" on="1"/>
        <pt x="7" y="361" on="1"/>
        <pt x="7" y="500" on="1"/>
        <pt x="88" y="500" on="1"/>
        <pt x="88" y="609" on="1"/>
        <pt x="290" y="665" on="1"/>
        <pt x="290" y="500" on="1"/>
        <pt x="476" y="500" on="1"/>
        <pt x="476" y="609" on="1"/>
        <pt x="678" y="665" on="1"/>
        <pt x="678" y="500" on="1"/>
        <pt x="815" y="500" on="1"/>
        <pt x="815" y="361" on="1"/>
        <pt x="678" y="361" on="1"/>
        <pt x="678" y="192" on="1"/>
        <pt x="678" y="127" on="0"/>
        <pt x="741" y="127" on="1"/>
        <pt x="779" y="127" on="0"/>
        <pt x="808" y="144" on="1"/>
      </contour>
    </TTGlyph>
    <TTGlyph name="uni0021" xMin="48" yMin="-8" xMax="263" yMax="660">
      <contour>
        <pt x="50" y="660" on="1"/>
        <pt x="261" y="660" on="1"/>
        <pt x="261" y="473" on="1"/>
        <pt x="239" y="218" on="1"/>
        <pt x="72" y="218" on="1"/>
        <pt x="50" y="473" on="1"/>
      </contour>
      <contour>
        <pt x="48" y="83" on="1"/>
        <pt x="48" y="173" on="0"/>
        <pt x="156" y="173" on="1"/>
        <pt x="263" y="173" on="0"/>
        <pt x="263" y="83" on="1"/>
        <pt x="263" y="-8" on="0"/>
        <pt x="156" y="-8" on="1"/>
        <pt x="48" y="-8" on="0"/>
      </contour>
    </TTGlyph>
    <TTGlyph name="uni0021.sc" xMin="46" yMin="-7" xMax="250" yMax="560">
      <contour>
        <pt x="46" y="560" on="1"/>
        <pt x="250" y="560" on="1"/>
        <pt x="250" y="446" on="1"/>
        <pt x="229" y="201" on="1"/>
        <pt x="68" y="201" on="1"/>
        <pt x="46" y="446" on="1"/>
      </contour>
      <contour>
        <pt x="47" y="79" on="1"/>
        <pt x="47" y="164" on="0"/>
        <pt x="148" y="164" on="1"/>
        <pt x="250" y="164" on="0"/>
        <pt x="250" y="79" on="1"/>
        <pt x="250" y="-7" on="0"/>
        <pt x="148" y="-7" on="1"/>
        <pt x="47" y="-7" on="0"/>
      </contour>
    </TTGlyph>
    <TTGlyph name="uni0022" xMin="56" yMin="386" xMax="426" yMax="674">
      <component glyphName="uni0027" x="208" y="0" flags="0x4"/>
      <component glyphName="uni0027" x="0" y="0" flags="0x4"/>
    </TTGlyph>
    <TTGlyph name="uni0022.sc" xMin="56" yMin="303" xMax="426" yMax="590">
      <component glyphName="uni0027.sc" x="208" y="0" flags="0x4"/>
      <component glyphName="uni0027.sc" x="0" y="0" flags="0x4"/>
    </TTGlyph>
    <TTGlyph name="uni0023" xMin="28" yMin="0" xMax="678" yMax="660">
      <contour>
        <pt x="393" y="267" on="1"/>
        <pt x="414" y="394" on="1"/>
        <pt x="298" y="394" on="1"/>
        <pt x="277" y="267" on="1"/>
      </contour>
      <contour>
        <pt x="351" y="0" on="1"/>
        <pt x="375" y="150" on="1"/>
        <pt x="259" y="150" on="1"/>
        <pt x="235" y="0" on="1"/>
        <pt x="102" y="0" on="1"/>
        <pt x="126" y="150" on="1"/>
        <pt x="28" y="150" on="1"/>
        <pt x="28" y="267" on="1"/>
        <pt x="144" y="267" on="1"/>
        <pt x="165" y="394" on="1"/>
        <pt x="71" y="394" on="1"/>
        <pt x="71" y="511" on="1"/>
        <pt x="183" y="511" on="1"/>
        <pt x="207" y="660" on="1"/>
        <pt x="340" y="660" on="1"/>
        <pt x="316" y="511" on="1"/>
        <pt x="432" y="511" on="1"/>
        <pt x="456" y="660" on="1"/>
        <pt x="589" y="660" on="1"/>
        <pt x="565" y="511" on="1"/>
        <pt x="678" y="511" on="1"/>
        <pt x="678" y="394" on="1"/>
        <pt x="546" y="394" on="1"/>
        <pt x="526" y="267" on="1"/>
        <pt x="635" y="267" on="1"/>
        <pt x="635" y="150" on="1"/>
        <pt x="507" y="150" on="1"/>
        <pt x="483" y="0" on="1"/>
      </contour>
    </TTGlyph>
    <TTGlyph name="uni0023.tf" xMin="12" yMin="0" xMax="591" yMax="660">
      <contour>
        <pt x="358" y="267" on="1"/>
        <pt x="377" y="394" on="1"/>
        <pt x="251" y="394" on="1"/>
        <pt x="232" y="267" on="1"/>
      </contour>
      <contour>
        <pt x="316" y="0" on="1"/>
        <pt x="339" y="150" on="1"/>
        <pt x="213" y="150" on="1"/>
        <pt x="190" y="0" on="1"/>
        <pt x="81" y="0" on="1"/>
        <pt x="104" y="150" on="1"/>
        <pt x="12" y="150" on="1"/>
        <pt x="12" y="267" on="1"/>
        <pt x="123" y="267" on="1"/>
        <pt x="142" y="394" on="1"/>
        <pt x="40" y="394" on="1"/>
        <pt x="40" y="511" on="1"/>
        <pt x="161" y="511" on="1"/>
        <pt x="184" y="660" on="1"/>
        <pt x="293" y="660" on="1"/>
        <pt x="270" y="511" on="1"/>
        <pt x="396" y="511" on="1"/>
        <pt x="419" y="660" on="1"/>
        <pt x="528" y="660" on="1"/>
        <pt x="505" y="511" on="1"/>
        <pt x="591" y="511" on="1"/>
        <pt x="591" y="394" on="1"/>
        <pt x="486" y="394" on="1"/>
        <pt x="467" y="267" on="1"/>
        <pt x="563" y="267" on="1"/>
        <pt x="563" y="150" on="1"/>
        <pt x="448" y="150" on="1"/>
        <pt x="425" y="0" on="1"/>
      </contour>
    </TTGlyph>
    <TTGlyph name="uni0024" xMin="18" yMin="-84" xMax="631" yMax="744">
      <contour>
        <pt x="221" y="466" on="1"/>
        <pt x="221" y="447" on="0"/>
        <pt x="254" y="425" on="0"/>
        <pt x="279" y="417" on="1"/>
        <pt x="279" y="519" on="1"/>
        <pt x="221" y="506" on="0"/>
      </contour>
      <contour>
        <pt x="385" y="236" on="1"/>
        <pt x="385" y="139" on="1"/>
        <pt x="441" y="150" on="0"/>
        <pt x="441" y="186" on="1"/>
        <pt x="441" y="206" on="0"/>
        <pt x="410" y="229" on="0"/>
      </contour>
      <contour>
        <pt x="385" y="-84" on="1"/>
        <pt x="279" y="-84" on="1"/>
        <pt x="279" y="2" on="1"/>
        <pt x="184" y="7" on="0"/>
        <pt x="62" y="63" on="0"/>
        <pt x="18" y="110" on="1"/>
        <pt x="106" y="230" on="1"/>
        <pt x="160" y="149" on="0"/>
        <pt x="279" y="135" on="1"/>
        <pt x="279" y="260" on="1"/>
        <pt x="223" y="271" on="0"/>
        <pt x="112" y="307" on="0"/>
        <pt x="38" y="384" on="0"/>
        <pt x="38" y="454" on="1"/>
        <pt x="38" y="534" on="0"/>
        <pt x="163" y="646" on="0"/>
        <pt x="279" y="657" on="1"/>
        <pt x="279" y="744" on="1"/>
        <pt x="385" y="744" on="1"/>
        <pt x="385" y="658" on="1"/>
        <pt x="480" y="651" on="0"/>
        <pt x="589" y="591" on="0"/>
        <pt x="631" y="546" on="1"/>
        <pt x="539" y="434" on="1"/>
        <pt x="482" y="514" on="0"/>
        <pt x="385" y="524" on="1"/>
        <pt x="385" y="394" on="1"/>
        <pt x="441" y="383" on="0"/>
        <pt x="551" y="344" on="0"/>
        <pt x="623" y="266" on="0"/>
        <pt x="623" y="194" on="1"/>
        <pt x="623" y="110" on="0"/>
        <pt x="489" y="12" on="0"/>
        <pt x="385" y="3" on="1"/>
      </contour>
    </TTGlyph>
    <TTGlyph name="uni0024.tf" xMin="19" yMin="-84" xMax="584" yMax="744">
      <contour>
        <pt x="206" y="466" on="1"/>
        <pt x="206" y="433" on="0"/>
        <pt x="257" y="415" on="1"/>
        <pt x="257" y="520" on="1"/>
        <pt x="206" y="506" on="0"/>
      </contour>
      <contour>
        <pt x="414" y="186" on="1"/>
        <pt x="414" y="217" on="0"/>
        <pt x="364" y="233" on="1"/>
        <pt x="364" y="138" on="1"/>
        <pt x="414" y="148" on="0"/>
      </contour>
      <contour>
        <pt x="364" y="-84" on="1"/>
        <pt x="257" y="-84" on="1"/>
        <pt x="257" y="2" on="1"/>
        <pt x="171" y="8" on="0"/>
        <pt x="60" y="63" on="0"/>
        <pt x="19" y="110" on="1"/>
        <pt x="116" y="230" on="1"/>
        <pt x="135" y="192" on="0"/>
        <pt x="214" y="146" on="0"/>
        <pt x="257" y="138" on="1"/>
        <pt x="257" y="258" on="1"/>
        <pt x="207" y="268" on="0"/>
        <pt x="110" y="307" on="0"/>
        <pt x="46" y="385" on="0"/>
        <pt x="46" y="454" on="1"/>
        <pt x="46" y="533" on="0"/>
        <pt x="156" y="644" on="0"/>
        <pt x="257" y="657" on="1"/>
        <pt x="257" y="744" on="1"/>
        <pt x="364" y="744" on="1"/>
        <pt x="364" y="658" on="1"/>
        <pt x="445" y="650" on="0"/>
        <pt x="538" y="590" on="0"/>
        <pt x="584" y="546" on="1"/>
        <pt x="490" y="433" on="1"/>
        <pt x="469" y="473" on="0"/>
        <pt x="403" y="516" on="0"/>
        <pt x="364" y="523" on="1"/>
        <pt x="364" y="388" on="1"/>
        <pt x="414" y="377" on="0"/>
        <pt x="511" y="338" on="0"/>
        <pt x="574" y="262" on="0"/>
        <pt x="574" y="194" on="1"/>
        <pt x="574" y="112" on="0"/>
        <pt x="455" y="14" on="0"/>
        <pt x="364" y="3" on="1"/>
      </contour>
    </TTGlyph>
    <TTGlyph name="uni0025" xMin="27" yMin="-10" xMax="940" yMax="670">
      <contour>
        <pt x="27" y="480" on="1"/>
        <pt x="27" y="566" on="0"/>
        <pt x="135" y="670" on="0"/>
        <pt x="223" y="670" on="1"/>
        <pt x="311" y="670" on="0"/>
        <pt x="418" y="566" on="0"/>
        <pt x="418" y="480" on="1"/>
        <pt x="418" y="394" on="0"/>
        <pt x="311" y="290" on="0"/>
        <pt x="223" y="290" on="1"/>
        <pt x="135" y="290" on="0"/>
        <pt x="27" y="394" on="0"/>
      </contour>
      <contour>
        <pt x="322" y="0" on="1"/>
        <pt x="173" y="0" on="1"/>
        <pt x="646" y="661" on="1"/>
        <pt x="796" y="661" on="1"/>
      </contour>
      <contour>
        <pt x="272" y="480" on="1"/>
        <pt x="272" y="538" on="0"/>
        <pt x="223" y="538" on="1"/>
        <pt x="173" y="538" on="0"/>
        <pt x="173" y="480" on="1"/>
        <pt x="173" y="422" on="0"/>
        <pt x="223" y="422" on="1"/>
        <pt x="272" y="422" on="0"/>
      </contour>
      <contour>
        <pt x="548" y="180" on="1"/>
        <pt x="548" y="266" on="0"/>
        <pt x="656" y="370" on="0"/>
        <pt x="744" y="370" on="1"/>
        <pt x="832" y="370" on="0"/>
        <pt x="940" y="266" on="0"/>
        <pt x="940" y="180" on="1"/>
        <pt x="940" y="94" on="0"/>
        <pt x="832" y="-10" on="0"/>
        <pt x="744" y="-10" on="1"/>
        <pt x="656" y="-10" on="0"/>
        <pt x="548" y="94" on="0"/>
      </contour>
      <contour>
        <pt x="794" y="180" on="1"/>
        <pt x="794" y="238" on="0"/>
        <pt x="744" y="238" on="1"/>
        <pt x="694" y="238" on="0"/>
        <pt x="694" y="180" on="1"/>
        <pt x="694" y="122" on="0"/>
        <pt x="744" y="122" on="1"/>
        <pt x="794" y="122" on="0"/>
      </contour>
    </TTGlyph>
    <TTGlyph name="uni0026" xMin="16" yMin="-10" xMax="647" yMax="670">
      <contour>
        <pt x="634" y="-10" on="1"/>
        <pt x="576" y="-10" on="0"/>
        <pt x="494" y="10" on="0"/>
        <pt x="444" y="47" on="1"/>
        <pt x="373" y="-10" on="0"/>
        <pt x="257" y="-10" on="1"/>
        <pt x="153" y="-10" on="0"/>
        <pt x="18" y="80" on="0"/>
        <pt x="17" y="172" on="1"/>
        <pt x="16" y="214" on="0"/>
        <pt x="66" y="315" on="0"/>
        <pt x="142" y="343" on="1"/>
        <pt x="103" y="390" on="0"/>
        <pt x="79" y="455" on="0"/>
        <pt x="79" y="494" on="1"/>
        <pt x="79" y="559" on="0"/>
        <pt x="184" y="670" on="0"/>
        <pt x="296" y="670" on="1"/>
        <pt x="410" y="670" on="0"/>
        <pt x="509" y="568" on="0"/>
        <pt x="509" y="506" on="1"/>
        <pt x="509" y="447" on="0"/>
        <pt x="438" y="354" on="0"/>
        <pt x="365" y="326" on="1"/>
        <pt x="380" y="311" on="0"/>
        <pt x="403" y="287" on="1"/>
        <pt x="420" y="269" on="0"/>
        <pt x="450" y="238" on="0"/>
        <pt x="464" y="224" on="1"/>
        <pt x="482" y="271" on="0"/>
        <pt x="481" y="334" on="1"/>
        <pt x="612" y="332" on="1"/>
        <pt x="609" y="220" on="0"/>
        <pt x="549" y="149" on="1"/>
        <pt x="592" y="122" on="0"/>
        <pt x="647" y="131" on="1"/>
      </contour>
      <contour>
        <pt x="249" y="486" on="1"/>
        <pt x="249" y="468" on="0"/>
        <pt x="268" y="432" on="0"/>
        <pt x="297" y="399" on="1"/>
        <pt x="332" y="427" on="0"/>
        <pt x="352" y="471" on="0"/>
        <pt x="352" y="495" on="1"/>
        <pt x="352" y="543" on="0"/>
        <pt x="301" y="543" on="1"/>
        <pt x="249" y="543" on="0"/>
      </contour>
      <contour>
        <pt x="281" y="118" on="1"/>
        <pt x="316" y="118" on="0"/>
        <pt x="351" y="128" on="1"/>
        <pt x="332" y="146" on="0"/>
        <pt x="310" y="168" on="1"/>
        <pt x="284" y="194" on="0"/>
        <pt x="239" y="238" on="0"/>
        <pt x="220" y="257" on="1"/>
        <pt x="201" y="240" on="0"/>
        <pt x="188" y="207" on="0"/>
        <pt x="188" y="187" on="1"/>
        <pt x="188" y="118" on="0"/>
      </contour>
    </TTGlyph>
    <TTGlyph name="uni0026.sc" xMin="14" yMin="-8" xMax="593" yMax="568">
      <contour>
        <pt x="571" y="-8" on="1"/>
        <pt x="526" y="-8" on="0"/>
        <pt x="455" y="10" on="0"/>
        <pt x="410" y="41" on="1"/>
        <pt x="352" y="-7" on="0"/>
        <pt x="242" y="-7" on="1"/>
        <pt x="14" y="-7" on="0"/>
        <pt x="14" y="140" on="1"/>
        <pt x="14" y="182" on="0"/>
        <pt x="59" y="260" on="0"/>
        <pt x="133" y="286" on="1"/>
        <pt x="97" y="325" on="0"/>
        <pt x="70" y="384" on="0"/>
        <pt x="70" y="417" on="1"/>
        <pt x="70" y="472" on="0"/>
        <pt x="163" y="568" on="0"/>
        <pt x="268" y="568" on="1"/>
        <pt x="358" y="568" on="0"/>
        <pt x="448" y="491" on="0"/>
        <pt x="448" y="429" on="1"/>
        <pt x="448" y="380" on="0"/>
        <pt x="401" y="304" on="0"/>
        <pt x="333" y="273" on="1"/>
        <pt x="346" y="260" on="0"/>
        <pt x="365" y="240" on="1"/>
        <pt x="396" y="208" on="0"/>
        <pt x="422" y="186" on="1"/>
        <pt x="436" y="219" on="0"/>
        <pt x="434" y="278" on="1"/>
        <pt x="547" y="275" on="1"/>
        <pt x="547" y="222" on="0"/>
        <pt x="523" y="152" on="0"/>
        <pt x="504" y="128" on="1"/>
        <pt x="527" y="118" on="0"/>
        <pt x="570" y="112" on="0"/>
        <pt x="593" y="112" on="1"/>
      </contour>
      <contour>
        <pt x="236" y="410" on="1"/>
        <pt x="236" y="394" on="0"/>
        <pt x="250" y="364" on="0"/>
        <pt x="270" y="340" on="1"/>
        <pt x="292" y="359" on="0"/>
        <pt x="307" y="390" on="0"/>
        <pt x="307" y="411" on="1"/>
        <pt x="307" y="451" on="0"/>
        <pt x="272" y="451" on="1"/>
        <pt x="236" y="451" on="0"/>
      </contour>
      <contour>
        <pt x="258" y="109" on="1"/>
        <pt x="289" y="109" on="0"/>
        <pt x="317" y="115" on="1"/>
        <pt x="308" y="124" on="0"/>
        <pt x="297" y="133" on="1"/>
        <pt x="271" y="156" on="0"/>
        <pt x="227" y="195" on="0"/>
        <pt x="208" y="212" on="1"/>
        <pt x="180" y="190" on="0"/>
        <pt x="180" y="164" on="1"/>
        <pt x="180" y="138" on="0"/>
        <pt x="226" y="109" on="0"/>
      </contour>
    </TTGlyph>
    <TTGlyph name="uni0027" xMin="56" yMin="386" xMax="218" yMax="674">
      <contour>
        <pt x="56" y="674" on="1"/>
        <pt x="218" y="674" on="1"/>
        <pt x="187" y="386" on="1"/>
        <pt x="56" y="386" on="1"/>
      </contour>
    </TTGlyph>
    <TTGlyph name="uni0027.sc" xMin="56" yMin="303" xMax="218" yMax="590">
      <contour>
        <pt x="56" y="590" on="1"/>
        <pt x="218" y="590" on="1"/>
        <pt x="187" y="303" on="1"/>
        <pt x="56" y="303" on="1"/>
      </contour>
    </TTGlyph>
    <TTGlyph name="uni0028" xMin="69" yMin="-192" xMax="402" yMax="731">
      <contour>
        <pt x="69" y="270" on="1"/>
        <pt x="69" y="430" on="0"/>
        <pt x="193" y="660" on="0"/>
        <pt x="310" y="731" on="1"/>
        <pt x="402" y="641" on="1"/>
        <pt x="323" y="570" on="0"/>
        <pt x="248" y="400" on="0"/>
        <pt x="248" y="270" on="1"/>
        <pt x="248" y="140" on="0"/>
        <pt x="323" y="-31" on="0"/>
        <pt x="402" y="-102" on="1"/>
        <pt x="310" y="-192" on="1"/>
        <pt x="193" y="-120" on="0"/>
        <pt x="69" y="110" on="0"/>
      </contour>
    </TTGlyph>
    <TTGlyph name="uni0028.case" xMin="69" yMin="-135" xMax="402" yMax="788">
      <component glyphName="uni0028" x="0" y="57" flags="0x4"/>
    </TTGlyph>
    <TTGlyph name="uni0029" xMin="3" yMin="-192" xMax="336" yMax="731">
      <component glyphName="uni0028" x="405" y="0" scalex="-1.0" scaley="1.0" flags="0x4"/>
    </TTGlyph>
    <TTGlyph name="uni0029.case" xMin="3" yMin="-135" xMax="336" yMax="788">
      <component glyphName="uni0028.case" x="405" y="0" scalex="-1.0" scaley="1.0" flags="0x4"/>
    </TTGlyph>
    <TTGlyph name="uni002A" xMin="33" yMin="229" xMax="560" yMax="730">
      <contour>
        <pt x="389" y="229" on="1"/>
        <pt x="309" y="347" on="1"/>
        <pt x="297" y="376" on="1"/>
        <pt x="284" y="347" on="1"/>
        <pt x="204" y="229" on="1"/>
        <pt x="90" y="312" on="1"/>
        <pt x="178" y="424" on="1"/>
        <pt x="202" y="445" on="1"/>
        <pt x="170" y="448" on="1"/>
        <pt x="33" y="487" on="1"/>
        <pt x="77" y="622" on="1"/>
        <pt x="211" y="573" on="1"/>
        <pt x="238" y="557" on="1"/>
        <pt x="231" y="588" on="1"/>
        <pt x="226" y="730" on="1"/>
        <pt x="367" y="730" on="1"/>
        <pt x="362" y="588" on="1"/>
        <pt x="355" y="557" on="1"/>
        <pt x="382" y="573" on="1"/>
        <pt x="517" y="622" on="1"/>
        <pt x="560" y="487" on="1"/>
        <pt x="423" y="448" on="1"/>
        <pt x="392" y="445" on="1"/>
        <pt x="416" y="424" on="1"/>
        <pt x="503" y="312" on="1"/>
      </contour>
    </TTGlyph>
    <TTGlyph name="uni002B" xMin="48" yMin="57" xMax="556" yMax="598">
      <contour>
        <pt x="556" y="259" on="1"/>
        <pt x="381" y="259" on="1"/>
        <pt x="381" y="57" on="1"/>
        <pt x="224" y="57" on="1"/>
        <pt x="224" y="259" on="1"/>
        <pt x="48" y="259" on="1"/>
        <pt x="48" y="397" on="1"/>
        <pt x="224" y="397" on="1"/>
        <pt x="224" y="598" on="1"/>
        <pt x="381" y="598" on="1"/>
        <pt x="381" y="397" on="1"/>
        <pt x="556" y="397" on="1"/>
      </contour>
    </TTGlyph>
    <TTGlyph name="uni002C" xMin="29" yMin="-162" xMax="265" yMax="190">
      <contour>
        <pt x="33" y="87" on="1"/>
        <pt x="33" y="140" on="0"/>
        <pt x="95" y="190" on="0"/>
        <pt x="145" y="190" on="1"/>
        <pt x="207" y="190" on="0"/>
        <pt x="265" y="108" on="0"/>
        <pt x="265" y="51" on="1"/>
        <pt x="265" y="-18" on="0"/>
        <pt x="189" y="-131" on="0"/>
        <pt x="115" y="-162" on="1"/>
        <pt x="29" y="-105" on="1"/>
        <pt x="76" y="-86" on="0"/>
        <pt x="147" y="-34" on="0"/>
        <pt x="162" y="4" on="1"/>
        <pt x="158" y="8" on="1"/>
        <pt x="145" y="-5" on="0"/>
        <pt x="126" y="-5" on="1"/>
        <pt x="92" y="-5" on="0"/>
        <pt x="33" y="40" on="0"/>
      </contour>
    </TTGlyph>
    <TTGlyph name="uni002C.tf" xMin="35" yMin="-162" xMax="271" yMax="190">
      <component glyphName="uni002C" x="6" y="0" flags="0x4"/>
    </TTGlyph>
    <TTGlyph name="uni002D" xMin="78" yMin="191" xMax="457" yMax="349">
      <contour>
        <pt x="78" y="349" on="1"/>
        <pt x="457" y="349" on="1"/>
        <pt x="457" y="191" on="1"/>
        <pt x="78" y="191" on="1"/>
      </contour>
    </TTGlyph>
    <TTGlyph name="uni002D.case" xMin="78" yMin="253" xMax="457" yMax="411">
      <component glyphName="uni002D" x="0" y="62" flags="0x4"/>
    </TTGlyph>
    <TTGlyph name="uni002E" xMin="37" yMin="-8" xMax="261" yMax="190">
      <contour>
        <pt x="37" y="91" on="1"/>
        <pt x="37" y="190" on="0"/>
        <pt x="149" y="190" on="1"/>
        <pt x="261" y="190" on="0"/>
        <pt x="261" y="91" on="1"/>
        <pt x="261" y="-8" on="0"/>
        <pt x="149" y="-8" on="1"/>
        <pt x="37" y="-8" on="0"/>
      </contour>
    </TTGlyph>
    <TTGlyph name="uni002E.tf" xMin="39" yMin="-8" xMax="263" yMax="190">
      <component glyphName="uni002E" x="2" y="0" flags="0x4"/>
    </TTGlyph>
    <TTGlyph name="uni002F" xMin="10" yMin="-70" xMax="468" yMax="706">
      <contour>
        <pt x="281" y="706" on="1"/>
        <pt x="468" y="706" on="1"/>
        <pt x="197" y="-70" on="1"/>
        <pt x="10" y="-70" on="1"/>
      </contour>
    </TTGlyph>
    <TTGlyph name="uni0030" xMin="41" yMin="-10" xMax="610" yMax="670">
      <contour>
        <pt x="610" y="330" on="1"/>
        <pt x="610" y="-10" on="0"/>
        <pt x="326" y="-10" on="1"/>
        <pt x="41" y="-10" on="0"/>
        <pt x="41" y="330" on="1"/>
        <pt x="41" y="670" on="0"/>
        <pt x="326" y="670" on="1"/>
        <pt x="610" y="670" on="0"/>
      </contour>
      <contour>
        <pt x="242" y="330" on="1"/>
        <pt x="242" y="227" on="0"/>
        <pt x="280" y="146" on="0"/>
        <pt x="326" y="146" on="1"/>
        <pt x="372" y="146" on="0"/>
        <pt x="409" y="227" on="0"/>
        <pt x="409" y="330" on="1"/>
        <pt x="409" y="434" on="0"/>
        <pt x="372" y="514" on="0"/>
        <pt x="326" y="514" on="1"/>
        <pt x="280" y="514" on="0"/>
        <pt x="242" y="434" on="0"/>
      </contour>
    </TTGlyph>
    <TTGlyph name="uni0030.dnom" xMin="21" yMin="-10" xMax="398" yMax="398">
      <component glyphName="uni2070" x="0" y="-337" flags="0x4"/>
    </TTGlyph>
    <TTGlyph name="uni0030.numr" xMin="21" yMin="262" xMax="398" yMax="670">
      <component glyphName="uni2070" x="0" y="-65" flags="0x4"/>
    </TTGlyph>
    <TTGlyph name="uni0030.osf" xMin="32" yMin="-10" xMax="590" yMax="570">
      <contour>
        <pt x="32" y="280" on="1"/>
        <pt x="32" y="570" on="0"/>
        <pt x="311" y="570" on="1"/>
        <pt x="590" y="570" on="0"/>
        <pt x="590" y="280" on="1"/>
        <pt x="590" y="-10" on="0"/>
        <pt x="311" y="-10" on="1"/>
        <pt x="32" y="-10" on="0"/>
      </contour>
      <contour>
        <pt x="392" y="280" on="1"/>
        <pt x="392" y="362" on="0"/>
        <pt x="354" y="432" on="0"/>
        <pt x="311" y="432" on="1"/>
        <pt x="268" y="432" on="0"/>
        <pt x="231" y="362" on="0"/>
        <pt x="231" y="280" on="1"/>
        <pt x="231" y="198" on="0"/>
        <pt x="268" y="128" on="0"/>
        <pt x="311" y="128" on="1"/>
        <pt x="354" y="128" on="0"/>
        <pt x="392" y="198" on="0"/>
      </contour>
    </TTGlyph>
    <TTGlyph name="uni0030.osf.zero" xMin="32" yMin="-10" xMax="590" yMax="570">
      <contour>
        <pt x="458" y="475" on="1"/>
        <pt x="250" y="46" on="1"/>
        <pt x="166" y="79" on="1"/>
        <pt x="379" y="515" on="1"/>
      </contour>
      <contour>
        <pt x="32" y="280" on="1"/>
        <pt x="32" y="570" on="0"/>
        <pt x="311" y="570" on="1"/>
        <pt x="590" y="570" on="0"/>
        <pt x="590" y="280" on="1"/>
        <pt x="590" y="-10" on="0"/>
        <pt x="311" y="-10" on="1"/>
        <pt x="32" y="-10" on="0"/>
      </contour>
      <contour>
        <pt x="392" y="280" on="1"/>
        <pt x="392" y="362" on="0"/>
        <pt x="354" y="432" on="0"/>
        <pt x="311" y="432" on="1"/>
        <pt x="268" y="432" on="0"/>
        <pt x="231" y="362" on="0"/>
        <pt x="231" y="280" on="1"/>
        <pt x="231" y="198" on="0"/>
        <pt x="268" y="128" on="0"/>
        <pt x="311" y="128" on="1"/>
        <pt x="354" y="128" on="0"/>
        <pt x="392" y="198" on="0"/>
      </contour>
    </TTGlyph>
    <TTGlyph name="uni0030.sc" xMin="34" yMin="-8" xMax="568" yMax="568">
      <contour>
        <pt x="34" y="280" on="1"/>
        <pt x="34" y="420" on="0"/>
        <pt x="171" y="568" on="0"/>
        <pt x="301" y="568" on="1"/>
        <pt x="431" y="568" on="0"/>
        <pt x="568" y="420" on="0"/>
        <pt x="568" y="280" on="1"/>
        <pt x="568" y="140" on="0"/>
        <pt x="431" y="-8" on="0"/>
        <pt x="301" y="-8" on="1"/>
        <pt x="171" y="-8" on="0"/>
        <pt x="34" y="140" on="0"/>
      </contour>
      <contour>
        <pt x="370" y="280" on="1"/>
        <pt x="370" y="358" on="0"/>
        <pt x="339" y="417" on="0"/>
        <pt x="301" y="417" on="1"/>
        <pt x="263" y="417" on="0"/>
        <pt x="232" y="358" on="0"/>
        <pt x="232" y="280" on="1"/>
        <pt x="232" y="202" on="0"/>
        <pt x="263" y="143" on="0"/>
        <pt x="301" y="143" on="1"/>
        <pt x="339" y="143" on="0"/>
        <pt x="370" y="202" on="0"/>
      </contour>
    </TTGlyph>
    <TTGlyph name="uni0030.tf" xMin="30" yMin="-10" xMax="574" yMax="670">
      <contour>
        <pt x="574" y="330" on="1"/>
        <pt x="574" y="-10" on="0"/>
        <pt x="302" y="-10" on="1"/>
        <pt x="30" y="-10" on="0"/>
        <pt x="30" y="330" on="1"/>
        <pt x="30" y="670" on="0"/>
        <pt x="302" y="670" on="1"/>
        <pt x="574" y="670" on="0"/>
      </contour>
      <contour>
        <pt x="228" y="330" on="1"/>
        <pt x="228" y="225" on="0"/>
        <pt x="261" y="146" on="0"/>
        <pt x="302" y="146" on="1"/>
        <pt x="343" y="146" on="0"/>
        <pt x="376" y="225" on="0"/>
        <pt x="376" y="330" on="1"/>
        <pt x="376" y="435" on="0"/>
        <pt x="343" y="514" on="0"/>
        <pt x="302" y="514" on="1"/>
        <pt x="261" y="514" on="0"/>
        <pt x="228" y="435" on="0"/>
      </contour>
    </TTGlyph>
    <TTGlyph name="uni0030.tf.zero" xMin="30" yMin="-10" xMax="574" yMax="670">
      <contour>
        <pt x="448" y="578" on="1"/>
        <pt x="236" y="42" on="1"/>
        <pt x="156" y="76" on="1"/>
        <pt x="373" y="618" on="1"/>
      </contour>
      <contour>
        <pt x="574" y="330" on="1"/>
        <pt x="574" y="-10" on="0"/>
        <pt x="302" y="-10" on="1"/>
        <pt x="30" y="-10" on="0"/>
        <pt x="30" y="330" on="1"/>
        <pt x="30" y="670" on="0"/>
        <pt x="302" y="670" on="1"/>
        <pt x="574" y="670" on="0"/>
      </contour>
      <contour>
        <pt x="228" y="330" on="1"/>
        <pt x="228" y="225" on="0"/>
        <pt x="261" y="146" on="0"/>
        <pt x="302" y="146" on="1"/>
        <pt x="343" y="146" on="0"/>
        <pt x="376" y="225" on="0"/>
        <pt x="376" y="330" on="1"/>
        <pt x="376" y="435" on="0"/>
        <pt x="343" y="514" on="0"/>
        <pt x="302" y="514" on="1"/>
        <pt x="261" y="514" on="0"/>
        <pt x="228" y="435" on="0"/>
      </contour>
    </TTGlyph>
    <TTGlyph name="uni0030.tosf" xMin="32" yMin="-10" xMax="572" yMax="570">
      <contour>
        <pt x="32" y="280" on="1"/>
        <pt x="32" y="570" on="0"/>
        <pt x="302" y="570" on="1"/>
        <pt x="572" y="570" on="0"/>
        <pt x="572" y="280" on="1"/>
        <pt x="572" y="-10" on="0"/>
        <pt x="302" y="-10" on="1"/>
        <pt x="32" y="-10" on="0"/>
      </contour>
      <contour>
        <pt x="374" y="280" on="1"/>
        <pt x="374" y="363" on="0"/>
        <pt x="341" y="432" on="0"/>
        <pt x="302" y="432" on="1"/>
        <pt x="263" y="432" on="0"/>
        <pt x="230" y="363" on="0"/>
        <pt x="230" y="280" on="1"/>
        <pt x="230" y="198" on="0"/>
        <pt x="263" y="128" on="0"/>
        <pt x="302" y="128" on="1"/>
        <pt x="341" y="128" on="0"/>
        <pt x="374" y="198" on="0"/>
      </contour>
    </TTGlyph>
    <TTGlyph name="uni0030.tosf.zero" xMin="32" yMin="-10" xMax="572" yMax="570">
      <contour>
        <pt x="451" y="475" on="1"/>
        <pt x="242" y="46" on="1"/>
        <pt x="159" y="79" on="1"/>
        <pt x="371" y="515" on="1"/>
      </contour>
      <contour>
        <pt x="32" y="280" on="1"/>
        <pt x="32" y="570" on="0"/>
        <pt x="302" y="570" on="1"/>
        <pt x="572" y="570" on="0"/>
        <pt x="572" y="280" on="1"/>
        <pt x="572" y="-10" on="0"/>
        <pt x="302" y="-10" on="1"/>
        <pt x="32" y="-10" on="0"/>
      </contour>
      <contour>
        <pt x="374" y="280" on="1"/>
        <pt x="374" y="363" on="0"/>
        <pt x="341" y="432" on="0"/>
        <pt x="302" y="432" on="1"/>
        <pt x="263" y="432" on="0"/>
        <pt x="230" y="363" on="0"/>
        <pt x="230" y="280" on="1"/>
        <pt x="230" y="198" on="0"/>
        <pt x="263" y="128" on="0"/>
        <pt x="302" y="128" on="1"/>
        <pt x="341" y="128" on="0"/>
        <pt x="374" y="198" on="0"/>
      </contour>
    </TTGlyph>
    <TTGlyph name="uni0030.zero" xMin="41" yMin="-10" xMax="610" yMax="670">
      <contour>
        <pt x="483" y="578" on="1"/>
        <pt x="260" y="43" on="1"/>
        <pt x="177" y="76" on="1"/>
        <pt x="404" y="619" on="1"/>
      </contour>
      <contour>
        <pt x="610" y="330" on="1"/>
        <pt x="610" y="-10" on="0"/>
        <pt x="326" y="-10" on="1"/>
        <pt x="41" y="-10" on="0"/>
        <pt x="41" y="330" on="1"/>
        <pt x="41" y="670" on="0"/>
        <pt x="326" y="670" on="1"/>
        <pt x="610" y="670" on="0"/>
      </contour>
      <contour>
        <pt x="242" y="330" on="1"/>
        <pt x="242" y="227" on="0"/>
        <pt x="280" y="146" on="0"/>
        <pt x="326" y="146" on="1"/>
        <pt x="372" y="146" on="0"/>
        <pt x="409" y="227" on="0"/>
        <pt x="409" y="330" on="1"/>
        <pt x="409" y="434" on="0"/>
        <pt x="372" y="514" on="0"/>
        <pt x="326" y="514" on="1"/>
        <pt x="280" y="514" on="0"/>
        <pt x="242" y="434" on="0"/>
      </contour>
    </TTGlyph>
    <TTGlyph name="uni0031" xMin="23" yMin="0" xMax="385" yMax="660">
      <contour>
        <pt x="385" y="0" on="1"/>
        <pt x="189" y="0" on="1"/>
        <pt x="189" y="465" on="1"/>
        <pt x="156" y="436" on="0"/>
        <pt x="79" y="392" on="0"/>
        <pt x="38" y="386" on="1"/>
        <pt x="23" y="552" on="1"/>
        <pt x="80" y="558" on="0"/>
        <pt x="201" y="624" on="0"/>
        <pt x="225" y="660" on="1"/>
        <pt x="385" y="660" on="1"/>
      </contour>
    </TTGlyph>
    <TTGlyph name="uni0031.dnom" xMin="22" yMin="-4" xMax="280" yMax="393">
      <component glyphName="uni00B9" x="0" y="-337" flags="0x4"/>
    </TTGlyph>
    <TTGlyph name="uni0031.numr" xMin="22" yMin="268" xMax="280" yMax="665">
      <component glyphName="uni00B9" x="0" y="-65" flags="0x4"/>
    </TTGlyph>
    <TTGlyph name="uni0031.osf" xMin="21" yMin="0" xMax="381" yMax="560">
      <contour>
        <pt x="381" y="0" on="1"/>
        <pt x="185" y="0" on="1"/>
        <pt x="185" y="363" on="1"/>
        <pt x="152" y="334" on="0"/>
        <pt x="76" y="292" on="0"/>
        <pt x="35" y="288" on="1"/>
        <pt x="21" y="453" on="1"/>
        <pt x="79" y="461" on="0"/>
        <pt x="198" y="524" on="0"/>
        <pt x="221" y="560" on="1"/>
        <pt x="381" y="560" on="1"/>
      </contour>
    </TTGlyph>
    <TTGlyph name="uni0031.sc" xMin="19" yMin="0" xMax="369" yMax="560">
      <contour>
        <pt x="369" y="0" on="1"/>
        <pt x="167" y="0" on="1"/>
        <pt x="167" y="272" on="1"/>
        <pt x="167" y="319" on="0"/>
        <pt x="173" y="379" on="1"/>
        <pt x="143" y="357" on="0"/>
        <pt x="74" y="328" on="0"/>
        <pt x="36" y="324" on="1"/>
        <pt x="19" y="478" on="1"/>
        <pt x="134" y="493" on="0"/>
        <pt x="203" y="560" on="1"/>
        <pt x="369" y="560" on="1"/>
      </contour>
    </TTGlyph>
    <TTGlyph name="uni0031.tf" xMin="62" yMin="0" xMax="573" yMax="660">
      <contour>
        <pt x="573" y="0" on="1"/>
        <pt x="67" y="0" on="1"/>
        <pt x="67" y="151" on="1"/>
        <pt x="239" y="151" on="1"/>
        <pt x="239" y="477" on="1"/>
        <pt x="204" y="445" on="0"/>
        <pt x="122" y="400" on="0"/>
        <pt x="77" y="396" on="1"/>
        <pt x="62" y="552" on="1"/>
        <pt x="121" y="558" on="0"/>
        <pt x="239" y="624" on="0"/>
        <pt x="264" y="660" on="1"/>
        <pt x="424" y="660" on="1"/>
        <pt x="424" y="151" on="1"/>
        <pt x="573" y="151" on="1"/>
      </contour>
    </TTGlyph>
    <TTGlyph name="uni0031.tosf" xMin="75" yMin="0" xMax="584" yMax="560">
      <contour>
        <pt x="584" y="0" on="1"/>
        <pt x="75" y="0" on="1"/>
        <pt x="75" y="145" on="1"/>
        <pt x="253" y="145" on="1"/>
        <pt x="253" y="378" on="1"/>
        <pt x="218" y="350" on="0"/>
        <pt x="136" y="311" on="0"/>
        <pt x="92" y="307" on="1"/>
        <pt x="77" y="452" on="1"/>
        <pt x="136" y="458" on="0"/>
        <pt x="264" y="524" on="0"/>
        <pt x="289" y="560" on="1"/>
        <pt x="434" y="560" on="1"/>
        <pt x="434" y="145" on="1"/>
        <pt x="584" y="145" on="1"/>
      </contour>
    </TTGlyph>
    <TTGlyph name="uni0032" xMin="33" yMin="0" xMax="568" yMax="670">
      <contour>
        <pt x="568" y="0" on="1"/>
        <pt x="55" y="0" on="1"/>
        <pt x="55" y="126" on="1"/>
        <pt x="215" y="218" on="0"/>
        <pt x="360" y="377" on="0"/>
        <pt x="360" y="440" on="1"/>
        <pt x="360" y="471" on="0"/>
        <pt x="326" y="514" on="0"/>
        <pt x="290" y="514" on="1"/>
        <pt x="208" y="514" on="0"/>
        <pt x="208" y="388" on="1"/>
        <pt x="33" y="435" on="1"/>
        <pt x="33" y="553" on="0"/>
        <pt x="189" y="670" on="0"/>
        <pt x="303" y="670" on="1"/>
        <pt x="398" y="670" on="0"/>
        <pt x="511" y="603" on="0"/>
        <pt x="562" y="504" on="0"/>
        <pt x="562" y="456" on="1"/>
        <pt x="562" y="359" on="0"/>
        <pt x="414" y="211" on="0"/>
        <pt x="295" y="148" on="1"/>
        <pt x="295" y="146" on="1"/>
        <pt x="357" y="151" on="0"/>
        <pt x="441" y="151" on="1"/>
        <pt x="568" y="151" on="1"/>
      </contour>
    </TTGlyph>
    <TTGlyph name="uni0032.dnom" xMin="11" yMin="-4" xMax="382" yMax="398">
      <component glyphName="uni00B2" x="0" y="-337" flags="0x4"/>
    </TTGlyph>
    <TTGlyph name="uni0032.numr" xMin="11" yMin="268" xMax="382" yMax="670">
      <component glyphName="uni00B2" x="0" y="-65" flags="0x4"/>
    </TTGlyph>
    <TTGlyph name="uni0032.osf" xMin="29" yMin="0" xMax="555" yMax="570">
      <contour>
        <pt x="30" y="360" on="1"/>
        <pt x="29" y="413" on="0"/>
        <pt x="73" y="509" on="0"/>
        <pt x="187" y="570" on="0"/>
        <pt x="290" y="570" on="1"/>
        <pt x="431" y="570" on="0"/>
        <pt x="545" y="456" on="0"/>
        <pt x="545" y="383" on="1"/>
        <pt x="545" y="315" on="0"/>
        <pt x="480" y="227" on="0"/>
        <pt x="383" y="171" on="0"/>
        <pt x="335" y="151" on="1"/>
        <pt x="305" y="139" on="0"/>
        <pt x="281" y="133" on="1"/>
        <pt x="281" y="131" on="1"/>
        <pt x="308" y="133" on="0"/>
        <pt x="369" y="136" on="0"/>
        <pt x="391" y="136" on="1"/>
        <pt x="555" y="136" on="1"/>
        <pt x="555" y="0" on="1"/>
        <pt x="43" y="0" on="1"/>
        <pt x="43" y="119" on="1"/>
        <pt x="164" y="178" on="0"/>
        <pt x="299" y="253" on="0"/>
        <pt x="354" y="322" on="0"/>
        <pt x="354" y="369" on="1"/>
        <pt x="354" y="432" on="0"/>
        <pt x="285" y="432" on="1"/>
        <pt x="200" y="432" on="0"/>
        <pt x="212" y="319" on="1"/>
      </contour>
    </TTGlyph>
    <TTGlyph name="uni0032.sc" xMin="29" yMin="0" xMax="533" yMax="568">
      <contour>
        <pt x="31" y="362" on="1"/>
        <pt x="29" y="439" on="0"/>
        <pt x="144" y="568" on="0"/>
        <pt x="286" y="568" on="1"/>
        <pt x="420" y="568" on="0"/>
        <pt x="528" y="453" on="0"/>
        <pt x="528" y="391" on="1"/>
        <pt x="528" y="318" on="0"/>
        <pt x="459" y="222" on="0"/>
        <pt x="356" y="162" on="0"/>
        <pt x="304" y="141" on="1"/>
        <pt x="304" y="139" on="1"/>
        <pt x="326" y="141" on="0"/>
        <pt x="390" y="143" on="0"/>
        <pt x="412" y="143" on="1"/>
        <pt x="533" y="143" on="1"/>
        <pt x="533" y="0" on="1"/>
        <pt x="49" y="0" on="1"/>
        <pt x="49" y="118" on="1"/>
        <pt x="222" y="204" on="0"/>
        <pt x="335" y="312" on="0"/>
        <pt x="335" y="357" on="1"/>
        <pt x="335" y="417" on="0"/>
        <pt x="275" y="417" on="1"/>
        <pt x="201" y="417" on="0"/>
        <pt x="204" y="319" on="1"/>
      </contour>
    </TTGlyph>
    <TTGlyph name="uni0032.tf" xMin="27" yMin="0" xMax="562" yMax="670">
      <component glyphName="uni0032" x="-6" y="0" flags="0x4"/>
    </TTGlyph>
    <TTGlyph name="uni0032.tosf" xMin="35" yMin="0" xMax="561" yMax="570">
      <component glyphName="uni0032.osf" x="6" y="0" flags="0x4"/>
    </TTGlyph>
    <TTGlyph name="uni0033" xMin="24" yMin="-10" xMax="560" yMax="670">
      <contour>
        <pt x="36" y="488" on="1"/>
        <pt x="50" y="590" on="0"/>
        <pt x="199" y="670" on="0"/>
        <pt x="302" y="670" on="1"/>
        <pt x="419" y="670" on="0"/>
        <pt x="547" y="570" on="0"/>
        <pt x="547" y="480" on="1"/>
        <pt x="547" y="422" on="0"/>
        <pt x="497" y="358" on="0"/>
        <pt x="437" y="333" on="0"/>
        <pt x="423" y="333" on="1"/>
        <pt x="423" y="329" on="1"/>
        <pt x="439" y="329" on="0"/>
        <pt x="505" y="309" on="0"/>
        <pt x="560" y="246" on="0"/>
        <pt x="560" y="181" on="1"/>
        <pt x="560" y="93" on="0"/>
        <pt x="408" y="-10" on="0"/>
        <pt x="295" y="-10" on="1"/>
        <pt x="184" y="-10" on="0"/>
        <pt x="50" y="66" on="0"/>
        <pt x="24" y="156" on="1"/>
        <pt x="208" y="233" on="1"/>
        <pt x="210" y="181" on="0"/>
        <pt x="256" y="143" on="0"/>
        <pt x="290" y="143" on="1"/>
        <pt x="365" y="143" on="0"/>
        <pt x="364" y="208" on="1"/>
        <pt x="363" y="267" on="0"/>
        <pt x="285" y="267" on="1"/>
        <pt x="244" y="267" on="1"/>
        <pt x="244" y="388" on="1"/>
        <pt x="275" y="388" on="1"/>
        <pt x="350" y="388" on="0"/>
        <pt x="351" y="452" on="1"/>
        <pt x="351" y="517" on="0"/>
        <pt x="288" y="517" on="1"/>
        <pt x="258" y="517" on="0"/>
        <pt x="215" y="480" on="0"/>
        <pt x="213" y="431" on="1"/>
      </contour>
    </TTGlyph>
    <TTGlyph name="uni0033.dnom" xMin="4" yMin="-10" xMax="365" yMax="398">
      <component glyphName="uni00B3" x="0" y="-337" flags="0x4"/>
    </TTGlyph>
    <TTGlyph name="uni0033.numr" xMin="4" yMin="262" xMax="365" yMax="670">
      <component glyphName="uni00B3" x="0" y="-65" flags="0x4"/>
    </TTGlyph>
    <TTGlyph name="uni0033.osf" xMin="10" yMin="-110" xMax="534" yMax="570">
      <contour>
        <pt x="22" y="388" on="1"/>
        <pt x="36" y="490" on="0"/>
        <pt x="181" y="570" on="0"/>
        <pt x="284" y="570" on="1"/>
        <pt x="395" y="570" on="0"/>
        <pt x="521" y="469" on="0"/>
        <pt x="521" y="380" on="1"/>
        <pt x="521" y="323" on="0"/>
        <pt x="478" y="260" on="0"/>
        <pt x="425" y="234" on="0"/>
        <pt x="410" y="233" on="1"/>
        <pt x="410" y="229" on="1"/>
        <pt x="427" y="229" on="0"/>
        <pt x="486" y="205" on="0"/>
        <pt x="534" y="143" on="0"/>
        <pt x="534" y="85" on="1"/>
        <pt x="534" y="-10" on="0"/>
        <pt x="390" y="-110" on="0"/>
        <pt x="282" y="-110" on="1"/>
        <pt x="171" y="-110" on="0"/>
        <pt x="37" y="-34" on="0"/>
        <pt x="10" y="56" on="1"/>
        <pt x="184" y="128" on="1"/>
        <pt x="186" y="75" on="0"/>
        <pt x="235" y="28" on="0"/>
        <pt x="274" y="28" on="1"/>
        <pt x="307" y="28" on="0"/>
        <pt x="350" y="67" on="0"/>
        <pt x="350" y="102" on="1"/>
        <pt x="350" y="140" on="0"/>
        <pt x="310" y="168" on="0"/>
        <pt x="272" y="168" on="1"/>
        <pt x="231" y="168" on="1"/>
        <pt x="231" y="281" on="1"/>
        <pt x="261" y="281" on="1"/>
        <pt x="337" y="281" on="0"/>
        <pt x="337" y="358" on="1"/>
        <pt x="337" y="432" on="0"/>
        <pt x="271" y="432" on="1"/>
        <pt x="235" y="432" on="0"/>
        <pt x="193" y="389" on="0"/>
        <pt x="191" y="334" on="1"/>
      </contour>
    </TTGlyph>
    <TTGlyph name="uni0033.sc" xMin="20" yMin="-8" xMax="524" yMax="568">
      <contour>
        <pt x="36" y="415" on="1"/>
        <pt x="44" y="492" on="0"/>
        <pt x="188" y="568" on="0"/>
        <pt x="284" y="568" on="1"/>
        <pt x="396" y="568" on="0"/>
        <pt x="512" y="474" on="0"/>
        <pt x="512" y="409" on="1"/>
        <pt x="512" y="331" on="0"/>
        <pt x="429" y="283" on="0"/>
        <pt x="401" y="283" on="1"/>
        <pt x="401" y="280" on="1"/>
        <pt x="431" y="282" on="0"/>
        <pt x="524" y="235" on="0"/>
        <pt x="524" y="161" on="1"/>
        <pt x="524" y="85" on="0"/>
        <pt x="388" y="-8" on="0"/>
        <pt x="285" y="-8" on="1"/>
        <pt x="179" y="-8" on="0"/>
        <pt x="47" y="55" on="0"/>
        <pt x="20" y="136" on="1"/>
        <pt x="199" y="202" on="1"/>
        <pt x="202" y="133" on="0"/>
        <pt x="273" y="133" on="1"/>
        <pt x="335" y="133" on="0"/>
        <pt x="335" y="183" on="1"/>
        <pt x="335" y="225" on="0"/>
        <pt x="277" y="225" on="1"/>
        <pt x="227" y="225" on="1"/>
        <pt x="227" y="331" on="1"/>
        <pt x="262" y="331" on="1"/>
        <pt x="323" y="331" on="0"/>
        <pt x="323" y="382" on="1"/>
        <pt x="324" y="400" on="0"/>
        <pt x="299" y="427" on="0"/>
        <pt x="269" y="427" on="1"/>
        <pt x="206" y="427" on="0"/>
        <pt x="208" y="365" on="1"/>
      </contour>
    </TTGlyph>
    <TTGlyph name="uni0033.tf" xMin="31" yMin="-10" xMax="563" yMax="670">
      <contour>
        <pt x="43" y="488" on="1"/>
        <pt x="57" y="590" on="0"/>
        <pt x="206" y="670" on="0"/>
        <pt x="309" y="670" on="1"/>
        <pt x="424" y="670" on="0"/>
        <pt x="550" y="570" on="0"/>
        <pt x="550" y="480" on="1"/>
        <pt x="550" y="422" on="0"/>
        <pt x="500" y="358" on="0"/>
        <pt x="440" y="333" on="0"/>
        <pt x="426" y="333" on="1"/>
        <pt x="426" y="329" on="1"/>
        <pt x="443" y="329" on="0"/>
        <pt x="509" y="309" on="0"/>
        <pt x="563" y="246" on="0"/>
        <pt x="563" y="181" on="1"/>
        <pt x="563" y="93" on="0"/>
        <pt x="414" y="-10" on="0"/>
        <pt x="303" y="-10" on="1"/>
        <pt x="191" y="-10" on="0"/>
        <pt x="57" y="66" on="0"/>
        <pt x="31" y="156" on="1"/>
        <pt x="212" y="233" on="1"/>
        <pt x="213" y="178" on="0"/>
        <pt x="261" y="143" on="0"/>
        <pt x="295" y="143" on="1"/>
        <pt x="326" y="143" on="0"/>
        <pt x="368" y="178" on="0"/>
        <pt x="367" y="210" on="1"/>
        <pt x="366" y="267" on="0"/>
        <pt x="291" y="267" on="1"/>
        <pt x="251" y="267" on="1"/>
        <pt x="251" y="388" on="1"/>
        <pt x="282" y="388" on="1"/>
        <pt x="353" y="388" on="0"/>
        <pt x="354" y="452" on="1"/>
        <pt x="354" y="483" on="0"/>
        <pt x="319" y="517" on="0"/>
        <pt x="293" y="517" on="1"/>
        <pt x="262" y="517" on="0"/>
        <pt x="217" y="480" on="0"/>
        <pt x="218" y="431" on="1"/>
      </contour>
    </TTGlyph>
    <TTGlyph name="uni0033.tosf" xMin="27" yMin="-110" xMax="551" yMax="570">
      <component glyphName="uni0033.osf" x="17" y="0" flags="0x4"/>
    </TTGlyph>
    <TTGlyph name="uni0034" xMin="29" yMin="0" xMax="637" yMax="660">
      <contour>
        <pt x="543" y="270" on="1"/>
        <pt x="637" y="270" on="1"/>
        <pt x="637" y="135" on="1"/>
        <pt x="543" y="135" on="1"/>
        <pt x="543" y="0" on="1"/>
        <pt x="365" y="0" on="1"/>
        <pt x="365" y="135" on="1"/>
        <pt x="29" y="135" on="1"/>
        <pt x="29" y="224" on="1"/>
        <pt x="305" y="660" on="1"/>
        <pt x="543" y="660" on="1"/>
      </contour>
      <contour>
        <pt x="366" y="530" on="1"/>
        <pt x="356" y="503" on="0"/>
        <pt x="328" y="448" on="0"/>
        <pt x="312" y="422" on="1"/>
        <pt x="216" y="270" on="1"/>
        <pt x="365" y="270" on="1"/>
        <pt x="365" y="421" on="1"/>
        <pt x="368" y="530" on="1"/>
      </contour>
    </TTGlyph>
    <TTGlyph name="uni0034.dnom" xMin="11" yMin="-4" xMax="394" yMax="394">
      <component glyphName="uni2074" x="0" y="-337" flags="0x4"/>
    </TTGlyph>
    <TTGlyph name="uni0034.numr" xMin="11" yMin="268" xMax="394" yMax="666">
      <component glyphName="uni2074" x="0" y="-65" flags="0x4"/>
    </TTGlyph>
    <TTGlyph name="uni0034.osf" xMin="28" yMin="-100" xMax="636" yMax="560">
      <component glyphName="uni0034" x="-1" y="-100" flags="0x4"/>
    </TTGlyph>
    <TTGlyph name="uni0034.sc" xMin="38" yMin="0" xMax="607" yMax="560">
      <contour>
        <pt x="520" y="0" on="1"/>
        <pt x="339" y="0" on="1"/>
        <pt x="339" y="105" on="1"/>
        <pt x="38" y="105" on="1"/>
        <pt x="38" y="200" on="1"/>
        <pt x="282" y="560" on="1"/>
        <pt x="520" y="560" on="1"/>
        <pt x="520" y="239" on="1"/>
        <pt x="607" y="239" on="1"/>
        <pt x="607" y="105" on="1"/>
        <pt x="520" y="105" on="1"/>
      </contour>
      <contour>
        <pt x="301" y="372" on="1"/>
        <pt x="212" y="239" on="1"/>
        <pt x="340" y="239" on="1"/>
        <pt x="346" y="451" on="1"/>
        <pt x="343" y="451" on="1"/>
        <pt x="336" y="433" on="0"/>
        <pt x="312" y="389" on="0"/>
      </contour>
    </TTGlyph>
    <TTGlyph name="uni0034.tf" xMin="29" yMin="0" xMax="589" yMax="660">
      <contour>
        <pt x="492" y="0" on="1"/>
        <pt x="314" y="0" on="1"/>
        <pt x="314" y="135" on="1"/>
        <pt x="29" y="135" on="1"/>
        <pt x="29" y="224" on="1"/>
        <pt x="258" y="660" on="1"/>
        <pt x="492" y="660" on="1"/>
        <pt x="492" y="270" on="1"/>
        <pt x="589" y="270" on="1"/>
        <pt x="589" y="135" on="1"/>
        <pt x="492" y="135" on="1"/>
      </contour>
      <contour>
        <pt x="290" y="452" on="1"/>
        <pt x="195" y="270" on="1"/>
        <pt x="322" y="270" on="1"/>
        <pt x="322" y="360" on="1"/>
        <pt x="322" y="389" on="0"/>
        <pt x="325" y="486" on="0"/>
        <pt x="326" y="528" on="1"/>
        <pt x="323" y="528" on="1"/>
        <pt x="319" y="513" on="0"/>
        <pt x="297" y="465" on="0"/>
      </contour>
    </TTGlyph>
    <TTGlyph name="uni0034.tosf" xMin="23" yMin="-100" xMax="586" yMax="560">
      <contour>
        <pt x="491" y="-100" on="1"/>
        <pt x="313" y="-100" on="1"/>
        <pt x="313" y="35" on="1"/>
        <pt x="23" y="35" on="1"/>
        <pt x="23" y="124" on="1"/>
        <pt x="257" y="560" on="1"/>
        <pt x="491" y="560" on="1"/>
        <pt x="491" y="170" on="1"/>
        <pt x="586" y="170" on="1"/>
        <pt x="586" y="35" on="1"/>
        <pt x="491" y="35" on="1"/>
      </contour>
      <contour>
        <pt x="287" y="353" on="1"/>
        <pt x="185" y="170" on="1"/>
        <pt x="321" y="170" on="1"/>
        <pt x="321" y="260" on="1"/>
        <pt x="321" y="289" on="0"/>
        <pt x="324" y="388" on="0"/>
        <pt x="325" y="430" on="1"/>
        <pt x="322" y="430" on="1"/>
        <pt x="317" y="414" on="0"/>
        <pt x="295" y="368" on="0"/>
      </contour>
    </TTGlyph>
    <TTGlyph name="uni0035" xMin="18" yMin="-10" xMax="554" yMax="660">
      <contour>
        <pt x="217" y="383" on="1"/>
        <pt x="236" y="405" on="0"/>
        <pt x="306" y="427" on="0"/>
        <pt x="348" y="427" on="1"/>
        <pt x="446" y="427" on="0"/>
        <pt x="554" y="316" on="0"/>
        <pt x="554" y="231" on="1"/>
        <pt x="554" y="104" on="0"/>
        <pt x="392" y="-10" on="0"/>
        <pt x="286" y="-10" on="1"/>
        <pt x="201" y="-10" on="0"/>
        <pt x="67" y="42" on="0"/>
        <pt x="18" y="115" on="1"/>
        <pt x="195" y="217" on="1"/>
        <pt x="202" y="180" on="0"/>
        <pt x="241" y="139" on="0"/>
        <pt x="288" y="139" on="1"/>
        <pt x="327" y="139" on="0"/>
        <pt x="374" y="177" on="0"/>
        <pt x="373" y="217" on="1"/>
        <pt x="373" y="293" on="0"/>
        <pt x="287" y="293" on="1"/>
        <pt x="227" y="293" on="0"/>
        <pt x="197" y="262" on="1"/>
        <pt x="45" y="288" on="1"/>
        <pt x="89" y="660" on="1"/>
        <pt x="515" y="660" on="1"/>
        <pt x="515" y="507" on="1"/>
        <pt x="234" y="507" on="1"/>
        <pt x="222" y="413" on="1"/>
        <pt x="218" y="388" on="0"/>
        <pt x="216" y="383" on="1"/>
      </contour>
    </TTGlyph>
    <TTGlyph name="uni0035.dnom" xMin="10" yMin="-10" xMax="366" yMax="393">
      <component glyphName="uni2075" x="0" y="-337" flags="0x4"/>
    </TTGlyph>
    <TTGlyph name="uni0035.numr" xMin="10" yMin="262" xMax="366" yMax="665">
      <component glyphName="uni2075" x="0" y="-65" flags="0x4"/>
    </TTGlyph>
    <TTGlyph name="uni0035.osf" xMin="17" yMin="-110" xMax="537" yMax="560">
      <contour>
        <pt x="212" y="279" on="1"/>
        <pt x="248" y="327" on="0"/>
        <pt x="343" y="327" on="1"/>
        <pt x="441" y="327" on="0"/>
        <pt x="537" y="216" on="0"/>
        <pt x="537" y="127" on="1"/>
        <pt x="537" y="3" on="0"/>
        <pt x="388" y="-110" on="0"/>
        <pt x="285" y="-110" on="1"/>
        <pt x="199" y="-110" on="0"/>
        <pt x="55" y="-53" on="0"/>
        <pt x="17" y="33" on="1"/>
        <pt x="185" y="117" on="1"/>
        <pt x="190" y="79" on="0"/>
        <pt x="236" y="28" on="0"/>
        <pt x="276" y="28" on="1"/>
        <pt x="359" y="28" on="0"/>
        <pt x="359" y="112" on="1"/>
        <pt x="359" y="193" on="0"/>
        <pt x="278" y="193" on="1"/>
        <pt x="244" y="193" on="0"/>
        <pt x="205" y="173" on="0"/>
        <pt x="190" y="159" on="1"/>
        <pt x="44" y="188" on="1"/>
        <pt x="87" y="560" on="1"/>
        <pt x="514" y="560" on="1"/>
        <pt x="514" y="412" on="1"/>
        <pt x="229" y="412" on="1"/>
        <pt x="216" y="305" on="1"/>
        <pt x="215" y="290" on="0"/>
        <pt x="211" y="279" on="1"/>
      </contour>
    </TTGlyph>
    <TTGlyph name="uni0035.sc" xMin="33" yMin="-8" xMax="518" yMax="560">
      <contour>
        <pt x="216" y="313" on="1"/>
        <pt x="233" y="333" on="0"/>
        <pt x="294" y="359" on="0"/>
        <pt x="349" y="359" on="1"/>
        <pt x="424" y="359" on="0"/>
        <pt x="518" y="268" on="0"/>
        <pt x="518" y="192" on="1"/>
        <pt x="518" y="101" on="0"/>
        <pt x="396" y="-8" on="0"/>
        <pt x="283" y="-8" on="1"/>
        <pt x="198" y="-8" on="0"/>
        <pt x="70" y="40" on="0"/>
        <pt x="33" y="100" on="1"/>
        <pt x="194" y="181" on="1"/>
        <pt x="205" y="159" on="0"/>
        <pt x="239" y="133" on="0"/>
        <pt x="276" y="133" on="1"/>
        <pt x="308" y="133" on="0"/>
        <pt x="343" y="166" on="0"/>
        <pt x="342" y="191" on="1"/>
        <pt x="342" y="219" on="0"/>
        <pt x="303" y="245" on="0"/>
        <pt x="272" y="245" on="1"/>
        <pt x="224" y="245" on="0"/>
        <pt x="200" y="215" on="1"/>
        <pt x="52" y="235" on="1"/>
        <pt x="89" y="560" on="1"/>
        <pt x="495" y="560" on="1"/>
        <pt x="495" y="423" on="1"/>
        <pt x="233" y="423" on="1"/>
        <pt x="224" y="351" on="1"/>
        <pt x="223" y="343" on="0"/>
        <pt x="218" y="322" on="0"/>
        <pt x="214" y="314" on="1"/>
      </contour>
    </TTGlyph>
    <TTGlyph name="uni0035.tf" xMin="29" yMin="-10" xMax="565" yMax="660">
      <component glyphName="uni0035" x="11" y="0" flags="0x4"/>
    </TTGlyph>
    <TTGlyph name="uni0035.tosf" xMin="36" yMin="-110" xMax="556" yMax="560">
      <component glyphName="uni0035.osf" x="19" y="0" flags="0x4"/>
    </TTGlyph>
    <TTGlyph name="uni0036" xMin="43" yMin="-10" xMax="588" yMax="670">
      <contour>
        <pt x="43" y="330" on="1"/>
        <pt x="43" y="509" on="0"/>
        <pt x="215" y="670" on="0"/>
        <pt x="344" y="670" on="1"/>
        <pt x="424" y="670" on="0"/>
        <pt x="555" y="604" on="0"/>
        <pt x="580" y="521" on="1"/>
        <pt x="416" y="444" on="1"/>
        <pt x="399" y="512" on="0"/>
        <pt x="331" y="512" on="1"/>
        <pt x="285" y="512" on="0"/>
        <pt x="223" y="430" on="0"/>
        <pt x="223" y="349" on="1"/>
        <pt x="223" y="334" on="1"/>
        <pt x="225" y="334" on="1"/>
        <pt x="261" y="408" on="0"/>
        <pt x="377" y="408" on="1"/>
        <pt x="467" y="408" on="0"/>
        <pt x="588" y="298" on="0"/>
        <pt x="588" y="206" on="1"/>
        <pt x="588" y="108" on="0"/>
        <pt x="451" y="-10" on="0"/>
        <pt x="324" y="-10" on="1"/>
        <pt x="190" y="-10" on="0"/>
        <pt x="43" y="157" on="0"/>
      </contour>
      <contour>
        <pt x="406" y="208" on="1"/>
        <pt x="406" y="279" on="0"/>
        <pt x="329" y="279" on="1"/>
        <pt x="253" y="279" on="0"/>
        <pt x="253" y="208" on="1"/>
        <pt x="253" y="137" on="0"/>
        <pt x="329" y="137" on="1"/>
        <pt x="406" y="137" on="0"/>
      </contour>
    </TTGlyph>
    <TTGlyph name="uni0036.dnom" xMin="24" yMin="-10" xMax="392" yMax="398">
      <component glyphName="uni2076" x="0" y="-337" flags="0x4"/>
    </TTGlyph>
    <TTGlyph name="uni0036.numr" xMin="24" yMin="262" xMax="392" yMax="670">
      <component glyphName="uni2076" x="0" y="-65" flags="0x4"/>
    </TTGlyph>
    <TTGlyph name="uni0036.osf" xMin="33" yMin="-10" xMax="572" yMax="670">
      <contour>
        <pt x="33" y="330" on="1"/>
        <pt x="33" y="503" on="0"/>
        <pt x="198" y="670" on="0"/>
        <pt x="328" y="670" on="1"/>
        <pt x="412" y="670" on="0"/>
        <pt x="542" y="600" on="0"/>
        <pt x="564" y="510" on="1"/>
        <pt x="401" y="449" on="1"/>
        <pt x="387" y="523" on="0"/>
        <pt x="326" y="523" on="1"/>
        <pt x="277" y="523" on="0"/>
        <pt x="213" y="443" on="0"/>
        <pt x="213" y="343" on="1"/>
        <pt x="213" y="333" on="1"/>
        <pt x="216" y="333" on="1"/>
        <pt x="233" y="370" on="0"/>
        <pt x="319" y="408" on="0"/>
        <pt x="366" y="408" on="1"/>
        <pt x="453" y="408" on="0"/>
        <pt x="572" y="302" on="0"/>
        <pt x="572" y="206" on="1"/>
        <pt x="572" y="103" on="0"/>
        <pt x="434" y="-10" on="0"/>
        <pt x="315" y="-10" on="1"/>
        <pt x="183" y="-10" on="0"/>
        <pt x="33" y="159" on="0"/>
      </contour>
      <contour>
        <pt x="394" y="204" on="1"/>
        <pt x="394" y="280" on="0"/>
        <pt x="318" y="280" on="1"/>
        <pt x="241" y="280" on="0"/>
        <pt x="241" y="204" on="1"/>
        <pt x="241" y="128" on="0"/>
        <pt x="318" y="128" on="1"/>
        <pt x="394" y="128" on="0"/>
      </contour>
    </TTGlyph>
    <TTGlyph name="uni0036.sc" xMin="34" yMin="-8" xMax="536" yMax="568">
      <contour>
        <pt x="534" y="183" on="1"/>
        <pt x="536" y="101" on="0"/>
        <pt x="418" y="-8" on="0"/>
        <pt x="298" y="-8" on="1"/>
        <pt x="173" y="-8" on="0"/>
        <pt x="34" y="138" on="0"/>
        <pt x="34" y="283" on="1"/>
        <pt x="34" y="424" on="0"/>
        <pt x="182" y="568" on="0"/>
        <pt x="304" y="568" on="1"/>
        <pt x="392" y="568" on="0"/>
        <pt x="497" y="509" on="0"/>
        <pt x="529" y="443" on="1"/>
        <pt x="383" y="376" on="1"/>
        <pt x="365" y="425" on="0"/>
        <pt x="307" y="425" on="1"/>
        <pt x="267" y="425" on="0"/>
        <pt x="210" y="364" on="0"/>
        <pt x="210" y="294" on="1"/>
        <pt x="210" y="284" on="1"/>
        <pt x="213" y="284" on="1"/>
        <pt x="254" y="345" on="0"/>
        <pt x="356" y="345" on="1"/>
        <pt x="424" y="345" on="0"/>
        <pt x="533" y="266" on="0"/>
      </contour>
      <contour>
        <pt x="240" y="176" on="1"/>
        <pt x="240" y="120" on="0"/>
        <pt x="300" y="120" on="1"/>
        <pt x="360" y="120" on="0"/>
        <pt x="360" y="176" on="1"/>
        <pt x="360" y="232" on="0"/>
        <pt x="300" y="232" on="1"/>
        <pt x="240" y="232" on="0"/>
      </contour>
    </TTGlyph>
    <TTGlyph name="uni0036.tf" xMin="43" yMin="-10" xMax="579" yMax="670">
      <contour>
        <pt x="43" y="330" on="1"/>
        <pt x="43" y="509" on="0"/>
        <pt x="209" y="670" on="0"/>
        <pt x="333" y="670" on="1"/>
        <pt x="413" y="670" on="0"/>
        <pt x="541" y="604" on="0"/>
        <pt x="572" y="521" on="1"/>
        <pt x="406" y="444" on="1"/>
        <pt x="392" y="512" on="0"/>
        <pt x="322" y="512" on="1"/>
        <pt x="279" y="512" on="0"/>
        <pt x="225" y="431" on="0"/>
        <pt x="225" y="351" on="1"/>
        <pt x="225" y="334" on="1"/>
        <pt x="227" y="334" on="1"/>
        <pt x="259" y="408" on="0"/>
        <pt x="380" y="408" on="1"/>
        <pt x="469" y="408" on="0"/>
        <pt x="579" y="298" on="0"/>
        <pt x="579" y="206" on="1"/>
        <pt x="579" y="108" on="0"/>
        <pt x="446" y="-10" on="0"/>
        <pt x="329" y="-10" on="1"/>
        <pt x="190" y="-10" on="0"/>
        <pt x="43" y="163" on="0"/>
      </contour>
      <contour>
        <pt x="397" y="208" on="1"/>
        <pt x="397" y="279" on="0"/>
        <pt x="325" y="279" on="1"/>
        <pt x="253" y="279" on="0"/>
        <pt x="253" y="208" on="1"/>
        <pt x="253" y="137" on="0"/>
        <pt x="325" y="137" on="1"/>
        <pt x="397" y="137" on="0"/>
      </contour>
    </TTGlyph>
    <TTGlyph name="uni0036.tosf" xMin="38" yMin="-10" xMax="577" yMax="670">
      <component glyphName="uni0036.osf" x="5" y="0" flags="0x4"/>
    </TTGlyph>
    <TTGlyph name="uni0037" xMin="42" yMin="0" xMax="607" yMax="660">
      <contour>
        <pt x="397" y="0" on="1"/>
        <pt x="196" y="0" on="1"/>
        <pt x="196" y="146" on="0"/>
        <pt x="295" y="391" on="0"/>
        <pt x="409" y="504" on="1"/>
        <pt x="42" y="504" on="1"/>
        <pt x="42" y="660" on="1"/>
        <pt x="607" y="660" on="1"/>
        <pt x="607" y="521" on="1"/>
        <pt x="483" y="405" on="0"/>
        <pt x="397" y="146" on="0"/>
      </contour>
    </TTGlyph>
    <TTGlyph name="uni0037.dnom" xMin="12" yMin="-4" xMax="361" yMax="393">
      <component glyphName="uni2077" x="0" y="-337" flags="0x4"/>
    </TTGlyph>
    <TTGlyph name="uni0037.numr" xMin="12" yMin="268" xMax="361" yMax="665">
      <component glyphName="uni2077" x="0" y="-65" flags="0x4"/>
    </TTGlyph>
    <TTGlyph name="uni0037.osf" xMin="21" yMin="-100" xMax="585" yMax="560">
      <contour>
        <pt x="375" y="-100" on="1"/>
        <pt x="174" y="-100" on="1"/>
        <pt x="174" y="43" on="0"/>
        <pt x="279" y="296" on="0"/>
        <pt x="394" y="409" on="1"/>
        <pt x="21" y="409" on="1"/>
        <pt x="21" y="560" on="1"/>
        <pt x="585" y="560" on="1"/>
        <pt x="585" y="421" on="1"/>
        <pt x="467" y="306" on="0"/>
        <pt x="375" y="40" on="0"/>
      </contour>
    </TTGlyph>
    <TTGlyph name="uni0037.sc" xMin="38" yMin="0" xMax="532" yMax="560">
      <contour>
        <pt x="364" y="0" on="1"/>
        <pt x="168" y="0" on="1"/>
        <pt x="169" y="107" on="0"/>
        <pt x="241" y="321" on="0"/>
        <pt x="331" y="410" on="1"/>
        <pt x="38" y="410" on="1"/>
        <pt x="38" y="560" on="1"/>
        <pt x="532" y="560" on="1"/>
        <pt x="532" y="421" on="1"/>
        <pt x="459" y="362" on="0"/>
        <pt x="387" y="215" on="0"/>
        <pt x="364" y="65" on="0"/>
      </contour>
    </TTGlyph>
    <TTGlyph name="uni0037.tf" xMin="32" yMin="0" xMax="571" yMax="660">
      <contour>
        <pt x="375" y="0" on="1"/>
        <pt x="172" y="0" on="1"/>
        <pt x="172" y="160" on="0"/>
        <pt x="278" y="398" on="0"/>
        <pt x="385" y="504" on="1"/>
        <pt x="32" y="504" on="1"/>
        <pt x="32" y="660" on="1"/>
        <pt x="571" y="660" on="1"/>
        <pt x="571" y="521" on="1"/>
        <pt x="495" y="440" on="0"/>
        <pt x="409" y="293" on="0"/>
        <pt x="375" y="121" on="0"/>
      </contour>
    </TTGlyph>
    <TTGlyph name="uni0037.tosf" xMin="36" yMin="-100" xMax="576" yMax="560">
      <contour>
        <pt x="366" y="-100" on="1"/>
        <pt x="166" y="-100" on="1"/>
        <pt x="166" y="45" on="0"/>
        <pt x="270" y="296" on="0"/>
        <pt x="384" y="409" on="1"/>
        <pt x="36" y="409" on="1"/>
        <pt x="36" y="560" on="1"/>
        <pt x="576" y="560" on="1"/>
        <pt x="576" y="421" on="1"/>
        <pt x="452" y="305" on="0"/>
        <pt x="366" y="46" on="0"/>
      </contour>
    </TTGlyph>
    <TTGlyph name="uni0038" xMin="37" yMin="-10" xMax="594" yMax="667">
      <contour>
        <pt x="55" y="478" on="1"/>
        <pt x="55" y="567" on="0"/>
        <pt x="194" y="667" on="0"/>
        <pt x="315" y="667" on="1"/>
        <pt x="437" y="667" on="0"/>
        <pt x="576" y="567" on="0"/>
        <pt x="576" y="478" on="1"/>
        <pt x="576" y="373" on="0"/>
        <pt x="467" y="334" on="1"/>
        <pt x="467" y="333" on="1"/>
        <pt x="594" y="294" on="0"/>
        <pt x="594" y="174" on="1"/>
        <pt x="594" y="89" on="0"/>
        <pt x="446" y="-10" on="0"/>
        <pt x="315" y="-10" on="1"/>
        <pt x="184" y="-10" on="0"/>
        <pt x="37" y="89" on="0"/>
        <pt x="37" y="174" on="1"/>
        <pt x="37" y="294" on="0"/>
        <pt x="164" y="333" on="1"/>
        <pt x="164" y="334" on="1"/>
        <pt x="55" y="373" on="0"/>
      </contour>
      <contour>
        <pt x="389" y="460" on="1"/>
        <pt x="389" y="525" on="0"/>
        <pt x="315" y="525" on="1"/>
        <pt x="242" y="525" on="0"/>
        <pt x="242" y="460" on="1"/>
        <pt x="242" y="394" on="0"/>
        <pt x="315" y="394" on="1"/>
        <pt x="389" y="394" on="0"/>
      </contour>
      <contour>
        <pt x="233" y="201" on="1"/>
        <pt x="233" y="133" on="0"/>
        <pt x="315" y="133" on="1"/>
        <pt x="397" y="133" on="0"/>
        <pt x="397" y="201" on="1"/>
        <pt x="397" y="269" on="0"/>
        <pt x="315" y="269" on="1"/>
        <pt x="233" y="269" on="0"/>
      </contour>
    </TTGlyph>
    <TTGlyph name="uni0038.dnom" xMin="29" yMin="-10" xMax="399" yMax="398">
      <component glyphName="uni2078" x="0" y="-337" flags="0x4"/>
    </TTGlyph>
    <TTGlyph name="uni0038.numr" xMin="29" yMin="262" xMax="399" yMax="670">
      <component glyphName="uni2078" x="0" y="-65" flags="0x4"/>
    </TTGlyph>
    <TTGlyph name="uni0038.osf" xMin="38" yMin="-10" xMax="593" yMax="667">
      <contour>
        <pt x="59" y="480" on="1"/>
        <pt x="59" y="568" on="0"/>
        <pt x="195" y="667" on="0"/>
        <pt x="315" y="667" on="1"/>
        <pt x="434" y="667" on="0"/>
        <pt x="572" y="568" on="0"/>
        <pt x="572" y="480" on="1"/>
        <pt x="572" y="378" on="0"/>
        <pt x="462" y="334" on="1"/>
        <pt x="462" y="333" on="1"/>
        <pt x="522" y="314" on="0"/>
        <pt x="593" y="234" on="0"/>
        <pt x="593" y="178" on="1"/>
        <pt x="593" y="88" on="0"/>
        <pt x="446" y="-10" on="0"/>
        <pt x="315" y="-10" on="1"/>
        <pt x="185" y="-10" on="0"/>
        <pt x="38" y="88" on="0"/>
        <pt x="38" y="178" on="1"/>
        <pt x="38" y="293" on="0"/>
        <pt x="168" y="333" on="1"/>
        <pt x="168" y="334" on="1"/>
        <pt x="59" y="378" on="0"/>
      </contour>
      <contour>
        <pt x="390" y="467" on="1"/>
        <pt x="390" y="533" on="0"/>
        <pt x="315" y="533" on="1"/>
        <pt x="240" y="533" on="0"/>
        <pt x="240" y="467" on="1"/>
        <pt x="240" y="401" on="0"/>
        <pt x="315" y="401" on="1"/>
        <pt x="390" y="401" on="0"/>
      </contour>
      <contour>
        <pt x="234" y="195" on="1"/>
        <pt x="234" y="125" on="0"/>
        <pt x="315" y="125" on="1"/>
        <pt x="397" y="125" on="0"/>
        <pt x="397" y="195" on="1"/>
        <pt x="397" y="265" on="0"/>
        <pt x="315" y="265" on="1"/>
        <pt x="234" y="265" on="0"/>
      </contour>
    </TTGlyph>
    <TTGlyph name="uni0038.sc" xMin="34" yMin="-8" xMax="545" yMax="568">
      <contour>
        <pt x="545" y="152" on="1"/>
        <pt x="545" y="79" on="0"/>
        <pt x="410" y="-8" on="0"/>
        <pt x="289" y="-8" on="1"/>
        <pt x="169" y="-8" on="0"/>
        <pt x="34" y="79" on="0"/>
        <pt x="34" y="152" on="1"/>
        <pt x="34" y="194" on="0"/>
        <pt x="83" y="262" on="0"/>
        <pt x="138" y="284" on="1"/>
        <pt x="138" y="286" on="1"/>
        <pt x="45" y="323" on="0"/>
        <pt x="45" y="401" on="1"/>
        <pt x="45" y="481" on="0"/>
        <pt x="177" y="568" on="0"/>
        <pt x="289" y="568" on="1"/>
        <pt x="402" y="568" on="0"/>
        <pt x="534" y="481" on="0"/>
        <pt x="534" y="401" on="1"/>
        <pt x="534" y="323" on="0"/>
        <pt x="440" y="286" on="1"/>
        <pt x="440" y="284" on="1"/>
        <pt x="496" y="262" on="0"/>
        <pt x="545" y="194" on="0"/>
      </contour>
      <contour>
        <pt x="228" y="387" on="1"/>
        <pt x="228" y="337" on="0"/>
        <pt x="289" y="337" on="1"/>
        <pt x="350" y="337" on="0"/>
        <pt x="350" y="387" on="1"/>
        <pt x="350" y="437" on="0"/>
        <pt x="289" y="437" on="1"/>
        <pt x="228" y="437" on="0"/>
      </contour>
      <contour>
        <pt x="224" y="174" on="1"/>
        <pt x="224" y="122" on="0"/>
        <pt x="289" y="122" on="1"/>
        <pt x="355" y="122" on="0"/>
        <pt x="355" y="174" on="1"/>
        <pt x="355" y="226" on="0"/>
        <pt x="289" y="226" on="1"/>
        <pt x="224" y="226" on="0"/>
      </contour>
    </TTGlyph>
    <TTGlyph name="uni0038.tf" xMin="38" yMin="-10" xMax="566" yMax="667">
      <contour>
        <pt x="53" y="478" on="1"/>
        <pt x="53" y="567" on="0"/>
        <pt x="186" y="667" on="0"/>
        <pt x="302" y="667" on="1"/>
        <pt x="418" y="667" on="0"/>
        <pt x="551" y="567" on="0"/>
        <pt x="551" y="478" on="1"/>
        <pt x="551" y="427" on="0"/>
        <pt x="495" y="354" on="0"/>
        <pt x="447" y="334" on="1"/>
        <pt x="447" y="333" on="1"/>
        <pt x="501" y="314" on="0"/>
        <pt x="566" y="240" on="0"/>
        <pt x="566" y="182" on="1"/>
        <pt x="566" y="91" on="0"/>
        <pt x="426" y="-10" on="0"/>
        <pt x="302" y="-10" on="1"/>
        <pt x="178" y="-10" on="0"/>
        <pt x="38" y="91" on="0"/>
        <pt x="38" y="182" on="1"/>
        <pt x="38" y="238" on="0"/>
        <pt x="102" y="314" on="0"/>
        <pt x="157" y="333" on="1"/>
        <pt x="157" y="334" on="1"/>
        <pt x="110" y="353" on="0"/>
        <pt x="53" y="427" on="0"/>
      </contour>
      <contour>
        <pt x="373" y="461" on="1"/>
        <pt x="373" y="526" on="0"/>
        <pt x="302" y="526" on="1"/>
        <pt x="231" y="526" on="0"/>
        <pt x="231" y="461" on="1"/>
        <pt x="231" y="396" on="0"/>
        <pt x="302" y="396" on="1"/>
        <pt x="373" y="396" on="0"/>
      </contour>
      <contour>
        <pt x="226" y="199" on="1"/>
        <pt x="226" y="131" on="0"/>
        <pt x="303" y="131" on="1"/>
        <pt x="380" y="131" on="0"/>
        <pt x="380" y="199" on="1"/>
        <pt x="380" y="267" on="0"/>
        <pt x="303" y="267" on="1"/>
        <pt x="226" y="267" on="0"/>
      </contour>
    </TTGlyph>
    <TTGlyph name="uni0038.tosf" xMin="24" yMin="-10" xMax="579" yMax="667">
      <component glyphName="uni0038.osf" x="-14" y="0" flags="0x4"/>
    </TTGlyph>
    <TTGlyph name="uni0039" xMin="30" yMin="-10" xMax="578" yMax="670">
      <contour>
        <pt x="368" y="444" on="1"/>
        <pt x="368" y="515" on="0"/>
        <pt x="291" y="515" on="1"/>
        <pt x="215" y="515" on="0"/>
        <pt x="215" y="444" on="1"/>
        <pt x="215" y="373" on="0"/>
        <pt x="291" y="373" on="1"/>
        <pt x="368" y="373" on="0"/>
      </contour>
      <contour>
        <pt x="30" y="443" on="1"/>
        <pt x="30" y="550" on="0"/>
        <pt x="170" y="670" on="0"/>
        <pt x="298" y="670" on="1"/>
        <pt x="432" y="670" on="0"/>
        <pt x="578" y="501" on="0"/>
        <pt x="578" y="325" on="1"/>
        <pt x="578" y="144" on="0"/>
        <pt x="421" y="-10" on="0"/>
        <pt x="289" y="-10" on="1"/>
        <pt x="199" y="-10" on="0"/>
        <pt x="73" y="56" on="0"/>
        <pt x="41" y="132" on="1"/>
        <pt x="222" y="200" on="1"/>
        <pt x="235" y="140" on="0"/>
        <pt x="293" y="140" on="1"/>
        <pt x="394" y="140" on="0"/>
        <pt x="394" y="289" on="1"/>
        <pt x="394" y="308" on="1"/>
        <pt x="390" y="308" on="1"/>
        <pt x="378" y="274" on="0"/>
        <pt x="296" y="234" on="0"/>
        <pt x="242" y="234" on="1"/>
        <pt x="158" y="234" on="0"/>
        <pt x="30" y="347" on="0"/>
      </contour>
    </TTGlyph>
    <TTGlyph name="uni0039.dnom" xMin="19" yMin="-10" xMax="390" yMax="398">
      <component glyphName="uni2079" x="0" y="-337" flags="0x4"/>
    </TTGlyph>
    <TTGlyph name="uni0039.numr" xMin="19" yMin="262" xMax="390" yMax="670">
      <component glyphName="uni2079" x="0" y="-65" flags="0x4"/>
    </TTGlyph>
    <TTGlyph name="uni0039.osf" xMin="40" yMin="-110" xMax="580" yMax="570">
      <contour>
        <pt x="373" y="349" on="1"/>
        <pt x="373" y="426" on="0"/>
        <pt x="296" y="426" on="1"/>
        <pt x="219" y="426" on="0"/>
        <pt x="219" y="349" on="1"/>
        <pt x="219" y="273" on="0"/>
        <pt x="296" y="273" on="1"/>
        <pt x="373" y="273" on="0"/>
      </contour>
      <contour>
        <pt x="40" y="350" on="1"/>
        <pt x="40" y="452" on="0"/>
        <pt x="181" y="570" on="0"/>
        <pt x="300" y="570" on="1"/>
        <pt x="428" y="570" on="0"/>
        <pt x="580" y="401" on="0"/>
        <pt x="580" y="225" on="1"/>
        <pt x="580" y="65" on="0"/>
        <pt x="429" y="-110" on="0"/>
        <pt x="297" y="-110" on="1"/>
        <pt x="212" y="-110" on="0"/>
        <pt x="80" y="-49" on="0"/>
        <pt x="46" y="47" on="1"/>
        <pt x="218" y="107" on="1"/>
        <pt x="223" y="68" on="0"/>
        <pt x="260" y="28" on="0"/>
        <pt x="303" y="28" on="1"/>
        <pt x="403" y="28" on="0"/>
        <pt x="403" y="189" on="1"/>
        <pt x="403" y="215" on="1"/>
        <pt x="400" y="215" on="1"/>
        <pt x="388" y="183" on="0"/>
        <pt x="322" y="139" on="0"/>
        <pt x="254" y="139" on="1"/>
        <pt x="161" y="139" on="0"/>
        <pt x="40" y="255" on="0"/>
      </contour>
    </TTGlyph>
    <TTGlyph name="uni0039.sc" xMin="30" yMin="-8" xMax="537" yMax="568">
      <contour>
        <pt x="212" y="376" on="1"/>
        <pt x="212" y="320" on="0"/>
        <pt x="272" y="320" on="1"/>
        <pt x="332" y="320" on="0"/>
        <pt x="332" y="375" on="1"/>
        <pt x="332" y="431" on="0"/>
        <pt x="272" y="431" on="1"/>
        <pt x="212" y="431" on="0"/>
      </contour>
      <contour>
        <pt x="537" y="277" on="1"/>
        <pt x="537" y="-8" on="0"/>
        <pt x="271" y="-8" on="1"/>
        <pt x="183" y="-8" on="0"/>
        <pt x="70" y="47" on="0"/>
        <pt x="35" y="114" on="1"/>
        <pt x="190" y="188" on="1"/>
        <pt x="196" y="129" on="0"/>
        <pt x="266" y="129" on="1"/>
        <pt x="309" y="129" on="0"/>
        <pt x="361" y="188" on="0"/>
        <pt x="361" y="266" on="1"/>
        <pt x="361" y="276" on="1"/>
        <pt x="359" y="276" on="1"/>
        <pt x="332" y="208" on="0"/>
        <pt x="219" y="208" on="1"/>
        <pt x="150" y="208" on="0"/>
        <pt x="33" y="292" on="0"/>
        <pt x="31" y="377" on="1"/>
        <pt x="30" y="460" on="0"/>
        <pt x="153" y="568" on="0"/>
        <pt x="274" y="568" on="1"/>
        <pt x="399" y="568" on="0"/>
        <pt x="537" y="422" on="0"/>
      </contour>
    </TTGlyph>
    <TTGlyph name="uni0039.tf" xMin="30" yMin="-10" xMax="567" yMax="670">
      <contour>
        <pt x="359" y="444" on="1"/>
        <pt x="359" y="515" on="0"/>
        <pt x="287" y="515" on="1"/>
        <pt x="214" y="515" on="0"/>
        <pt x="214" y="444" on="1"/>
        <pt x="214" y="373" on="0"/>
        <pt x="287" y="373" on="1"/>
        <pt x="359" y="373" on="0"/>
      </contour>
      <contour>
        <pt x="30" y="443" on="1"/>
        <pt x="30" y="547" on="0"/>
        <pt x="167" y="670" on="0"/>
        <pt x="291" y="670" on="1"/>
        <pt x="421" y="670" on="0"/>
        <pt x="567" y="501" on="0"/>
        <pt x="567" y="325" on="1"/>
        <pt x="567" y="144" on="0"/>
        <pt x="421" y="-10" on="0"/>
        <pt x="286" y="-10" on="1"/>
        <pt x="96" y="-10" on="0"/>
        <pt x="37" y="132" on="1"/>
        <pt x="221" y="200" on="1"/>
        <pt x="234" y="140" on="0"/>
        <pt x="295" y="140" on="1"/>
        <pt x="387" y="140" on="0"/>
        <pt x="387" y="289" on="1"/>
        <pt x="387" y="308" on="1"/>
        <pt x="384" y="308" on="1"/>
        <pt x="355" y="237" on="0"/>
        <pt x="242" y="234" on="1"/>
        <pt x="151" y="231" on="0"/>
        <pt x="30" y="341" on="0"/>
      </contour>
    </TTGlyph>
    <TTGlyph name="uni0039.tosf" xMin="34" yMin="-110" xMax="574" yMax="570">
      <component glyphName="uni0039.osf" x="-6" y="0" flags="0x4"/>
    </TTGlyph>
    <TTGlyph name="uni003A" xMin="40" yMin="-8" xMax="264" yMax="510">
      <component glyphName="uni002E" x="3" y="320" flags="0x4"/>
      <component glyphName="uni002E" x="3" y="0" flags="0x4"/>
    </TTGlyph>
    <TTGlyph name="uni003A.tf" xMin="39" yMin="-8" xMax="263" yMax="510">
      <component glyphName="uni002E" x="2" y="320" flags="0x4"/>
      <component glyphName="uni002E" x="2" y="0" flags="0x4"/>
    </TTGlyph>
    <TTGlyph name="uni003B" xMin="32" yMin="-162" xMax="268" yMax="510">
      <component glyphName="uni002C" x="3" y="0" flags="0x4"/>
      <component glyphName="uni002E" x="301" y="502" scale="-1.0" flags="0x4"/>
    </TTGlyph>
    <TTGlyph name="uni003B.tf" xMin="33" yMin="-162" xMax="269" yMax="510">
      <component glyphName="uni002C" x="4" y="0" flags="0x4"/>
      <component glyphName="uni002E" x="302" y="502" scale="-1.0" flags="0x4"/>
    </TTGlyph>
    <TTGlyph name="uni003C" xMin="60" yMin="-3" xMax="555" yMax="594">
      <contour>
        <pt x="555" y="-3" on="1"/>
        <pt x="60" y="212" on="1"/>
        <pt x="60" y="379" on="1"/>
        <pt x="555" y="594" on="1"/>
        <pt x="555" y="405" on="1"/>
        <pt x="208" y="296" on="1"/>
        <pt x="555" y="186" on="1"/>
      </contour>
    </TTGlyph>
    <TTGlyph name="uni003D" xMin="65" yMin="144" xMax="539" yMax="498">
      <contour>
        <pt x="65" y="498" on="1"/>
        <pt x="539" y="498" on="1"/>
        <pt x="539" y="366" on="1"/>
        <pt x="65" y="366" on="1"/>
      </contour>
      <contour>
        <pt x="65" y="276" on="1"/>
        <pt x="539" y="276" on="1"/>
        <pt x="539" y="144" on="1"/>
        <pt x="65" y="144" on="1"/>
      </contour>
    </TTGlyph>
    <TTGlyph name="uni003E" xMin="49" yMin="-3" xMax="544" yMax="594">
      <component glyphName="uni003C" x="604" y="0" scalex="-1.0" scaley="1.0" flags="0x4"/>
    </TTGlyph>
    <TTGlyph name="uni003F" xMin="30" yMin="-7" xMax="591" yMax="670">
      <contour>
        <pt x="30" y="492" on="1"/>
        <pt x="38" y="566" on="0"/>
        <pt x="170" y="670" on="0"/>
        <pt x="320" y="670" on="1"/>
        <pt x="439" y="670" on="0"/>
        <pt x="591" y="585" on="0"/>
        <pt x="591" y="485" on="1"/>
        <pt x="591" y="388" on="0"/>
        <pt x="482" y="303" on="0"/>
        <pt x="400" y="295" on="1"/>
        <pt x="386" y="216" on="1"/>
        <pt x="219" y="216" on="1"/>
        <pt x="206" y="369" on="1"/>
        <pt x="300" y="374" on="0"/>
        <pt x="372" y="419" on="0"/>
        <pt x="372" y="453" on="1"/>
        <pt x="372" y="510" on="0"/>
        <pt x="307" y="510" on="1"/>
        <pt x="231" y="510" on="0"/>
        <pt x="227" y="422" on="1"/>
      </contour>
      <contour>
        <pt x="196" y="84" on="1"/>
        <pt x="196" y="175" on="0"/>
        <pt x="304" y="175" on="1"/>
        <pt x="411" y="175" on="0"/>
        <pt x="411" y="84" on="1"/>
        <pt x="411" y="-7" on="0"/>
        <pt x="304" y="-7" on="1"/>
        <pt x="196" y="-7" on="0"/>
      </contour>
    </TTGlyph>
    <TTGlyph name="uni003F.sc" xMin="7" yMin="-7" xMax="533" yMax="568">
      <contour>
        <pt x="7" y="417" on="1"/>
        <pt x="35" y="568" on="0"/>
        <pt x="277" y="568" on="1"/>
        <pt x="390" y="568" on="0"/>
        <pt x="533" y="495" on="0"/>
        <pt x="533" y="412" on="1"/>
        <pt x="533" y="340" on="0"/>
        <pt x="422" y="276" on="0"/>
        <pt x="363" y="273" on="1"/>
        <pt x="354" y="203" on="1"/>
        <pt x="176" y="203" on="1"/>
        <pt x="172" y="316" on="1"/>
        <pt x="279" y="326" on="0"/>
        <pt x="340" y="357" on="0"/>
        <pt x="340" y="383" on="1"/>
        <pt x="340" y="426" on="0"/>
        <pt x="275" y="426" on="1"/>
        <pt x="201" y="426" on="0"/>
        <pt x="193" y="362" on="1"/>
      </contour>
      <contour>
        <pt x="163" y="79" on="1"/>
        <pt x="163" y="164" on="0"/>
        <pt x="264" y="164" on="1"/>
        <pt x="366" y="164" on="0"/>
        <pt x="366" y="79" on="1"/>
        <pt x="366" y="-7" on="0"/>
        <pt x="264" y="-7" on="1"/>
        <pt x="163" y="-7" on="0"/>
      </contour>
    </TTGlyph>
    <TTGlyph name="uni0040" xMin="43" yMin="-180" xMax="887" yMax="660">
      <contour>
        <pt x="43" y="223" on="1"/>
        <pt x="43" y="356" on="0"/>
        <pt x="159" y="552" on="0"/>
        <pt x="360" y="660" on="0"/>
        <pt x="488" y="660" on="1"/>
        <pt x="666" y="660" on="0"/>
        <pt x="887" y="456" on="0"/>
        <pt x="887" y="260" on="1"/>
        <pt x="887" y="119" on="0"/>
        <pt x="749" y="2" on="0"/>
        <pt x="669" y="2" on="1"/>
        <pt x="563" y="2" on="0"/>
        <pt x="521" y="85" on="1"/>
        <pt x="469" y="3" on="0"/>
        <pt x="376" y="3" on="1"/>
        <pt x="300" y="3" on="0"/>
        <pt x="217" y="108" on="0"/>
        <pt x="217" y="187" on="1"/>
        <pt x="217" y="330" on="0"/>
        <pt x="352" y="468" on="0"/>
        <pt x="448" y="468" on="1"/>
        <pt x="498" y="468" on="0"/>
        <pt x="542" y="417" on="0"/>
        <pt x="546" y="394" on="1"/>
        <pt x="567" y="457" on="1"/>
        <pt x="714" y="457" on="1"/>
        <pt x="668" y="180" on="1"/>
        <pt x="661" y="137" on="0"/>
        <pt x="681" y="98" on="0"/>
        <pt x="715" y="98" on="1"/>
        <pt x="752" y="98" on="0"/>
        <pt x="804" y="179" on="0"/>
        <pt x="804" y="260" on="1"/>
        <pt x="804" y="423" on="0"/>
        <pt x="630" y="579" on="0"/>
        <pt x="488" y="579" on="1"/>
        <pt x="332" y="579" on="0"/>
        <pt x="135" y="392" on="0"/>
        <pt x="135" y="223" on="1"/>
        <pt x="135" y="116" on="0"/>
        <pt x="224" y="-28" on="0"/>
        <pt x="368" y="-100" on="0"/>
        <pt x="448" y="-100" on="1"/>
        <pt x="529" y="-100" on="0"/>
        <pt x="614" y="-71" on="0"/>
        <pt x="645" y="-47" on="1"/>
        <pt x="690" y="-111" on="1"/>
        <pt x="647" y="-141" on="0"/>
        <pt x="542" y="-180" on="0"/>
        <pt x="444" y="-180" on="1"/>
        <pt x="274" y="-180" on="0"/>
        <pt x="43" y="30" on="0"/>
      </contour>
      <contour>
        <pt x="509" y="281" on="1"/>
        <pt x="517" y="340" on="0"/>
        <pt x="471" y="340" on="1"/>
        <pt x="440" y="340" on="0"/>
        <pt x="389" y="272" on="0"/>
        <pt x="389" y="213" on="1"/>
        <pt x="389" y="139" on="0"/>
        <pt x="439" y="139" on="1"/>
        <pt x="459" y="139" on="0"/>
        <pt x="492" y="164" on="0"/>
        <pt x="496" y="189" on="1"/>
      </contour>
    </TTGlyph>
    <TTGlyph name="uni0040.case" xMin="43" yMin="-92" xMax="887" yMax="748">
      <component glyphName="uni0040" x="0" y="88" flags="0x4"/>
    </TTGlyph>
    <TTGlyph name="uni0041" xMin="-3" yMin="0" xMax="687" yMax="660">
      <contour>
        <pt x="312" y="401" on="1"/>
        <pt x="275" y="269" on="1"/>
        <pt x="404" y="269" on="1"/>
        <pt x="369" y="400" on="1"/>
        <pt x="341" y="508" on="1"/>
        <pt x="339" y="508" on="1"/>
      </contour>
      <contour>
        <pt x="477" y="0" on="1"/>
        <pt x="440" y="137" on="1"/>
        <pt x="239" y="137" on="1"/>
        <pt x="201" y="0" on="1"/>
        <pt x="-3" y="0" on="1"/>
        <pt x="219" y="660" on="1"/>
        <pt x="464" y="660" on="1"/>
        <pt x="687" y="0" on="1"/>
      </contour>
    </TTGlyph>
    <TTGlyph name="uni0041.swsh" xMin="-1" yMin="-110" xMax="920" yMax="660">
      <contour>
        <pt x="545" y="401" on="1"/>
        <pt x="504" y="269" on="1"/>
        <pt x="637" y="269" on="1"/>
        <pt x="602" y="400" on="1"/>
        <pt x="574" y="508" on="1"/>
        <pt x="571" y="508" on="1"/>
      </contour>
      <contour>
        <pt x="448" y="92" on="1"/>
        <pt x="420" y="-6" on="0"/>
        <pt x="295" y="-110" on="0"/>
        <pt x="175" y="-110" on="1"/>
        <pt x="112" y="-110" on="0"/>
        <pt x="19" y="-74" on="0"/>
        <pt x="-1" y="-34" on="1"/>
        <pt x="55" y="99" on="1"/>
        <pt x="76" y="64" on="0"/>
        <pt x="126" y="38" on="0"/>
        <pt x="162" y="38" on="1"/>
        <pt x="243" y="38" on="0"/>
        <pt x="284" y="165" on="1"/>
        <pt x="452" y="660" on="1"/>
        <pt x="697" y="660" on="1"/>
        <pt x="920" y="0" on="1"/>
        <pt x="710" y="0" on="1"/>
        <pt x="673" y="137" on="1"/>
        <pt x="462" y="137" on="1"/>
      </contour>
      <contour>
        <pt x="298" y="363" on="1"/>
        <pt x="241" y="229" on="1"/>
        <pt x="150" y="233" on="0"/>
        <pt x="35" y="347" on="0"/>
        <pt x="35" y="444" on="1"/>
        <pt x="35" y="547" on="0"/>
        <pt x="164" y="660" on="0"/>
        <pt x="291" y="660" on="1"/>
        <pt x="534" y="660" on="1"/>
        <pt x="534" y="513" on="1"/>
        <pt x="294" y="513" on="1"/>
        <pt x="253" y="513" on="0"/>
        <pt x="215" y="472" on="0"/>
        <pt x="215" y="441" on="1"/>
        <pt x="215" y="410" on="0"/>
        <pt x="258" y="366" on="0"/>
      </contour>
    </TTGlyph>
    <TTGlyph name="uni0042" xMin="61" yMin="0" xMax="672" yMax="660">
      <contour>
        <pt x="433" y="0" on="1"/>
        <pt x="61" y="0" on="1"/>
        <pt x="61" y="660" on="1"/>
        <pt x="412" y="660" on="1"/>
        <pt x="655" y="659" on="0"/>
        <pt x="655" y="483" on="1"/>
        <pt x="655" y="425" on="0"/>
        <pt x="585" y="344" on="0"/>
        <pt x="513" y="333" on="1"/>
        <pt x="513" y="332" on="1"/>
        <pt x="594" y="322" on="0"/>
        <pt x="672" y="238" on="0"/>
        <pt x="672" y="176" on="1"/>
        <pt x="672" y="0" on="0"/>
      </contour>
      <contour>
        <pt x="257" y="516" on="1"/>
        <pt x="257" y="398" on="1"/>
        <pt x="369" y="398" on="1"/>
        <pt x="446" y="398" on="0"/>
        <pt x="446" y="457" on="1"/>
        <pt x="446" y="516" on="0"/>
        <pt x="369" y="516" on="1"/>
      </contour>
      <contour>
        <pt x="257" y="257" on="1"/>
        <pt x="257" y="138" on="1"/>
        <pt x="386" y="138" on="1"/>
        <pt x="463" y="138" on="0"/>
        <pt x="463" y="198" on="1"/>
        <pt x="463" y="257" on="0"/>
        <pt x="386" y="257" on="1"/>
      </contour>
    </TTGlyph>
    <TTGlyph name="uni0043" xMin="36" yMin="-10" xMax="664" yMax="670">
      <contour>
        <pt x="482" y="245" on="1"/>
        <pt x="664" y="196" on="1"/>
        <pt x="636" y="86" on="0"/>
        <pt x="477" y="-10" on="0"/>
        <pt x="367" y="-10" on="1"/>
        <pt x="213" y="-10" on="0"/>
        <pt x="36" y="169" on="0"/>
        <pt x="36" y="330" on="1"/>
        <pt x="36" y="491" on="0"/>
        <pt x="213" y="670" on="0"/>
        <pt x="366" y="670" on="1"/>
        <pt x="473" y="670" on="0"/>
        <pt x="635" y="579" on="0"/>
        <pt x="658" y="479" on="1"/>
        <pt x="481" y="408" on="1"/>
        <pt x="470" y="471" on="0"/>
        <pt x="418" y="514" on="0"/>
        <pt x="372" y="514" on="1"/>
        <pt x="246" y="514" on="0"/>
        <pt x="246" y="330" on="1"/>
        <pt x="246" y="146" on="0"/>
        <pt x="370" y="146" on="1"/>
        <pt x="465" y="146" on="0"/>
      </contour>
    </TTGlyph>
    <TTGlyph name="uni0044" xMin="61" yMin="0" xMax="681" yMax="660">
      <contour>
        <pt x="339" y="511" on="1"/>
        <pt x="265" y="511" on="1"/>
        <pt x="265" y="149" on="1"/>
        <pt x="339" y="149" on="1"/>
        <pt x="413" y="149" on="0"/>
        <pt x="471" y="239" on="0"/>
        <pt x="471" y="330" on="1"/>
        <pt x="471" y="422" on="0"/>
        <pt x="413" y="511" on="0"/>
      </contour>
      <contour>
        <pt x="61" y="0" on="1"/>
        <pt x="61" y="660" on="1"/>
        <pt x="364" y="660" on="1"/>
        <pt x="519" y="660" on="0"/>
        <pt x="681" y="488" on="0"/>
        <pt x="681" y="330" on="1"/>
        <pt x="681" y="173" on="0"/>
        <pt x="519" y="0" on="0"/>
        <pt x="364" y="0" on="1"/>
      </contour>
    </TTGlyph>
    <TTGlyph name="uni0045" xMin="61" yMin="0" xMax="606" yMax="660">
      <contour>
        <pt x="61" y="0" on="1"/>
        <pt x="61" y="660" on="1"/>
        <pt x="593" y="660" on="1"/>
        <pt x="593" y="507" on="1"/>
        <pt x="265" y="507" on="1"/>
        <pt x="265" y="400" on="1"/>
        <pt x="527" y="400" on="1"/>
        <pt x="527" y="258" on="1"/>
        <pt x="265" y="258" on="1"/>
        <pt x="265" y="153" on="1"/>
        <pt x="606" y="153" on="1"/>
        <pt x="606" y="0" on="1"/>
      </contour>
    </TTGlyph>
    <TTGlyph name="uni0045.swsh" xMin="10" yMin="0" xMax="884" yMax="660">
      <component glyphName="__swash_topleft" x="-8" y="0" flags="0x4"/>
      <component glyphName="uni0045" x="278" y="0" flags="0x4"/>
    </TTGlyph>
    <TTGlyph name="uni0045.swsh.001" xMin="61" yMin="0" xMax="851" yMax="660">
      <contour>
        <pt x="61" y="0" on="1"/>
        <pt x="61" y="660" on="1"/>
        <pt x="632" y="660" on="1"/>
        <pt x="632" y="507" on="1"/>
        <pt x="265" y="507" on="1"/>
        <pt x="265" y="399" on="1"/>
        <pt x="464" y="399" on="1"/>
        <pt x="464" y="256" on="1"/>
        <pt x="265" y="256" on="1"/>
        <pt x="265" y="153" on="1"/>
        <pt x="600" y="153" on="1"/>
        <pt x="678" y="153" on="0"/>
        <pt x="678" y="208" on="1"/>
        <pt x="678" y="261" on="0"/>
        <pt x="603" y="269" on="1"/>
        <pt x="668" y="390" on="1"/>
        <pt x="763" y="376" on="0"/>
        <pt x="851" y="275" on="0"/>
        <pt x="851" y="201" on="1"/>
        <pt x="851" y="92" on="0"/>
        <pt x="729" y="0" on="0"/>
        <pt x="627" y="0" on="1"/>
      </contour>
    </TTGlyph>
    <TTGlyph name="uni0046" xMin="61" yMin="0" xMax="592" yMax="660">
      <contour>
        <pt x="527" y="239" on="1"/>
        <pt x="265" y="239" on="1"/>
        <pt x="265" y="0" on="1"/>
        <pt x="61" y="0" on="1"/>
        <pt x="61" y="660" on="1"/>
        <pt x="592" y="660" on="1"/>
        <pt x="592" y="507" on="1"/>
        <pt x="265" y="507" on="1"/>
        <pt x="265" y="392" on="1"/>
        <pt x="527" y="392" on="1"/>
      </contour>
    </TTGlyph>
    <TTGlyph name="uni0046.swsh" xMin="10" yMin="0" xMax="850" yMax="660">
      <component glyphName="__swash_topleft" x="-8" y="0" flags="0x4"/>
      <component glyphName="uni0046" x="258" y="0" flags="0x4"/>
    </TTGlyph>
    <TTGlyph name="uni0047" xMin="36" yMin="-10" xMax="672" yMax="670">
      <contour>
        <pt x="535" y="0" on="1"/>
        <pt x="527" y="78" on="1"/>
        <pt x="474" y="-10" on="0"/>
        <pt x="343" y="-10" on="1"/>
        <pt x="213" y="-10" on="0"/>
        <pt x="36" y="162" on="0"/>
        <pt x="36" y="328" on="1"/>
        <pt x="36" y="489" on="0"/>
        <pt x="215" y="670" on="0"/>
        <pt x="372" y="670" on="1"/>
        <pt x="490" y="670" on="0"/>
        <pt x="632" y="588" on="0"/>
        <pt x="672" y="495" on="1"/>
        <pt x="482" y="424" on="1"/>
        <pt x="463" y="514" on="0"/>
        <pt x="378" y="514" on="1"/>
        <pt x="246" y="514" on="0"/>
        <pt x="246" y="330" on="1"/>
        <pt x="246" y="230" on="0"/>
        <pt x="315" y="141" on="0"/>
        <pt x="385" y="141" on="1"/>
        <pt x="435" y="141" on="0"/>
        <pt x="499" y="185" on="0"/>
        <pt x="499" y="229" on="1"/>
        <pt x="499" y="234" on="1"/>
        <pt x="369" y="234" on="1"/>
        <pt x="369" y="365" on="1"/>
        <pt x="671" y="365" on="1"/>
        <pt x="671" y="0" on="1"/>
      </contour>
    </TTGlyph>
    <TTGlyph name="uni0047.ss04" xMin="36" yMin="-10" xMax="682" yMax="670">
      <contour>
        <pt x="682" y="279" on="1"/>
        <pt x="682" y="125" on="0"/>
        <pt x="507" y="-10" on="0"/>
        <pt x="369" y="-10" on="1"/>
        <pt x="221" y="-10" on="0"/>
        <pt x="36" y="162" on="0"/>
        <pt x="36" y="328" on="1"/>
        <pt x="36" y="489" on="0"/>
        <pt x="215" y="670" on="0"/>
        <pt x="372" y="670" on="1"/>
        <pt x="490" y="670" on="0"/>
        <pt x="632" y="588" on="0"/>
        <pt x="672" y="495" on="1"/>
        <pt x="482" y="424" on="1"/>
        <pt x="463" y="514" on="0"/>
        <pt x="374" y="514" on="1"/>
        <pt x="315" y="514" on="0"/>
        <pt x="246" y="424" on="0"/>
        <pt x="246" y="330" on="1"/>
        <pt x="246" y="230" on="0"/>
        <pt x="315" y="146" on="0"/>
        <pt x="390" y="146" on="1"/>
        <pt x="449" y="146" on="0"/>
        <pt x="509" y="201" on="0"/>
        <pt x="509" y="236" on="1"/>
        <pt x="509" y="243" on="1"/>
        <pt x="369" y="243" on="1"/>
        <pt x="369" y="366" on="1"/>
        <pt x="682" y="366" on="1"/>
      </contour>
    </TTGlyph>
    <TTGlyph name="uni0048" xMin="61" yMin="0" xMax="684" yMax="660">
      <contour>
        <pt x="479" y="0" on="1"/>
        <pt x="479" y="256" on="1"/>
        <pt x="265" y="256" on="1"/>
        <pt x="265" y="0" on="1"/>
        <pt x="61" y="0" on="1"/>
        <pt x="61" y="660" on="1"/>
        <pt x="265" y="660" on="1"/>
        <pt x="265" y="409" on="1"/>
        <pt x="479" y="409" on="1"/>
        <pt x="479" y="660" on="1"/>
        <pt x="684" y="660" on="1"/>
        <pt x="684" y="0" on="1"/>
      </contour>
    </TTGlyph>
    <TTGlyph name="uni0049" xMin="61" yMin="0" xMax="265" yMax="660">
      <contour>
        <pt x="61" y="660" on="1"/>
        <pt x="265" y="660" on="1"/>
        <pt x="265" y="0" on="1"/>
        <pt x="61" y="0" on="1"/>
      </contour>
    </TTGlyph>
    <TTGlyph name="uni004A" xMin="10" yMin="-10" xMax="593" yMax="660">
      <contour>
        <pt x="388" y="660" on="1"/>
        <pt x="593" y="660" on="1"/>
        <pt x="593" y="263" on="1"/>
        <pt x="593" y="133" on="0"/>
        <pt x="438" y="-10" on="0"/>
        <pt x="295" y="-10" on="1"/>
        <pt x="135" y="-10" on="0"/>
        <pt x="10" y="153" on="0"/>
        <pt x="32" y="277" on="1"/>
        <pt x="236" y="311" on="1"/>
        <pt x="223" y="219" on="0"/>
        <pt x="260" y="146" on="0"/>
        <pt x="307" y="146" on="1"/>
        <pt x="388" y="146" on="0"/>
        <pt x="388" y="281" on="1"/>
      </contour>
    </TTGlyph>
    <TTGlyph name="uni004B" xMin="61" yMin="0" xMax="704" yMax="660">
      <contour>
        <pt x="473" y="0" on="1"/>
        <pt x="332" y="265" on="1"/>
        <pt x="265" y="178" on="1"/>
        <pt x="265" y="0" on="1"/>
        <pt x="61" y="0" on="1"/>
        <pt x="61" y="660" on="1"/>
        <pt x="265" y="660" on="1"/>
        <pt x="265" y="390" on="1"/>
        <pt x="467" y="660" on="1"/>
        <pt x="688" y="660" on="1"/>
        <pt x="476" y="395" on="1"/>
        <pt x="704" y="0" on="1"/>
      </contour>
    </TTGlyph>
    <TTGlyph name="uni004C" xMin="61" yMin="0" xMax="579" yMax="660">
      <contour>
        <pt x="61" y="0" on="1"/>
        <pt x="61" y="660" on="1"/>
        <pt x="265" y="660" on="1"/>
        <pt x="265" y="153" on="1"/>
        <pt x="579" y="153" on="1"/>
        <pt x="579" y="0" on="1"/>
      </contour>
    </TTGlyph>
    <TTGlyph name="uni004C.swsh" xMin="61" yMin="0" xMax="709" yMax="660">
      <contour>
        <pt x="61" y="0" on="1"/>
        <pt x="61" y="660" on="1"/>
        <pt x="265" y="660" on="1"/>
        <pt x="265" y="153" on="1"/>
        <pt x="450" y="153" on="1"/>
        <pt x="536" y="153" on="0"/>
        <pt x="536" y="219" on="1"/>
        <pt x="536" y="251" on="0"/>
        <pt x="498" y="294" on="0"/>
        <pt x="454" y="295" on="1"/>
        <pt x="511" y="421" on="1"/>
        <pt x="592" y="419" on="0"/>
        <pt x="678" y="352" on="0"/>
        <pt x="709" y="259" on="0"/>
        <pt x="709" y="216" on="1"/>
        <pt x="709" y="0" on="0"/>
        <pt x="453" y="0" on="1"/>
      </contour>
    </TTGlyph>
    <TTGlyph name="uni004D" xMin="61" yMin="0" xMax="870" yMax="660">
      <contour>
        <pt x="595" y="660" on="1"/>
        <pt x="870" y="660" on="1"/>
        <pt x="870" y="0" on="1"/>
        <pt x="690" y="0" on="1"/>
        <pt x="690" y="264" on="1"/>
        <pt x="694" y="477" on="1"/>
        <pt x="692" y="477" on="1"/>
        <pt x="547" y="0" on="1"/>
        <pt x="383" y="0" on="1"/>
        <pt x="240" y="477" on="1"/>
        <pt x="237" y="477" on="1"/>
        <pt x="241" y="264" on="1"/>
        <pt x="241" y="0" on="1"/>
        <pt x="61" y="0" on="1"/>
        <pt x="61" y="660" on="1"/>
        <pt x="349" y="660" on="1"/>
        <pt x="438" y="347" on="1"/>
        <pt x="471" y="216" on="1"/>
        <pt x="473" y="216" on="1"/>
        <pt x="506" y="347" on="1"/>
      </contour>
    </TTGlyph>
    <TTGlyph name="uni004D.swsh" xMin="10" yMin="-110" xMax="1128" yMax="660">
      <contour>
        <pt x="950" y="477" on="1"/>
        <pt x="805" y="0" on="1"/>
        <pt x="641" y="0" on="1"/>
        <pt x="498" y="477" on="1"/>
        <pt x="495" y="477" on="1"/>
        <pt x="499" y="264" on="1"/>
        <pt x="499" y="193" on="1"/>
        <pt x="319" y="193" on="1"/>
        <pt x="319" y="513" on="1"/>
        <pt x="269" y="513" on="1"/>
        <pt x="229" y="513" on="0"/>
        <pt x="191" y="472" on="0"/>
        <pt x="191" y="441" on="1"/>
        <pt x="191" y="410" on="0"/>
        <pt x="234" y="366" on="0"/>
        <pt x="273" y="363" on="1"/>
        <pt x="216" y="229" on="1"/>
        <pt x="125" y="233" on="0"/>
        <pt x="10" y="347" on="0"/>
        <pt x="10" y="444" on="1"/>
        <pt x="10" y="547" on="0"/>
        <pt x="140" y="660" on="0"/>
        <pt x="266" y="660" on="1"/>
        <pt x="607" y="660" on="1"/>
        <pt x="696" y="347" on="1"/>
        <pt x="729" y="216" on="1"/>
        <pt x="731" y="216" on="1"/>
        <pt x="764" y="347" on="1"/>
        <pt x="853" y="660" on="1"/>
        <pt x="1128" y="660" on="1"/>
        <pt x="1128" y="0" on="1"/>
        <pt x="948" y="0" on="1"/>
        <pt x="948" y="264" on="1"/>
        <pt x="952" y="477" on="1"/>
      </contour>
      <contour>
        <pt x="499" y="125" on="1"/>
        <pt x="499" y="0" on="0"/>
        <pt x="367" y="-110" on="0"/>
        <pt x="257" y="-110" on="1"/>
        <pt x="112" y="-110" on="0"/>
        <pt x="55" y="-18" on="1"/>
        <pt x="119" y="108" on="1"/>
        <pt x="153" y="38" on="0"/>
        <pt x="230" y="38" on="1"/>
        <pt x="319" y="38" on="0"/>
        <pt x="319" y="118" on="1"/>
        <pt x="319" y="202" on="1"/>
        <pt x="499" y="202" on="1"/>
      </contour>
    </TTGlyph>
    <TTGlyph name="uni004D.swsh.001" xMin="10" yMin="0" xMax="1128" yMax="660">
      <contour>
        <pt x="273" y="363" on="1"/>
        <pt x="216" y="229" on="1"/>
        <pt x="125" y="233" on="0"/>
        <pt x="10" y="347" on="0"/>
        <pt x="10" y="444" on="1"/>
        <pt x="10" y="547" on="0"/>
        <pt x="140" y="660" on="0"/>
        <pt x="266" y="660" on="1"/>
        <pt x="509" y="660" on="1"/>
        <pt x="509" y="513" on="1"/>
        <pt x="269" y="513" on="1"/>
        <pt x="229" y="513" on="0"/>
        <pt x="191" y="472" on="0"/>
        <pt x="191" y="441" on="1"/>
        <pt x="191" y="410" on="0"/>
        <pt x="234" y="366" on="0"/>
      </contour>
      <contour>
        <pt x="853" y="660" on="1"/>
        <pt x="1128" y="660" on="1"/>
        <pt x="1128" y="0" on="1"/>
        <pt x="948" y="0" on="1"/>
        <pt x="948" y="264" on="1"/>
        <pt x="952" y="477" on="1"/>
        <pt x="950" y="477" on="1"/>
        <pt x="805" y="0" on="1"/>
        <pt x="641" y="0" on="1"/>
        <pt x="498" y="477" on="1"/>
        <pt x="495" y="477" on="1"/>
        <pt x="499" y="264" on="1"/>
        <pt x="499" y="0" on="1"/>
        <pt x="319" y="0" on="1"/>
        <pt x="319" y="660" on="1"/>
        <pt x="607" y="660" on="1"/>
        <pt x="696" y="347" on="1"/>
        <pt x="729" y="216" on="1"/>
        <pt x="731" y="216" on="1"/>
        <pt x="764" y="347" on="1"/>
      </contour>
    </TTGlyph>
    <TTGlyph name="uni004E" xMin="61" yMin="0" xMax="683" yMax="660">
      <contour>
        <pt x="504" y="660" on="1"/>
        <pt x="683" y="660" on="1"/>
        <pt x="683" y="0" on="1"/>
        <pt x="459" y="0" on="1"/>
        <pt x="279" y="327" on="1"/>
        <pt x="237" y="417" on="1"/>
        <pt x="235" y="417" on="1"/>
        <pt x="239" y="286" on="1"/>
        <pt x="239" y="0" on="1"/>
        <pt x="61" y="0" on="1"/>
        <pt x="61" y="660" on="1"/>
        <pt x="284" y="660" on="1"/>
        <pt x="464" y="333" on="1"/>
        <pt x="507" y="243" on="1"/>
        <pt x="508" y="243" on="1"/>
        <pt x="504" y="374" on="1"/>
      </contour>
    </TTGlyph>
    <TTGlyph name="uni004E.swsh" xMin="61" yMin="0" xMax="949" yMax="723">
      <contour>
        <pt x="239" y="286" on="1"/>
        <pt x="239" y="0" on="1"/>
        <pt x="61" y="0" on="1"/>
        <pt x="61" y="660" on="1"/>
        <pt x="284" y="660" on="1"/>
        <pt x="464" y="333" on="1"/>
        <pt x="507" y="243" on="1"/>
        <pt x="508" y="243" on="1"/>
        <pt x="504" y="374" on="1"/>
        <pt x="504" y="487" on="1"/>
        <pt x="504" y="613" on="0"/>
        <pt x="640" y="723" on="0"/>
        <pt x="750" y="723" on="1"/>
        <pt x="826" y="723" on="0"/>
        <pt x="919" y="680" on="0"/>
        <pt x="949" y="639" on="1"/>
        <pt x="881" y="516" on="1"/>
        <pt x="863" y="547" on="0"/>
        <pt x="818" y="575" on="0"/>
        <pt x="777" y="575" on="1"/>
        <pt x="683" y="575" on="0"/>
        <pt x="683" y="470" on="1"/>
        <pt x="683" y="0" on="1"/>
        <pt x="459" y="0" on="1"/>
        <pt x="279" y="327" on="1"/>
        <pt x="237" y="417" on="1"/>
        <pt x="235" y="417" on="1"/>
      </contour>
    </TTGlyph>
    <TTGlyph name="uni004F" xMin="36" yMin="-10" xMax="696" yMax="670">
      <contour>
        <pt x="36" y="330" on="1"/>
        <pt x="36" y="491" on="0"/>
        <pt x="213" y="670" on="0"/>
        <pt x="367" y="670" on="1"/>
        <pt x="522" y="670" on="0"/>
        <pt x="696" y="491" on="0"/>
        <pt x="696" y="330" on="1"/>
        <pt x="696" y="169" on="0"/>
        <pt x="522" y="-10" on="0"/>
        <pt x="367" y="-10" on="1"/>
        <pt x="213" y="-10" on="0"/>
        <pt x="36" y="169" on="0"/>
      </contour>
      <contour>
        <pt x="487" y="330" on="1"/>
        <pt x="487" y="514" on="0"/>
        <pt x="367" y="514" on="1"/>
        <pt x="246" y="514" on="0"/>
        <pt x="246" y="330" on="1"/>
        <pt x="246" y="146" on="0"/>
        <pt x="367" y="146" on="1"/>
        <pt x="487" y="146" on="0"/>
      </contour>
    </TTGlyph>
    <TTGlyph name="uni0050" xMin="61" yMin="0" xMax="656" yMax="660">
      <contour>
        <pt x="356" y="511" on="1"/>
        <pt x="265" y="511" on="1"/>
        <pt x="265" y="363" on="1"/>
        <pt x="356" y="363" on="1"/>
        <pt x="451" y="363" on="0"/>
        <pt x="451" y="437" on="1"/>
        <pt x="451" y="511" on="0"/>
      </contour>
      <contour>
        <pt x="389" y="219" on="1"/>
        <pt x="265" y="219" on="1"/>
        <pt x="265" y="0" on="1"/>
        <pt x="61" y="0" on="1"/>
        <pt x="61" y="660" on="1"/>
        <pt x="389" y="660" on="1"/>
        <pt x="656" y="660" on="0"/>
        <pt x="656" y="435" on="1"/>
        <pt x="656" y="219" on="0"/>
      </contour>
    </TTGlyph>
    <TTGlyph name="uni0051" xMin="36" yMin="-207" xMax="696" yMax="670">
      <contour>
        <pt x="307" y="19" on="1"/>
        <pt x="428" y="30" on="1"/>
        <pt x="419" y="-20" on="0"/>
        <pt x="467" y="-54" on="0"/>
        <pt x="518" y="-54" on="1"/>
        <pt x="599" y="-54" on="0"/>
        <pt x="643" y="-15" on="1"/>
        <pt x="690" y="-158" on="1"/>
        <pt x="664" y="-181" on="0"/>
        <pt x="575" y="-207" on="0"/>
        <pt x="511" y="-207" on="1"/>
        <pt x="385" y="-207" on="0"/>
        <pt x="285" y="-76" on="0"/>
      </contour>
      <contour>
        <pt x="36" y="330" on="1"/>
        <pt x="36" y="491" on="0"/>
        <pt x="213" y="670" on="0"/>
        <pt x="367" y="670" on="1"/>
        <pt x="522" y="670" on="0"/>
        <pt x="696" y="491" on="0"/>
        <pt x="696" y="330" on="1"/>
        <pt x="696" y="169" on="0"/>
        <pt x="522" y="-10" on="0"/>
        <pt x="367" y="-10" on="1"/>
        <pt x="213" y="-10" on="0"/>
        <pt x="36" y="169" on="0"/>
      </contour>
      <contour>
        <pt x="487" y="330" on="1"/>
        <pt x="487" y="514" on="0"/>
        <pt x="367" y="514" on="1"/>
        <pt x="246" y="514" on="0"/>
        <pt x="246" y="330" on="1"/>
        <pt x="246" y="146" on="0"/>
        <pt x="367" y="146" on="1"/>
        <pt x="487" y="146" on="0"/>
      </contour>
    </TTGlyph>
    <TTGlyph name="uni0052" xMin="61" yMin="0" xMax="695" yMax="660">
      <contour>
        <pt x="360" y="511" on="1"/>
        <pt x="261" y="511" on="1"/>
        <pt x="261" y="368" on="1"/>
        <pt x="360" y="368" on="1"/>
        <pt x="452" y="368" on="0"/>
        <pt x="452" y="439" on="1"/>
        <pt x="452" y="511" on="0"/>
      </contour>
      <contour>
        <pt x="472" y="0" on="1"/>
        <pt x="344" y="229" on="1"/>
        <pt x="261" y="229" on="1"/>
        <pt x="261" y="0" on="1"/>
        <pt x="61" y="0" on="1"/>
        <pt x="61" y="660" on="1"/>
        <pt x="399" y="660" on="1"/>
        <pt x="657" y="660" on="0"/>
        <pt x="657" y="444" on="1"/>
        <pt x="657" y="299" on="0"/>
        <pt x="534" y="251" on="1"/>
        <pt x="695" y="0" on="1"/>
      </contour>
    </TTGlyph>
    <TTGlyph name="uni0052.ss03" xMin="61" yMin="0" xMax="667" yMax="660">
      <contour>
        <pt x="261" y="511" on="1"/>
        <pt x="261" y="368" on="1"/>
        <pt x="360" y="368" on="1"/>
        <pt x="452" y="368" on="0"/>
        <pt x="452" y="439" on="1"/>
        <pt x="452" y="511" on="0"/>
        <pt x="360" y="511" on="1"/>
      </contour>
      <contour>
        <pt x="261" y="0" on="1"/>
        <pt x="61" y="0" on="1"/>
        <pt x="61" y="660" on="1"/>
        <pt x="399" y="660" on="1"/>
        <pt x="657" y="660" on="0"/>
        <pt x="657" y="452" on="1"/>
        <pt x="657" y="376" on="0"/>
        <pt x="585" y="299" on="0"/>
        <pt x="531" y="283" on="1"/>
        <pt x="531" y="281" on="1"/>
        <pt x="581" y="268" on="0"/>
        <pt x="622" y="209" on="0"/>
        <pt x="628" y="173" on="1"/>
        <pt x="637" y="110" on="0"/>
        <pt x="651" y="34" on="0"/>
        <pt x="667" y="5" on="1"/>
        <pt x="667" y="0" on="1"/>
        <pt x="454" y="0" on="1"/>
        <pt x="442" y="29" on="0"/>
        <pt x="437" y="101" on="0"/>
        <pt x="427" y="154" on="1"/>
        <pt x="415" y="229" on="0"/>
        <pt x="330" y="229" on="1"/>
        <pt x="261" y="229" on="1"/>
      </contour>
    </TTGlyph>
    <TTGlyph name="uni0052.swsh" xMin="10" yMin="-110" xMax="953" yMax="660">
      <contour>
        <pt x="618" y="511" on="1"/>
        <pt x="519" y="511" on="1"/>
        <pt x="519" y="368" on="1"/>
        <pt x="618" y="368" on="1"/>
        <pt x="710" y="368" on="0"/>
        <pt x="710" y="439" on="1"/>
        <pt x="710" y="511" on="0"/>
      </contour>
      <contour>
        <pt x="519" y="134" on="1"/>
        <pt x="519" y="1" on="0"/>
        <pt x="378" y="-110" on="0"/>
        <pt x="265" y="-110" on="1"/>
        <pt x="113" y="-110" on="0"/>
        <pt x="54" y="-10" on="1"/>
        <pt x="127" y="108" on="1"/>
        <pt x="162" y="38" on="0"/>
        <pt x="236" y="38" on="1"/>
        <pt x="274" y="38" on="0"/>
        <pt x="319" y="87" on="0"/>
        <pt x="319" y="127" on="1"/>
        <pt x="319" y="660" on="1"/>
        <pt x="657" y="660" on="1"/>
        <pt x="915" y="660" on="0"/>
        <pt x="915" y="444" on="1"/>
        <pt x="915" y="299" on="0"/>
        <pt x="792" y="251" on="1"/>
        <pt x="953" y="0" on="1"/>
        <pt x="730" y="0" on="1"/>
        <pt x="602" y="229" on="1"/>
        <pt x="519" y="229" on="1"/>
      </contour>
      <contour>
        <pt x="273" y="363" on="1"/>
        <pt x="216" y="229" on="1"/>
        <pt x="125" y="233" on="0"/>
        <pt x="10" y="347" on="0"/>
        <pt x="10" y="444" on="1"/>
        <pt x="10" y="547" on="0"/>
        <pt x="139" y="660" on="0"/>
        <pt x="266" y="660" on="1"/>
        <pt x="509" y="660" on="1"/>
        <pt x="509" y="513" on="1"/>
        <pt x="269" y="513" on="1"/>
        <pt x="228" y="513" on="0"/>
        <pt x="190" y="472" on="0"/>
        <pt x="190" y="441" on="1"/>
        <pt x="190" y="410" on="0"/>
        <pt x="233" y="366" on="0"/>
      </contour>
    </TTGlyph>
    <TTGlyph name="uni0052.swsh.001" xMin="61" yMin="-99" xMax="763" yMax="660">
      <contour>
        <pt x="651" y="-99" on="1"/>
        <pt x="588" y="-91" on="0"/>
        <pt x="506" y="-32" on="0"/>
        <pt x="477" y="9" on="1"/>
        <pt x="324" y="229" on="1"/>
        <pt x="261" y="229" on="1"/>
        <pt x="261" y="0" on="1"/>
        <pt x="61" y="0" on="1"/>
        <pt x="61" y="660" on="1"/>
        <pt x="399" y="660" on="1"/>
        <pt x="657" y="660" on="0"/>
        <pt x="657" y="444" on="1"/>
        <pt x="657" y="288" on="0"/>
        <pt x="516" y="244" on="1"/>
        <pt x="604" y="127" on="1"/>
        <pt x="680" y="27" on="0"/>
        <pt x="763" y="14" on="1"/>
      </contour>
      <contour>
        <pt x="360" y="511" on="1"/>
        <pt x="261" y="511" on="1"/>
        <pt x="261" y="368" on="1"/>
        <pt x="360" y="368" on="1"/>
        <pt x="452" y="368" on="0"/>
        <pt x="452" y="439" on="1"/>
        <pt x="452" y="511" on="0"/>
      </contour>
    </TTGlyph>
    <TTGlyph name="uni0053" xMin="17" yMin="-10" xMax="629" yMax="670">
      <contour>
        <pt x="37" y="449" on="1"/>
        <pt x="37" y="546" on="0"/>
        <pt x="191" y="670" on="0"/>
        <pt x="334" y="670" on="1"/>
        <pt x="428" y="670" on="0"/>
        <pt x="565" y="621" on="0"/>
        <pt x="629" y="558" on="1"/>
        <pt x="533" y="430" on="1"/>
        <pt x="453" y="517" on="0"/>
        <pt x="340" y="517" on="1"/>
        <pt x="247" y="517" on="0"/>
        <pt x="247" y="465" on="1"/>
        <pt x="247" y="446" on="0"/>
        <pt x="303" y="426" on="0"/>
        <pt x="354" y="417" on="1"/>
        <pt x="497" y="392" on="0"/>
        <pt x="620" y="290" on="0"/>
        <pt x="620" y="198" on="1"/>
        <pt x="620" y="97" on="0"/>
        <pt x="453" y="-10" on="0"/>
        <pt x="333" y="-10" on="1"/>
        <pt x="212" y="-10" on="0"/>
        <pt x="73" y="45" on="0"/>
        <pt x="17" y="92" on="1"/>
        <pt x="111" y="231" on="1"/>
        <pt x="189" y="143" on="0"/>
        <pt x="319" y="143" on="1"/>
        <pt x="410" y="143" on="0"/>
        <pt x="410" y="188" on="1"/>
        <pt x="410" y="210" on="0"/>
        <pt x="350" y="233" on="0"/>
        <pt x="296" y="242" on="1"/>
        <pt x="236" y="253" on="0"/>
        <pt x="117" y="291" on="0"/>
        <pt x="37" y="373" on="0"/>
      </contour>
    </TTGlyph>
    <TTGlyph name="uni0053.swsh" xMin="28" yMin="-110" xMax="621" yMax="670">
      <contour>
        <pt x="621" y="123" on="1"/>
        <pt x="621" y="8" on="0"/>
        <pt x="447" y="-110" on="0"/>
        <pt x="308" y="-110" on="1"/>
        <pt x="181" y="-110" on="0"/>
        <pt x="28" y="-13" on="0"/>
        <pt x="28" y="64" on="1"/>
        <pt x="28" y="98" on="0"/>
        <pt x="33" y="120" on="1"/>
        <pt x="212" y="167" on="1"/>
        <pt x="206" y="142" on="0"/>
        <pt x="206" y="126" on="1"/>
        <pt x="206" y="46" on="0"/>
        <pt x="326" y="46" on="1"/>
        <pt x="430" y="46" on="0"/>
        <pt x="430" y="113" on="1"/>
        <pt x="430" y="145" on="0"/>
        <pt x="372" y="185" on="0"/>
        <pt x="290" y="200" on="1"/>
        <pt x="154" y="226" on="0"/>
        <pt x="38" y="336" on="0"/>
        <pt x="38" y="436" on="1"/>
        <pt x="38" y="537" on="0"/>
        <pt x="193" y="670" on="0"/>
        <pt x="336" y="670" on="1"/>
        <pt x="472" y="670" on="0"/>
        <pt x="607" y="576" on="0"/>
        <pt x="610" y="467" on="1"/>
        <pt x="428" y="398" on="1"/>
        <pt x="430" y="449" on="0"/>
        <pt x="384" y="514" on="0"/>
        <pt x="331" y="514" on="1"/>
        <pt x="248" y="514" on="0"/>
        <pt x="248" y="436" on="1"/>
        <pt x="248" y="402" on="0"/>
        <pt x="309" y="360" on="0"/>
        <pt x="388" y="343" on="1"/>
        <pt x="516" y="316" on="0"/>
        <pt x="621" y="215" on="0"/>
      </contour>
    </TTGlyph>
    <TTGlyph name="uni0054" xMin="22" yMin="0" xMax="648" yMax="660">
      <contour>
        <pt x="648" y="507" on="1"/>
        <pt x="438" y="507" on="1"/>
        <pt x="438" y="0" on="1"/>
        <pt x="234" y="0" on="1"/>
        <pt x="234" y="507" on="1"/>
        <pt x="22" y="507" on="1"/>
        <pt x="22" y="660" on="1"/>
        <pt x="648" y="660" on="1"/>
      </contour>
    </TTGlyph>
    <TTGlyph name="uni0054.swsh" xMin="10" yMin="0" xMax="797" yMax="660">
      <contour>
        <pt x="797" y="507" on="1"/>
        <pt x="587" y="507" on="1"/>
        <pt x="587" y="0" on="1"/>
        <pt x="382" y="0" on="1"/>
        <pt x="382" y="507" on="1"/>
        <pt x="277" y="507" on="1"/>
        <pt x="232" y="507" on="0"/>
        <pt x="191" y="470" on="0"/>
        <pt x="191" y="441" on="1"/>
        <pt x="191" y="410" on="0"/>
        <pt x="230" y="366" on="0"/>
        <pt x="273" y="363" on="1"/>
        <pt x="216" y="229" on="1"/>
        <pt x="125" y="233" on="0"/>
        <pt x="10" y="350" on="0"/>
        <pt x="10" y="444" on="1"/>
        <pt x="10" y="547" on="0"/>
        <pt x="140" y="660" on="0"/>
        <pt x="266" y="660" on="1"/>
        <pt x="797" y="660" on="1"/>
      </contour>
    </TTGlyph>
    <TTGlyph name="uni0055" xMin="47" yMin="-10" xMax="663" yMax="660">
      <contour>
        <pt x="458" y="660" on="1"/>
        <pt x="663" y="660" on="1"/>
        <pt x="663" y="277" on="1"/>
        <pt x="663" y="-10" on="0"/>
        <pt x="355" y="-10" on="1"/>
        <pt x="47" y="-10" on="0"/>
        <pt x="47" y="277" on="1"/>
        <pt x="47" y="660" on="1"/>
        <pt x="253" y="660" on="1"/>
        <pt x="253" y="266" on="1"/>
        <pt x="253" y="146" on="0"/>
        <pt x="355" y="146" on="1"/>
        <pt x="458" y="146" on="0"/>
        <pt x="458" y="266" on="1"/>
      </contour>
    </TTGlyph>
    <TTGlyph name="uni0056" xMin="-1" yMin="0" xMax="697" yMax="660">
      <contour>
        <pt x="491" y="660" on="1"/>
        <pt x="697" y="660" on="1"/>
        <pt x="469" y="0" on="1"/>
        <pt x="227" y="0" on="1"/>
        <pt x="-1" y="660" on="1"/>
        <pt x="212" y="660" on="1"/>
        <pt x="318" y="281" on="1"/>
        <pt x="352" y="152" on="1"/>
        <pt x="384" y="279" on="1"/>
      </contour>
    </TTGlyph>
    <TTGlyph name="uni0057" xMin="0" yMin="0" xMax="1009" yMax="660">
      <contour>
        <pt x="506" y="447" on="1"/>
        <pt x="479" y="282" on="1"/>
        <pt x="415" y="0" on="1"/>
        <pt x="189" y="0" on="1"/>
        <pt x="0" y="660" on="1"/>
        <pt x="220" y="660" on="1"/>
        <pt x="313" y="161" on="1"/>
        <pt x="417" y="660" on="1"/>
        <pt x="597" y="660" on="1"/>
        <pt x="706" y="163" on="1"/>
        <pt x="797" y="660" on="1"/>
        <pt x="1009" y="660" on="1"/>
        <pt x="820" y="0" on="1"/>
        <pt x="600" y="0" on="1"/>
        <pt x="536" y="282" on="1"/>
        <pt x="509" y="447" on="1"/>
      </contour>
    </TTGlyph>
    <TTGlyph name="uni0057.swsh" xMin="10" yMin="0" xMax="1318" yMax="660">
      <contour>
        <pt x="276" y="363" on="1"/>
        <pt x="216" y="229" on="1"/>
        <pt x="125" y="231" on="0"/>
        <pt x="10" y="348" on="0"/>
        <pt x="10" y="444" on="1"/>
        <pt x="10" y="547" on="0"/>
        <pt x="140" y="660" on="0"/>
        <pt x="266" y="660" on="1"/>
        <pt x="438" y="660" on="1"/>
        <pt x="438" y="513" on="1"/>
        <pt x="273" y="513" on="1"/>
        <pt x="228" y="513" on="0"/>
        <pt x="191" y="472" on="0"/>
        <pt x="191" y="441" on="1"/>
        <pt x="191" y="410" on="0"/>
        <pt x="233" y="366" on="0"/>
      </contour>
      <contour>
        <pt x="815" y="447" on="1"/>
        <pt x="788" y="282" on="1"/>
        <pt x="724" y="0" on="1"/>
        <pt x="498" y="0" on="1"/>
        <pt x="309" y="660" on="1"/>
        <pt x="529" y="660" on="1"/>
        <pt x="622" y="161" on="1"/>
        <pt x="726" y="660" on="1"/>
        <pt x="906" y="660" on="1"/>
        <pt x="1015" y="163" on="1"/>
        <pt x="1106" y="660" on="1"/>
        <pt x="1318" y="660" on="1"/>
        <pt x="1129" y="0" on="1"/>
        <pt x="909" y="0" on="1"/>
        <pt x="845" y="282" on="1"/>
        <pt x="818" y="447" on="1"/>
      </contour>
    </TTGlyph>
    <TTGlyph name="uni0058" xMin="6" yMin="0" xMax="686" yMax="660">
      <contour>
        <pt x="440" y="0" on="1"/>
        <pt x="336" y="193" on="1"/>
        <pt x="238" y="0" on="1"/>
        <pt x="6" y="0" on="1"/>
        <pt x="228" y="330" on="1"/>
        <pt x="17" y="660" on="1"/>
        <pt x="258" y="660" on="1"/>
        <pt x="352" y="472" on="1"/>
        <pt x="447" y="660" on="1"/>
        <pt x="669" y="660" on="1"/>
        <pt x="459" y="336" on="1"/>
        <pt x="686" y="0" on="1"/>
      </contour>
    </TTGlyph>
    <TTGlyph name="uni0059" xMin="9" yMin="0" xMax="677" yMax="660">
      <contour>
        <pt x="474" y="660" on="1"/>
        <pt x="677" y="660" on="1"/>
        <pt x="446" y="234" on="1"/>
        <pt x="446" y="0" on="1"/>
        <pt x="241" y="0" on="1"/>
        <pt x="241" y="234" on="1"/>
        <pt x="9" y="660" on="1"/>
        <pt x="216" y="660" on="1"/>
        <pt x="296" y="495" on="1"/>
        <pt x="345" y="380" on="1"/>
        <pt x="393" y="495" on="1"/>
      </contour>
    </TTGlyph>
    <TTGlyph name="uni005A" xMin="31" yMin="0" xMax="613" yMax="660">
      <contour>
        <pt x="613" y="0" on="1"/>
        <pt x="31" y="0" on="1"/>
        <pt x="31" y="143" on="1"/>
        <pt x="382" y="511" on="1"/>
        <pt x="36" y="511" on="1"/>
        <pt x="36" y="660" on="1"/>
        <pt x="602" y="660" on="1"/>
        <pt x="602" y="517" on="1"/>
        <pt x="252" y="149" on="1"/>
        <pt x="613" y="149" on="1"/>
      </contour>
    </TTGlyph>
    <TTGlyph name="uni005B" xMin="85" yMin="-168" xMax="383" yMax="706">
      <contour>
        <pt x="85" y="-168" on="1"/>
        <pt x="85" y="706" on="1"/>
        <pt x="383" y="706" on="1"/>
        <pt x="383" y="571" on="1"/>
        <pt x="257" y="571" on="1"/>
        <pt x="257" y="-32" on="1"/>
        <pt x="383" y="-32" on="1"/>
        <pt x="383" y="-168" on="1"/>
      </contour>
    </TTGlyph>
    <TTGlyph name="uni005B.case" xMin="85" yMin="-97" xMax="383" yMax="752">
      <contour>
        <pt x="85" y="-97" on="1"/>
        <pt x="85" y="752" on="1"/>
        <pt x="383" y="752" on="1"/>
        <pt x="383" y="616" on="1"/>
        <pt x="257" y="616" on="1"/>
        <pt x="257" y="39" on="1"/>
        <pt x="383" y="39" on="1"/>
        <pt x="383" y="-97" on="1"/>
      </contour>
    </TTGlyph>
    <TTGlyph name="uni005C" xMin="11" yMin="-70" xMax="469" yMax="706">
      <component glyphName="uni002F" x="479" y="0" scalex="-1.0" scaley="1.0" flags="0x4"/>
    </TTGlyph>
    <TTGlyph name="uni005D" xMin="24" yMin="-168" xMax="322" yMax="706">
      <component glyphName="uni005B" x="407" y="0" scalex="-1.0" scaley="1.0" flags="0x4"/>
    </TTGlyph>
    <TTGlyph name="uni005D.case" xMin="24" yMin="-97" xMax="322" yMax="752">
      <component glyphName="uni005B.case" x="407" y="0" scalex="-1.0" scaley="1.0" flags="0x4"/>
    </TTGlyph>
    <TTGlyph name="uni005E" xMin="24" yMin="355" xMax="607" yMax="722">
      <contour>
        <pt x="432" y="355" on="1"/>
        <pt x="315" y="596" on="1"/>
        <pt x="198" y="355" on="1"/>
        <pt x="24" y="355" on="1"/>
        <pt x="231" y="722" on="1"/>
        <pt x="399" y="722" on="1"/>
        <pt x="607" y="355" on="1"/>
      </contour>
    </TTGlyph>
    <TTGlyph name="uni005F" xMin="0" yMin="-211" xMax="539" yMax="-55">
      <contour>
        <pt x="0" y="-55" on="1"/>
        <pt x="539" y="-55" on="1"/>
        <pt x="539" y="-211" on="1"/>
        <pt x="0" y="-211" on="1"/>
      </contour>
    </TTGlyph>
    <TTGlyph name="uni0060" xMin="79" yMin="559" xMax="325" yMax="734">
      <contour>
        <pt x="79" y="734" on="1"/>
        <pt x="262" y="734" on="1"/>
        <pt x="325" y="559" on="1"/>
        <pt x="181" y="559" on="1"/>
      </contour>
    </TTGlyph>
    <TTGlyph name="uni0061" xMin="24" yMin="-10" xMax="587" yMax="510">
      <contour>
        <pt x="500" y="-10" on="1"/>
        <pt x="380" y="-10" on="0"/>
        <pt x="356" y="72" on="1"/>
        <pt x="333" y="36" on="0"/>
        <pt x="246" y="-10" on="0"/>
        <pt x="181" y="-10" on="1"/>
        <pt x="24" y="-10" on="0"/>
        <pt x="24" y="112" on="1"/>
        <pt x="24" y="173" on="0"/>
        <pt x="114" y="250" on="0"/>
        <pt x="219" y="272" on="1"/>
        <pt x="324" y="294" on="1"/>
        <pt x="324" y="315" on="1"/>
        <pt x="324" y="376" on="0"/>
        <pt x="266" y="376" on="1"/>
        <pt x="239" y="376" on="0"/>
        <pt x="201" y="347" on="0"/>
        <pt x="196" y="308" on="1"/>
        <pt x="30" y="340" on="1"/>
        <pt x="40" y="419" on="0"/>
        <pt x="163" y="510" on="0"/>
        <pt x="276" y="510" on="1"/>
        <pt x="524" y="510" on="0"/>
        <pt x="524" y="311" on="1"/>
        <pt x="524" y="151" on="1"/>
        <pt x="524" y="111" on="0"/>
        <pt x="559" y="111" on="1"/>
        <pt x="578" y="111" on="0"/>
        <pt x="587" y="115" on="1"/>
        <pt x="571" y="8" on="1"/>
        <pt x="538" y="-10" on="0"/>
      </contour>
      <contour>
        <pt x="260" y="105" on="1"/>
        <pt x="286" y="105" on="0"/>
        <pt x="324" y="136" on="0"/>
        <pt x="324" y="165" on="1"/>
        <pt x="324" y="217" on="1"/>
        <pt x="276" y="205" on="1"/>
        <pt x="215" y="189" on="0"/>
        <pt x="215" y="145" on="1"/>
        <pt x="215" y="105" on="0"/>
      </contour>
    </TTGlyph>
    <TTGlyph name="uni0061.sc" xMin="1" yMin="0" xMax="640" yMax="560">
      <contour>
        <pt x="314" y="417" on="1"/>
        <pt x="261" y="233" on="1"/>
        <pt x="372" y="233" on="1"/>
        <pt x="318" y="417" on="1"/>
      </contour>
      <contour>
        <pt x="442" y="0" on="1"/>
        <pt x="411" y="103" on="1"/>
        <pt x="222" y="103" on="1"/>
        <pt x="190" y="0" on="1"/>
        <pt x="1" y="0" on="1"/>
        <pt x="200" y="560" on="1"/>
        <pt x="442" y="560" on="1"/>
        <pt x="640" y="0" on="1"/>
      </contour>
    </TTGlyph>
    <TTGlyph name="uni0062" xMin="49" yMin="-10" xMax="595" yMax="706">
      <contour>
        <pt x="226" y="0" on="1"/>
        <pt x="49" y="0" on="1"/>
        <pt x="49" y="706" on="1"/>
        <pt x="251" y="706" on="1"/>
        <pt x="251" y="209" on="1"/>
        <pt x="234" y="154" on="1"/>
      </contour>
      <contour>
        <pt x="595" y="248" on="1"/>
        <pt x="595" y="373" on="0"/>
        <pt x="490" y="510" on="0"/>
        <pt x="396" y="510" on="1"/>
        <pt x="310" y="510" on="0"/>
        <pt x="227" y="383" on="0"/>
        <pt x="227" y="291" on="1"/>
        <pt x="251" y="254" on="1"/>
        <pt x="251" y="365" on="0"/>
        <pt x="320" y="365" on="1"/>
        <pt x="353" y="365" on="0"/>
        <pt x="391" y="315" on="0"/>
        <pt x="391" y="250" on="1"/>
        <pt x="391" y="186" on="0"/>
        <pt x="353" y="134" on="0"/>
        <pt x="320" y="134" on="1"/>
        <pt x="251" y="134" on="0"/>
        <pt x="251" y="246" on="1"/>
        <pt x="215" y="209" on="1"/>
        <pt x="215" y="118" on="0"/>
        <pt x="311" y="-10" on="0"/>
        <pt x="397" y="-10" on="1"/>
        <pt x="492" y="-10" on="0"/>
        <pt x="595" y="126" on="0"/>
      </contour>
    </TTGlyph>
    <TTGlyph name="uni0062.sc" xMin="61" yMin="0" xMax="611" yMax="560">
      <contour>
        <pt x="407" y="0" on="1"/>
        <pt x="61" y="0" on="1"/>
        <pt x="61" y="560" on="1"/>
        <pt x="389" y="560" on="1"/>
        <pt x="596" y="559" on="0"/>
        <pt x="596" y="410" on="1"/>
        <pt x="596" y="361" on="0"/>
        <pt x="537" y="292" on="0"/>
        <pt x="477" y="281" on="1"/>
        <pt x="477" y="278" on="1"/>
        <pt x="611" y="263" on="0"/>
        <pt x="611" y="148" on="1"/>
        <pt x="611" y="0" on="0"/>
      </contour>
      <contour>
        <pt x="249" y="435" on="1"/>
        <pt x="249" y="339" on="1"/>
        <pt x="335" y="339" on="1"/>
        <pt x="397" y="339" on="0"/>
        <pt x="397" y="387" on="1"/>
        <pt x="397" y="435" on="0"/>
        <pt x="335" y="435" on="1"/>
      </contour>
      <contour>
        <pt x="249" y="222" on="1"/>
        <pt x="249" y="125" on="1"/>
        <pt x="356" y="125" on="1"/>
        <pt x="412" y="125" on="0"/>
        <pt x="412" y="173" on="1"/>
        <pt x="412" y="222" on="0"/>
        <pt x="356" y="222" on="1"/>
      </contour>
    </TTGlyph>
    <TTGlyph name="uni0063" xMin="28" yMin="-10" xMax="552" yMax="510">
      <contour>
        <pt x="28" y="250" on="1"/>
        <pt x="28" y="374" on="0"/>
        <pt x="170" y="510" on="0"/>
        <pt x="298" y="510" on="1"/>
        <pt x="436" y="510" on="0"/>
        <pt x="545" y="408" on="0"/>
        <pt x="552" y="347" on="1"/>
        <pt x="365" y="290" on="1"/>
        <pt x="362" y="371" on="0"/>
        <pt x="308" y="371" on="1"/>
        <pt x="269" y="371" on="0"/>
        <pt x="231" y="315" on="0"/>
        <pt x="231" y="248" on="1"/>
        <pt x="231" y="178" on="0"/>
        <pt x="273" y="129" on="0"/>
        <pt x="307" y="129" on="1"/>
        <pt x="361" y="129" on="0"/>
        <pt x="370" y="202" on="1"/>
        <pt x="551" y="145" on="1"/>
        <pt x="547" y="81" on="0"/>
        <pt x="422" y="-10" on="0"/>
        <pt x="308" y="-10" on="1"/>
        <pt x="171" y="-10" on="0"/>
        <pt x="28" y="126" on="0"/>
      </contour>
    </TTGlyph>
    <TTGlyph name="uni0063.sc" xMin="32" yMin="-8" xMax="594" yMax="568">
      <contour>
        <pt x="417" y="221" on="1"/>
        <pt x="594" y="174" on="1"/>
        <pt x="584" y="95" on="0"/>
        <pt x="444" y="-8" on="0"/>
        <pt x="326" y="-8" on="1"/>
        <pt x="187" y="-8" on="0"/>
        <pt x="32" y="142" on="0"/>
        <pt x="32" y="280" on="1"/>
        <pt x="32" y="419" on="0"/>
        <pt x="190" y="568" on="0"/>
        <pt x="332" y="568" on="1"/>
        <pt x="429" y="568" on="0"/>
        <pt x="578" y="475" on="0"/>
        <pt x="591" y="385" on="1"/>
        <pt x="411" y="336" on="1"/>
        <pt x="408" y="383" on="0"/>
        <pt x="361" y="417" on="0"/>
        <pt x="331" y="417" on="1"/>
        <pt x="287" y="417" on="0"/>
        <pt x="235" y="352" on="0"/>
        <pt x="235" y="280" on="1"/>
        <pt x="235" y="143" on="0"/>
        <pt x="334" y="143" on="1"/>
        <pt x="411" y="143" on="0"/>
      </contour>
    </TTGlyph>
    <TTGlyph name="uni00630074" xMin="28" yMin="-10" xMax="960" yMax="722">
      <contour>
        <pt x="960" y="26" on="1"/>
        <pt x="935" y="10" on="0"/>
        <pt x="853" y="-10" on="0"/>
        <pt x="815" y="-10" on="1"/>
        <pt x="719" y="-10" on="0"/>
        <pt x="615" y="67" on="0"/>
        <pt x="615" y="160" on="1"/>
        <pt x="615" y="501" on="1"/>
        <pt x="615" y="547" on="0"/>
        <pt x="581" y="583" on="0"/>
        <pt x="560" y="583" on="1"/>
        <pt x="539" y="583" on="0"/>
        <pt x="508" y="552" on="0"/>
        <pt x="508" y="508" on="1"/>
        <pt x="508" y="472" on="0"/>
        <pt x="532" y="391" on="0"/>
        <pt x="551" y="347" on="1"/>
        <pt x="365" y="290" on="1"/>
        <pt x="361" y="371" on="0"/>
        <pt x="308" y="371" on="1"/>
        <pt x="269" y="371" on="0"/>
        <pt x="231" y="315" on="0"/>
        <pt x="231" y="248" on="1"/>
        <pt x="231" y="178" on="0"/>
        <pt x="273" y="129" on="0"/>
        <pt x="307" y="129" on="1"/>
        <pt x="359" y="129" on="0"/>
        <pt x="370" y="202" on="1"/>
        <pt x="551" y="145" on="1"/>
        <pt x="547" y="81" on="0"/>
        <pt x="422" y="-10" on="0"/>
        <pt x="308" y="-10" on="1"/>
        <pt x="171" y="-10" on="0"/>
        <pt x="28" y="126" on="0"/>
        <pt x="28" y="250" on="1"/>
        <pt x="28" y="374" on="0"/>
        <pt x="170" y="510" on="0"/>
        <pt x="298" y="510" on="1"/>
        <pt x="333" y="510" on="0"/>
        <pt x="372" y="501" on="1"/>
        <pt x="363" y="523" on="0"/>
        <pt x="363" y="551" on="1"/>
        <pt x="363" y="632" on="0"/>
        <pt x="481" y="722" on="0"/>
        <pt x="579" y="722" on="1"/>
        <pt x="635" y="722" on="0"/>
        <pt x="744" y="684" on="0"/>
        <pt x="817" y="600" on="0"/>
        <pt x="817" y="530" on="1"/>
        <pt x="817" y="500" on="1"/>
        <pt x="954" y="500" on="1"/>
        <pt x="954" y="361" on="1"/>
        <pt x="817" y="361" on="1"/>
        <pt x="817" y="192" on="1"/>
        <pt x="817" y="127" on="0"/>
        <pt x="880" y="127" on="1"/>
        <pt x="918" y="127" on="0"/>
        <pt x="947" y="144" on="1"/>
      </contour>
    </TTGlyph>
    <TTGlyph name="uni0064" xMin="32" yMin="-10" xMax="578" yMax="706">
      <contour>
        <pt x="578" y="0" on="1"/>
        <pt x="397" y="0" on="1"/>
        <pt x="386" y="154" on="1"/>
        <pt x="376" y="201" on="1"/>
        <pt x="376" y="706" on="1"/>
        <pt x="578" y="706" on="1"/>
      </contour>
      <contour>
        <pt x="32" y="248" on="1"/>
        <pt x="32" y="373" on="0"/>
        <pt x="137" y="510" on="0"/>
        <pt x="231" y="510" on="1"/>
        <pt x="317" y="510" on="0"/>
        <pt x="400" y="383" on="0"/>
        <pt x="400" y="291" on="1"/>
        <pt x="376" y="254" on="1"/>
        <pt x="376" y="365" on="0"/>
        <pt x="307" y="365" on="1"/>
        <pt x="274" y="365" on="0"/>
        <pt x="236" y="315" on="0"/>
        <pt x="236" y="250" on="1"/>
        <pt x="236" y="186" on="0"/>
        <pt x="274" y="134" on="0"/>
        <pt x="307" y="134" on="1"/>
        <pt x="376" y="134" on="0"/>
        <pt x="376" y="246" on="1"/>
        <pt x="412" y="209" on="1"/>
        <pt x="412" y="118" on="0"/>
        <pt x="316" y="-10" on="0"/>
        <pt x="230" y="-10" on="1"/>
        <pt x="136" y="-10" on="0"/>
        <pt x="32" y="126" on="0"/>
      </contour>
    </TTGlyph>
    <TTGlyph name="uni0064.sc" xMin="61" yMin="0" xMax="623" yMax="560">
      <contour>
        <pt x="328" y="413" on="1"/>
        <pt x="259" y="413" on="1"/>
        <pt x="259" y="147" on="1"/>
        <pt x="328" y="147" on="1"/>
        <pt x="379" y="147" on="0"/>
        <pt x="420" y="214" on="0"/>
        <pt x="420" y="280" on="1"/>
        <pt x="420" y="346" on="0"/>
        <pt x="379" y="413" on="0"/>
      </contour>
      <contour>
        <pt x="61" y="0" on="1"/>
        <pt x="61" y="560" on="1"/>
        <pt x="330" y="560" on="1"/>
        <pt x="471" y="560" on="0"/>
        <pt x="623" y="413" on="0"/>
        <pt x="623" y="280" on="1"/>
        <pt x="623" y="147" on="0"/>
        <pt x="471" y="0" on="0"/>
        <pt x="330" y="0" on="1"/>
      </contour>
    </TTGlyph>
    <TTGlyph name="uni0065" xMin="28" yMin="-10" xMax="555" yMax="510">
      <contour>
        <pt x="298" y="373" on="1"/>
        <pt x="232" y="373" on="0"/>
        <pt x="222" y="291" on="1"/>
        <pt x="365" y="291" on="1"/>
        <pt x="357" y="373" on="0"/>
      </contour>
      <contour>
        <pt x="546" y="129" on="1"/>
        <pt x="527" y="59" on="0"/>
        <pt x="397" y="-10" on="0"/>
        <pt x="308" y="-10" on="1"/>
        <pt x="171" y="-10" on="0"/>
        <pt x="28" y="126" on="0"/>
        <pt x="28" y="250" on="1"/>
        <pt x="28" y="374" on="0"/>
        <pt x="169" y="510" on="0"/>
        <pt x="297" y="510" on="1"/>
        <pt x="425" y="510" on="0"/>
        <pt x="555" y="375" on="0"/>
        <pt x="555" y="268" on="1"/>
        <pt x="555" y="235" on="0"/>
        <pt x="551" y="209" on="1"/>
        <pt x="222" y="209" on="1"/>
        <pt x="228" y="162" on="0"/>
        <pt x="271" y="128" on="0"/>
        <pt x="308" y="128" on="1"/>
        <pt x="369" y="128" on="0"/>
        <pt x="383" y="176" on="1"/>
      </contour>
    </TTGlyph>
    <TTGlyph name="uni0065.sc" xMin="61" yMin="0" xMax="556" yMax="560">
      <contour>
        <pt x="61" y="0" on="1"/>
        <pt x="61" y="560" on="1"/>
        <pt x="553" y="560" on="1"/>
        <pt x="553" y="423" on="1"/>
        <pt x="259" y="423" on="1"/>
        <pt x="259" y="346" on="1"/>
        <pt x="488" y="346" on="1"/>
        <pt x="488" y="216" on="1"/>
        <pt x="259" y="216" on="1"/>
        <pt x="259" y="137" on="1"/>
        <pt x="556" y="137" on="1"/>
        <pt x="556" y="0" on="1"/>
      </contour>
    </TTGlyph>
    <TTGlyph name="uni0066" xMin="8" yMin="0" xMax="423" yMax="723">
      <contour>
        <pt x="417" y="361" on="1"/>
        <pt x="284" y="361" on="1"/>
        <pt x="284" y="0" on="1"/>
        <pt x="82" y="0" on="1"/>
        <pt x="82" y="361" on="1"/>
        <pt x="8" y="361" on="1"/>
        <pt x="8" y="500" on="1"/>
        <pt x="82" y="500" on="1"/>
        <pt x="82" y="532" on="1"/>
        <pt x="82" y="637" on="0"/>
        <pt x="213" y="723" on="0"/>
        <pt x="298" y="723" on="1"/>
        <pt x="384" y="723" on="0"/>
        <pt x="423" y="692" on="1"/>
        <pt x="407" y="571" on="1"/>
        <pt x="387" y="587" on="0"/>
        <pt x="350" y="587" on="1"/>
        <pt x="271" y="587" on="0"/>
        <pt x="271" y="521" on="1"/>
        <pt x="271" y="500" on="1"/>
        <pt x="417" y="500" on="1"/>
      </contour>
    </TTGlyph>
    <TTGlyph name="uni0066.sc" xMin="61" yMin="0" xMax="553" yMax="560">
      <contour>
        <pt x="488" y="200" on="1"/>
        <pt x="259" y="200" on="1"/>
        <pt x="259" y="0" on="1"/>
        <pt x="61" y="0" on="1"/>
        <pt x="61" y="560" on="1"/>
        <pt x="553" y="560" on="1"/>
        <pt x="553" y="423" on="1"/>
        <pt x="259" y="423" on="1"/>
        <pt x="259" y="338" on="1"/>
        <pt x="488" y="338" on="1"/>
      </contour>
    </TTGlyph>
    <TTGlyph name="uni0067" xMin="13" yMin="-215" xMax="572" yMax="658">
      <contour>
        <pt x="385" y="471" on="1"/>
        <pt x="384" y="539" on="0"/>
        <pt x="460" y="658" on="0"/>
        <pt x="550" y="649" on="1"/>
        <pt x="569" y="520" on="1"/>
        <pt x="510" y="532" on="0"/>
        <pt x="448" y="484" on="0"/>
        <pt x="448" y="451" on="1"/>
      </contour>
      <contour>
        <pt x="344" y="340" on="1"/>
        <pt x="344" y="401" on="0"/>
        <pt x="286" y="401" on="1"/>
        <pt x="228" y="401" on="0"/>
        <pt x="228" y="340" on="1"/>
        <pt x="228" y="280" on="0"/>
        <pt x="286" y="280" on="1"/>
        <pt x="344" y="280" on="0"/>
      </contour>
      <contour>
        <pt x="572" y="-33" on="1"/>
        <pt x="572" y="-125" on="0"/>
        <pt x="416" y="-215" on="0"/>
        <pt x="279" y="-215" on="1"/>
        <pt x="137" y="-215" on="0"/>
        <pt x="13" y="-156" on="0"/>
        <pt x="13" y="-103" on="1"/>
        <pt x="13" y="-72" on="0"/>
        <pt x="55" y="-20" on="0"/>
        <pt x="105" y="-8" on="1"/>
        <pt x="72" y="7" on="0"/>
        <pt x="27" y="58" on="0"/>
        <pt x="27" y="99" on="1"/>
        <pt x="27" y="135" on="0"/>
        <pt x="73" y="189" on="0"/>
        <pt x="111" y="203" on="1"/>
        <pt x="28" y="246" on="0"/>
        <pt x="28" y="339" on="1"/>
        <pt x="28" y="510" on="0"/>
        <pt x="286" y="510" on="1"/>
        <pt x="545" y="510" on="0"/>
        <pt x="545" y="339" on="1"/>
        <pt x="545" y="170" on="0"/>
        <pt x="286" y="170" on="1"/>
        <pt x="227" y="170" on="0"/>
        <pt x="182" y="179" on="1"/>
        <pt x="159" y="173" on="0"/>
        <pt x="159" y="155" on="1"/>
        <pt x="159" y="127" on="0"/>
        <pt x="212" y="127" on="1"/>
        <pt x="378" y="127" on="1"/>
        <pt x="470" y="127" on="0"/>
        <pt x="572" y="49" on="0"/>
      </contour>
      <contour>
        <pt x="292" y="-89" on="1"/>
        <pt x="417" y="-89" on="0"/>
        <pt x="417" y="-53" on="1"/>
        <pt x="417" y="-30" on="0"/>
        <pt x="369" y="-30" on="1"/>
        <pt x="231" y="-30" on="1"/>
        <pt x="161" y="-30" on="0"/>
        <pt x="161" y="-56" on="1"/>
        <pt x="161" y="-73" on="0"/>
        <pt x="222" y="-89" on="0"/>
      </contour>
    </TTGlyph>
    <TTGlyph name="uni0067.sc" xMin="32" yMin="-8" xMax="600" yMax="568">
      <contour>
        <pt x="471" y="0" on="1"/>
        <pt x="465" y="83" on="1"/>
        <pt x="445" y="46" on="0"/>
        <pt x="367" y="-8" on="0"/>
        <pt x="303" y="-8" on="1"/>
        <pt x="183" y="-8" on="0"/>
        <pt x="32" y="141" on="0"/>
        <pt x="32" y="280" on="1"/>
        <pt x="32" y="419" on="0"/>
        <pt x="193" y="568" on="0"/>
        <pt x="335" y="568" on="1"/>
        <pt x="438" y="568" on="0"/>
        <pt x="578" y="479" on="0"/>
        <pt x="600" y="397" on="1"/>
        <pt x="427" y="351" on="1"/>
        <pt x="417" y="394" on="0"/>
        <pt x="372" y="423" on="0"/>
        <pt x="342" y="423" on="1"/>
        <pt x="293" y="423" on="0"/>
        <pt x="233" y="353" on="0"/>
        <pt x="233" y="280" on="1"/>
        <pt x="233" y="131" on="0"/>
        <pt x="352" y="131" on="1"/>
        <pt x="393" y="131" on="0"/>
        <pt x="435" y="171" on="0"/>
        <pt x="436" y="201" on="1"/>
        <pt x="436" y="204" on="1"/>
        <pt x="332" y="204" on="1"/>
        <pt x="332" y="305" on="1"/>
        <pt x="596" y="305" on="1"/>
        <pt x="596" y="0" on="1"/>
      </contour>
    </TTGlyph>
    <TTGlyph name="uni0067.sc.ss04" xMin="37" yMin="-8" xMax="605" yMax="568">
      <contour>
        <pt x="602" y="233" on="1"/>
        <pt x="602" y="118" on="0"/>
        <pt x="468" y="-8" on="0"/>
        <pt x="339" y="-8" on="1"/>
        <pt x="197" y="-8" on="0"/>
        <pt x="37" y="139" on="0"/>
        <pt x="37" y="278" on="1"/>
        <pt x="37" y="415" on="0"/>
        <pt x="194" y="568" on="0"/>
        <pt x="339" y="568" on="1"/>
        <pt x="433" y="568" on="0"/>
        <pt x="581" y="486" on="0"/>
        <pt x="605" y="397" on="1"/>
        <pt x="431" y="352" on="1"/>
        <pt x="423" y="387" on="0"/>
        <pt x="385" y="423" on="0"/>
        <pt x="345" y="423" on="1"/>
        <pt x="238" y="423" on="0"/>
        <pt x="238" y="280" on="1"/>
        <pt x="238" y="131" on="0"/>
        <pt x="347" y="131" on="1"/>
        <pt x="394" y="131" on="0"/>
        <pt x="438" y="174" on="0"/>
        <pt x="438" y="199" on="1"/>
        <pt x="438" y="204" on="1"/>
        <pt x="337" y="204" on="1"/>
        <pt x="337" y="305" on="1"/>
        <pt x="602" y="305" on="1"/>
      </contour>
    </TTGlyph>
    <TTGlyph name="uni0067.ss01" xMin="32" yMin="-215" xMax="578" yMax="510">
      <contour>
        <pt x="307" y="163" on="1"/>
        <pt x="376" y="163" on="0"/>
        <pt x="376" y="260" on="1"/>
        <pt x="376" y="268" on="1"/>
        <pt x="376" y="365" on="0"/>
        <pt x="307" y="365" on="1"/>
        <pt x="274" y="365" on="0"/>
        <pt x="236" y="320" on="0"/>
        <pt x="236" y="264" on="1"/>
        <pt x="236" y="208" on="0"/>
        <pt x="274" y="163" on="0"/>
      </contour>
      <contour>
        <pt x="289" y="-215" on="1"/>
        <pt x="195" y="-215" on="0"/>
        <pt x="60" y="-153" on="0"/>
        <pt x="46" y="-61" on="1"/>
        <pt x="240" y="-14" on="1"/>
        <pt x="241" y="-95" on="0"/>
        <pt x="307" y="-95" on="1"/>
        <pt x="376" y="-95" on="0"/>
        <pt x="376" y="-8" on="1"/>
        <pt x="376" y="93" on="1"/>
        <pt x="325" y="19" on="0"/>
        <pt x="230" y="19" on="1"/>
        <pt x="136" y="19" on="0"/>
        <pt x="32" y="147" on="0"/>
        <pt x="32" y="262" on="1"/>
        <pt x="32" y="380" on="0"/>
        <pt x="137" y="510" on="0"/>
        <pt x="231" y="510" on="1"/>
        <pt x="298" y="510" on="0"/>
        <pt x="377" y="437" on="0"/>
        <pt x="392" y="379" on="1"/>
        <pt x="397" y="500" on="1"/>
        <pt x="578" y="500" on="1"/>
        <pt x="578" y="40" on="1"/>
        <pt x="578" y="-103" on="0"/>
        <pt x="417" y="-215" on="0"/>
      </contour>
    </TTGlyph>
    <TTGlyph name="uni0068" xMin="49" yMin="0" xMax="572" yMax="706">
      <contour>
        <pt x="251" y="263" on="1"/>
        <pt x="251" y="0" on="1"/>
        <pt x="49" y="0" on="1"/>
        <pt x="49" y="706" on="1"/>
        <pt x="251" y="706" on="1"/>
        <pt x="251" y="404" on="1"/>
        <pt x="295" y="510" on="0"/>
        <pt x="408" y="510" on="1"/>
        <pt x="484" y="510" on="0"/>
        <pt x="572" y="421" on="0"/>
        <pt x="572" y="338" on="1"/>
        <pt x="572" y="0" on="1"/>
        <pt x="370" y="0" on="1"/>
        <pt x="370" y="284" on="1"/>
        <pt x="370" y="327" on="0"/>
        <pt x="343" y="359" on="0"/>
        <pt x="319" y="359" on="1"/>
        <pt x="251" y="359" on="0"/>
      </contour>
    </TTGlyph>
    <TTGlyph name="uni0068.sc" xMin="61" yMin="0" xMax="627" yMax="560">
      <contour>
        <pt x="429" y="0" on="1"/>
        <pt x="429" y="209" on="1"/>
        <pt x="259" y="209" on="1"/>
        <pt x="259" y="0" on="1"/>
        <pt x="61" y="0" on="1"/>
        <pt x="61" y="560" on="1"/>
        <pt x="259" y="560" on="1"/>
        <pt x="259" y="359" on="1"/>
        <pt x="429" y="359" on="1"/>
        <pt x="429" y="560" on="1"/>
        <pt x="627" y="560" on="1"/>
        <pt x="627" y="0" on="1"/>
      </contour>
    </TTGlyph>
    <TTGlyph name="uni0069" xMin="37" yMin="0" xMax="263" yMax="723">
      <contour>
        <pt x="263" y="633" on="1"/>
        <pt x="263" y="586" on="0"/>
        <pt x="211" y="544" on="0"/>
        <pt x="150" y="544" on="1"/>
        <pt x="89" y="544" on="0"/>
        <pt x="37" y="586" on="0"/>
        <pt x="37" y="633" on="1"/>
        <pt x="37" y="681" on="0"/>
        <pt x="89" y="723" on="0"/>
        <pt x="150" y="723" on="1"/>
        <pt x="211" y="723" on="0"/>
        <pt x="263" y="681" on="0"/>
      </contour>
      <contour>
        <pt x="49" y="500" on="1"/>
        <pt x="251" y="500" on="1"/>
        <pt x="251" y="0" on="1"/>
        <pt x="49" y="0" on="1"/>
      </contour>
    </TTGlyph>
    <TTGlyph name="uni0069.sc" xMin="61" yMin="0" xMax="263" yMax="560">
      <contour>
        <pt x="61" y="560" on="1"/>
        <pt x="263" y="560" on="1"/>
        <pt x="263" y="0" on="1"/>
        <pt x="61" y="0" on="1"/>
      </contour>
    </TTGlyph>
    <TTGlyph name="uni006A" xMin="-99" yMin="-215" xMax="263" yMax="723">
      <contour>
        <pt x="37" y="633" on="1"/>
        <pt x="37" y="723" on="0"/>
        <pt x="149" y="723" on="1"/>
        <pt x="211" y="723" on="0"/>
        <pt x="263" y="680" on="0"/>
        <pt x="263" y="633" on="1"/>
        <pt x="263" y="586" on="0"/>
        <pt x="211" y="544" on="0"/>
        <pt x="149" y="544" on="1"/>
        <pt x="89" y="544" on="0"/>
        <pt x="37" y="586" on="0"/>
      </contour>
      <contour>
        <pt x="49" y="500" on="1"/>
        <pt x="251" y="500" on="1"/>
        <pt x="251" y="-20" on="1"/>
        <pt x="251" y="-124" on="0"/>
        <pt x="147" y="-215" on="0"/>
        <pt x="43" y="-215" on="1"/>
        <pt x="-44" y="-215" on="0"/>
        <pt x="-99" y="-184" on="1"/>
        <pt x="-73" y="-61" on="1"/>
        <pt x="-53" y="-78" on="0"/>
        <pt x="-17" y="-78" on="1"/>
        <pt x="49" y="-78" on="0"/>
        <pt x="49" y="-2" on="1"/>
      </contour>
    </TTGlyph>
    <TTGlyph name="uni006A.sc" xMin="11" yMin="-8" xMax="541" yMax="560">
      <contour>
        <pt x="339" y="560" on="1"/>
        <pt x="541" y="560" on="1"/>
        <pt x="541" y="222" on="1"/>
        <pt x="541" y="101" on="0"/>
        <pt x="408" y="-8" on="0"/>
        <pt x="278" y="-8" on="1"/>
        <pt x="132" y="-8" on="0"/>
        <pt x="11" y="138" on="0"/>
        <pt x="33" y="248" on="1"/>
        <pt x="222" y="279" on="1"/>
        <pt x="211" y="198" on="0"/>
        <pt x="243" y="143" on="0"/>
        <pt x="276" y="143" on="1"/>
        <pt x="339" y="143" on="0"/>
        <pt x="339" y="236" on="1"/>
      </contour>
    </TTGlyph>
    <TTGlyph name="uni006B" xMin="49" yMin="0" xMax="649" yMax="706">
      <contour>
        <pt x="427" y="0" on="1"/>
        <pt x="323" y="189" on="1"/>
        <pt x="251" y="105" on="1"/>
        <pt x="251" y="0" on="1"/>
        <pt x="49" y="0" on="1"/>
        <pt x="49" y="706" on="1"/>
        <pt x="251" y="706" on="1"/>
        <pt x="251" y="307" on="1"/>
        <pt x="418" y="500" on="1"/>
        <pt x="638" y="500" on="1"/>
        <pt x="457" y="303" on="1"/>
        <pt x="649" y="0" on="1"/>
      </contour>
    </TTGlyph>
    <TTGlyph name="uni006B.sc" xMin="61" yMin="0" xMax="678" yMax="560">
      <contour>
        <pt x="452" y="0" on="1"/>
        <pt x="328" y="205" on="1"/>
        <pt x="259" y="130" on="1"/>
        <pt x="259" y="0" on="1"/>
        <pt x="61" y="0" on="1"/>
        <pt x="61" y="560" on="1"/>
        <pt x="259" y="560" on="1"/>
        <pt x="259" y="331" on="1"/>
        <pt x="459" y="560" on="1"/>
        <pt x="671" y="560" on="1"/>
        <pt x="466" y="326" on="1"/>
        <pt x="678" y="0" on="1"/>
      </contour>
    </TTGlyph>
    <TTGlyph name="uni006C" xMin="48" yMin="-10" xMax="337" yMax="706">
      <contour>
        <pt x="48" y="706" on="1"/>
        <pt x="250" y="706" on="1"/>
        <pt x="250" y="187" on="1"/>
        <pt x="250" y="127" on="0"/>
        <pt x="294" y="127" on="1"/>
        <pt x="316" y="127" on="0"/>
        <pt x="337" y="134" on="1"/>
        <pt x="326" y="19" on="1"/>
        <pt x="308" y="6" on="0"/>
        <pt x="243" y="-10" on="0"/>
        <pt x="211" y="-10" on="1"/>
        <pt x="124" y="-10" on="0"/>
        <pt x="48" y="68" on="0"/>
        <pt x="48" y="157" on="1"/>
      </contour>
    </TTGlyph>
    <TTGlyph name="uni006C.sc" xMin="61" yMin="0" xMax="541" yMax="560">
      <contour>
        <pt x="61" y="0" on="1"/>
        <pt x="61" y="560" on="1"/>
        <pt x="263" y="560" on="1"/>
        <pt x="263" y="150" on="1"/>
        <pt x="541" y="150" on="1"/>
        <pt x="541" y="0" on="1"/>
      </contour>
    </TTGlyph>
    <TTGlyph name="uni006C.ss02" xMin="49" yMin="0" xMax="251" yMax="706">
      <contour>
        <pt x="49" y="706" on="1"/>
        <pt x="251" y="706" on="1"/>
        <pt x="251" y="0" on="1"/>
        <pt x="49" y="0" on="1"/>
      </contour>
    </TTGlyph>
    <TTGlyph name="uni006D" xMin="49" yMin="0" xMax="890" yMax="510">
      <contour>
        <pt x="251" y="263" on="1"/>
        <pt x="251" y="0" on="1"/>
        <pt x="49" y="0" on="1"/>
        <pt x="49" y="500" on="1"/>
        <pt x="231" y="500" on="1"/>
        <pt x="236" y="397" on="1"/>
        <pt x="283" y="510" on="0"/>
        <pt x="407" y="510" on="1"/>
        <pt x="526" y="510" on="0"/>
        <pt x="559" y="409" on="1"/>
        <pt x="608" y="510" on="0"/>
        <pt x="726" y="510" on="1"/>
        <pt x="800" y="510" on="0"/>
        <pt x="890" y="422" on="0"/>
        <pt x="889" y="338" on="1"/>
        <pt x="886" y="0" on="1"/>
        <pt x="687" y="0" on="1"/>
        <pt x="687" y="288" on="1"/>
        <pt x="687" y="328" on="0"/>
        <pt x="661" y="359" on="0"/>
        <pt x="637" y="359" on="1"/>
        <pt x="570" y="359" on="0"/>
        <pt x="570" y="264" on="1"/>
        <pt x="570" y="0" on="1"/>
        <pt x="368" y="0" on="1"/>
        <pt x="368" y="288" on="1"/>
        <pt x="368" y="328" on="0"/>
        <pt x="342" y="359" on="0"/>
        <pt x="318" y="359" on="1"/>
        <pt x="289" y="359" on="0"/>
        <pt x="251" y="313" on="0"/>
      </contour>
    </TTGlyph>
    <TTGlyph name="uni006D.sc" xMin="61" yMin="0" xMax="804" yMax="560">
      <contour>
        <pt x="242" y="0" on="1"/>
        <pt x="61" y="0" on="1"/>
        <pt x="61" y="560" on="1"/>
        <pt x="332" y="560" on="1"/>
        <pt x="400" y="332" on="1"/>
        <pt x="432" y="219" on="1"/>
        <pt x="435" y="219" on="1"/>
        <pt x="466" y="332" on="1"/>
        <pt x="533" y="560" on="1"/>
        <pt x="804" y="560" on="1"/>
        <pt x="804" y="0" on="1"/>
        <pt x="623" y="0" on="1"/>
        <pt x="623" y="170" on="1"/>
        <pt x="633" y="382" on="1"/>
        <pt x="632" y="382" on="1"/>
        <pt x="505" y="0" on="1"/>
        <pt x="359" y="0" on="1"/>
        <pt x="233" y="382" on="1"/>
        <pt x="232" y="382" on="1"/>
        <pt x="242" y="170" on="1"/>
      </contour>
    </TTGlyph>
    <TTGlyph name="uni006E" xMin="49" yMin="0" xMax="572" yMax="510">
      <contour>
        <pt x="251" y="263" on="1"/>
        <pt x="251" y="0" on="1"/>
        <pt x="49" y="0" on="1"/>
        <pt x="49" y="500" on="1"/>
        <pt x="231" y="500" on="1"/>
        <pt x="236" y="396" on="1"/>
        <pt x="282" y="510" on="0"/>
        <pt x="408" y="510" on="1"/>
        <pt x="484" y="510" on="0"/>
        <pt x="572" y="421" on="0"/>
        <pt x="572" y="338" on="1"/>
        <pt x="572" y="0" on="1"/>
        <pt x="370" y="0" on="1"/>
        <pt x="370" y="284" on="1"/>
        <pt x="370" y="327" on="0"/>
        <pt x="343" y="359" on="0"/>
        <pt x="319" y="359" on="1"/>
        <pt x="289" y="359" on="0"/>
        <pt x="251" y="314" on="0"/>
      </contour>
    </TTGlyph>
    <TTGlyph name="uni006E.sc" xMin="61" yMin="0" xMax="640" yMax="560">
      <contour>
        <pt x="456" y="560" on="1"/>
        <pt x="640" y="560" on="1"/>
        <pt x="640" y="0" on="1"/>
        <pt x="419" y="0" on="1"/>
        <pt x="283" y="259" on="1"/>
        <pt x="241" y="348" on="1"/>
        <pt x="239" y="348" on="1"/>
        <pt x="245" y="204" on="1"/>
        <pt x="245" y="0" on="1"/>
        <pt x="61" y="0" on="1"/>
        <pt x="61" y="560" on="1"/>
        <pt x="282" y="560" on="1"/>
        <pt x="417" y="303" on="1"/>
        <pt x="460" y="212" on="1"/>
        <pt x="462" y="212" on="1"/>
        <pt x="456" y="356" on="1"/>
      </contour>
    </TTGlyph>
    <TTGlyph name="uni006E.swsh" xMin="49" yMin="-106" xMax="664" yMax="510">
      <contour>
        <pt x="536" y="-106" on="1"/>
        <pt x="466" y="-106" on="0"/>
        <pt x="370" y="-37" on="0"/>
        <pt x="370" y="40" on="1"/>
        <pt x="370" y="284" on="1"/>
        <pt x="370" y="327" on="0"/>
        <pt x="343" y="359" on="0"/>
        <pt x="319" y="359" on="1"/>
        <pt x="289" y="359" on="0"/>
        <pt x="251" y="314" on="0"/>
        <pt x="251" y="263" on="1"/>
        <pt x="251" y="0" on="1"/>
        <pt x="49" y="0" on="1"/>
        <pt x="49" y="500" on="1"/>
        <pt x="231" y="500" on="1"/>
        <pt x="236" y="396" on="1"/>
        <pt x="282" y="510" on="0"/>
        <pt x="408" y="510" on="1"/>
        <pt x="484" y="510" on="0"/>
        <pt x="572" y="421" on="0"/>
        <pt x="572" y="338" on="1"/>
        <pt x="572" y="70" on="1"/>
        <pt x="572" y="27" on="0"/>
        <pt x="615" y="27" on="1"/>
        <pt x="644" y="27" on="0"/>
        <pt x="664" y="37" on="1"/>
        <pt x="651" y="-79" on="1"/>
        <pt x="622" y="-93" on="0"/>
        <pt x="575" y="-106" on="0"/>
      </contour>
    </TTGlyph>
    <TTGlyph name="uni006F" xMin="28" yMin="-10" xMax="572" yMax="510">
      <contour>
        <pt x="28" y="250" on="1"/>
        <pt x="28" y="373" on="0"/>
        <pt x="171" y="510" on="0"/>
        <pt x="300" y="510" on="1"/>
        <pt x="429" y="510" on="0"/>
        <pt x="572" y="373" on="0"/>
        <pt x="572" y="250" on="1"/>
        <pt x="572" y="127" on="0"/>
        <pt x="429" y="-10" on="0"/>
        <pt x="300" y="-10" on="1"/>
        <pt x="171" y="-10" on="0"/>
        <pt x="28" y="127" on="0"/>
      </contour>
      <contour>
        <pt x="369" y="250" on="1"/>
        <pt x="369" y="318" on="0"/>
        <pt x="338" y="371" on="0"/>
        <pt x="300" y="371" on="1"/>
        <pt x="263" y="371" on="0"/>
        <pt x="231" y="318" on="0"/>
        <pt x="231" y="250" on="1"/>
        <pt x="231" y="182" on="0"/>
        <pt x="263" y="129" on="0"/>
        <pt x="300" y="129" on="1"/>
        <pt x="338" y="129" on="0"/>
        <pt x="369" y="182" on="0"/>
      </contour>
    </TTGlyph>
    <TTGlyph name="uni006F.sc" xMin="32" yMin="-8" xMax="630" yMax="568">
      <contour>
        <pt x="32" y="280" on="1"/>
        <pt x="32" y="416" on="0"/>
        <pt x="192" y="568" on="0"/>
        <pt x="331" y="568" on="1"/>
        <pt x="471" y="568" on="0"/>
        <pt x="630" y="416" on="0"/>
        <pt x="630" y="280" on="1"/>
        <pt x="630" y="144" on="0"/>
        <pt x="471" y="-8" on="0"/>
        <pt x="331" y="-8" on="1"/>
        <pt x="192" y="-8" on="0"/>
        <pt x="32" y="144" on="0"/>
      </contour>
      <contour>
        <pt x="427" y="280" on="1"/>
        <pt x="427" y="353" on="0"/>
        <pt x="381" y="417" on="0"/>
        <pt x="331" y="417" on="1"/>
        <pt x="282" y="417" on="0"/>
        <pt x="235" y="353" on="0"/>
        <pt x="235" y="280" on="1"/>
        <pt x="235" y="207" on="0"/>
        <pt x="282" y="143" on="0"/>
        <pt x="331" y="143" on="1"/>
        <pt x="381" y="143" on="0"/>
        <pt x="427" y="207" on="0"/>
      </contour>
    </TTGlyph>
    <TTGlyph name="uni0070" xMin="49" yMin="-210" xMax="595" yMax="510">
      <contour>
        <pt x="251" y="-210" on="1"/>
        <pt x="49" y="-210" on="1"/>
        <pt x="49" y="500" on="1"/>
        <pt x="226" y="500" on="1"/>
        <pt x="234" y="346" on="1"/>
        <pt x="251" y="299" on="1"/>
      </contour>
      <contour>
        <pt x="595" y="252" on="1"/>
        <pt x="595" y="128" on="0"/>
        <pt x="490" y="-10" on="0"/>
        <pt x="396" y="-10" on="1"/>
        <pt x="310" y="-10" on="0"/>
        <pt x="227" y="117" on="0"/>
        <pt x="227" y="209" on="1"/>
        <pt x="251" y="246" on="1"/>
        <pt x="251" y="135" on="0"/>
        <pt x="320" y="135" on="1"/>
        <pt x="353" y="135" on="0"/>
        <pt x="391" y="186" on="0"/>
        <pt x="391" y="250" on="1"/>
        <pt x="391" y="315" on="0"/>
        <pt x="353" y="366" on="0"/>
        <pt x="320" y="366" on="1"/>
        <pt x="251" y="366" on="0"/>
        <pt x="251" y="254" on="1"/>
        <pt x="215" y="291" on="1"/>
        <pt x="215" y="383" on="0"/>
        <pt x="311" y="510" on="0"/>
        <pt x="397" y="510" on="1"/>
        <pt x="492" y="510" on="0"/>
        <pt x="595" y="374" on="0"/>
      </contour>
    </TTGlyph>
    <TTGlyph name="uni0070.sc" xMin="61" yMin="0" xMax="600" yMax="560">
      <contour>
        <pt x="332" y="425" on="1"/>
        <pt x="259" y="425" on="1"/>
        <pt x="259" y="296" on="1"/>
        <pt x="332" y="296" on="1"/>
        <pt x="402" y="296" on="0"/>
        <pt x="402" y="360" on="1"/>
        <pt x="402" y="425" on="0"/>
      </contour>
      <contour>
        <pt x="370" y="165" on="1"/>
        <pt x="259" y="165" on="1"/>
        <pt x="259" y="0" on="1"/>
        <pt x="61" y="0" on="1"/>
        <pt x="61" y="560" on="1"/>
        <pt x="370" y="560" on="1"/>
        <pt x="479" y="560" on="0"/>
        <pt x="600" y="457" on="0"/>
        <pt x="600" y="362" on="1"/>
        <pt x="600" y="268" on="0"/>
        <pt x="479" y="165" on="0"/>
      </contour>
    </TTGlyph>
    <TTGlyph name="uni0071" xMin="32" yMin="-210" xMax="579" yMax="510">
      <contour>
        <pt x="579" y="-210" on="1"/>
        <pt x="377" y="-210" on="1"/>
        <pt x="377" y="299" on="1"/>
        <pt x="393" y="346" on="1"/>
        <pt x="401" y="500" on="1"/>
        <pt x="579" y="500" on="1"/>
      </contour>
      <contour>
        <pt x="32" y="252" on="1"/>
        <pt x="32" y="128" on="0"/>
        <pt x="137" y="-10" on="0"/>
        <pt x="231" y="-10" on="1"/>
        <pt x="317" y="-10" on="0"/>
        <pt x="400" y="117" on="0"/>
        <pt x="400" y="209" on="1"/>
        <pt x="376" y="246" on="1"/>
        <pt x="376" y="135" on="0"/>
        <pt x="307" y="135" on="1"/>
        <pt x="274" y="135" on="0"/>
        <pt x="236" y="186" on="0"/>
        <pt x="236" y="250" on="1"/>
        <pt x="236" y="315" on="0"/>
        <pt x="274" y="366" on="0"/>
        <pt x="307" y="366" on="1"/>
        <pt x="376" y="366" on="0"/>
        <pt x="376" y="254" on="1"/>
        <pt x="412" y="291" on="1"/>
        <pt x="412" y="383" on="0"/>
        <pt x="316" y="510" on="0"/>
        <pt x="230" y="510" on="1"/>
        <pt x="136" y="510" on="0"/>
        <pt x="32" y="374" on="0"/>
      </contour>
    </TTGlyph>
    <TTGlyph name="uni0071.sc" xMin="32" yMin="-178" xMax="630" yMax="568">
      <contour>
        <pt x="285" y="30" on="1"/>
        <pt x="380" y="33" on="1"/>
        <pt x="370" y="-40" on="0"/>
        <pt x="474" y="-40" on="1"/>
        <pt x="540" y="-40" on="0"/>
        <pt x="572" y="-1" on="1"/>
        <pt x="619" y="-130" on="1"/>
        <pt x="594" y="-150" on="0"/>
        <pt x="519" y="-178" on="0"/>
        <pt x="472" y="-177" on="1"/>
        <pt x="370" y="-175" on="0"/>
        <pt x="266" y="-76" on="0"/>
      </contour>
      <contour>
        <pt x="32" y="280" on="1"/>
        <pt x="32" y="416" on="0"/>
        <pt x="192" y="568" on="0"/>
        <pt x="331" y="568" on="1"/>
        <pt x="471" y="568" on="0"/>
        <pt x="630" y="416" on="0"/>
        <pt x="630" y="280" on="1"/>
        <pt x="630" y="144" on="0"/>
        <pt x="471" y="-8" on="0"/>
        <pt x="331" y="-8" on="1"/>
        <pt x="192" y="-8" on="0"/>
        <pt x="32" y="144" on="0"/>
      </contour>
      <contour>
        <pt x="427" y="280" on="1"/>
        <pt x="427" y="353" on="0"/>
        <pt x="381" y="417" on="0"/>
        <pt x="331" y="417" on="1"/>
        <pt x="282" y="417" on="0"/>
        <pt x="235" y="353" on="0"/>
        <pt x="235" y="280" on="1"/>
        <pt x="235" y="207" on="0"/>
        <pt x="282" y="143" on="0"/>
        <pt x="331" y="143" on="1"/>
        <pt x="381" y="143" on="0"/>
        <pt x="427" y="207" on="0"/>
      </contour>
    </TTGlyph>
    <TTGlyph name="uni0072" xMin="49" yMin="0" xMax="438" yMax="510">
      <contour>
        <pt x="251" y="246" on="1"/>
        <pt x="251" y="0" on="1"/>
        <pt x="49" y="0" on="1"/>
        <pt x="49" y="500" on="1"/>
        <pt x="230" y="500" on="1"/>
        <pt x="236" y="384" on="1"/>
        <pt x="253" y="442" on="0"/>
        <pt x="327" y="510" on="0"/>
        <pt x="385" y="510" on="1"/>
        <pt x="406" y="510" on="0"/>
        <pt x="431" y="503" on="0"/>
        <pt x="438" y="498" on="1"/>
        <pt x="419" y="331" on="1"/>
        <pt x="399" y="346" on="0"/>
        <pt x="356" y="346" on="1"/>
        <pt x="311" y="346" on="0"/>
        <pt x="251" y="296" on="0"/>
      </contour>
    </TTGlyph>
    <TTGlyph name="uni0072.sc" xMin="61" yMin="0" xMax="627" yMax="560">
      <contour>
        <pt x="334" y="429" on="1"/>
        <pt x="259" y="429" on="1"/>
        <pt x="259" y="302" on="1"/>
        <pt x="334" y="302" on="1"/>
        <pt x="405" y="302" on="0"/>
        <pt x="405" y="365" on="1"/>
        <pt x="405" y="429" on="0"/>
      </contour>
      <contour>
        <pt x="412" y="0" on="1"/>
        <pt x="323" y="182" on="1"/>
        <pt x="259" y="182" on="1"/>
        <pt x="259" y="0" on="1"/>
        <pt x="61" y="0" on="1"/>
        <pt x="61" y="560" on="1"/>
        <pt x="363" y="560" on="1"/>
        <pt x="476" y="560" on="0"/>
        <pt x="602" y="462" on="0"/>
        <pt x="602" y="370" on="1"/>
        <pt x="602" y="251" on="0"/>
        <pt x="495" y="205" on="1"/>
        <pt x="627" y="0" on="1"/>
      </contour>
    </TTGlyph>
    <TTGlyph name="uni0072.sc.ss03" xMin="61" yMin="0" xMax="611" yMax="560">
      <contour>
        <pt x="259" y="425" on="1"/>
        <pt x="259" y="301" on="1"/>
        <pt x="331" y="301" on="1"/>
        <pt x="405" y="301" on="0"/>
        <pt x="405" y="363" on="1"/>
        <pt x="405" y="425" on="0"/>
        <pt x="331" y="425" on="1"/>
      </contour>
      <contour>
        <pt x="259" y="0" on="1"/>
        <pt x="61" y="0" on="1"/>
        <pt x="61" y="560" on="1"/>
        <pt x="363" y="560" on="1"/>
        <pt x="476" y="560" on="0"/>
        <pt x="602" y="466" on="0"/>
        <pt x="602" y="384" on="1"/>
        <pt x="602" y="320" on="0"/>
        <pt x="534" y="244" on="0"/>
        <pt x="481" y="236" on="1"/>
        <pt x="481" y="233" on="1"/>
        <pt x="525" y="223" on="0"/>
        <pt x="569" y="175" on="0"/>
        <pt x="573" y="148" on="1"/>
        <pt x="583" y="101" on="0"/>
        <pt x="596" y="32" on="0"/>
        <pt x="611" y="5" on="1"/>
        <pt x="611" y="0" on="1"/>
        <pt x="399" y="0" on="1"/>
        <pt x="389" y="28" on="0"/>
        <pt x="383" y="96" on="0"/>
        <pt x="375" y="130" on="1"/>
        <pt x="368" y="162" on="0"/>
        <pt x="331" y="182" on="0"/>
        <pt x="304" y="182" on="1"/>
        <pt x="259" y="182" on="1"/>
      </contour>
    </TTGlyph>
    <TTGlyph name="uni0072.swsh" xMin="49" yMin="0" xMax="650" yMax="510">
      <contour>
        <pt x="251" y="229" on="1"/>
        <pt x="251" y="0" on="1"/>
        <pt x="49" y="0" on="1"/>
        <pt x="49" y="500" on="1"/>
        <pt x="230" y="500" on="1"/>
        <pt x="236" y="381" on="1"/>
        <pt x="258" y="454" on="0"/>
        <pt x="346" y="510" on="0"/>
        <pt x="398" y="510" on="1"/>
        <pt x="459" y="510" on="0"/>
        <pt x="526" y="472" on="0"/>
        <pt x="591" y="428" on="0"/>
        <pt x="650" y="419" on="1"/>
        <pt x="559" y="276" on="1"/>
        <pt x="492" y="289" on="0"/>
        <pt x="420" y="349" on="0"/>
        <pt x="369" y="349" on="1"/>
        <pt x="306" y="349" on="0"/>
        <pt x="251" y="273" on="0"/>
      </contour>
    </TTGlyph>
    <TTGlyph name="uni0073" xMin="14" yMin="-10" xMax="518" yMax="510">
      <contour>
        <pt x="518" y="164" on="1"/>
        <pt x="518" y="94" on="0"/>
        <pt x="399" y="-10" on="0"/>
        <pt x="270" y="-10" on="1"/>
        <pt x="92" y="-10" on="0"/>
        <pt x="14" y="71" on="1"/>
        <pt x="108" y="179" on="1"/>
        <pt x="134" y="151" on="0"/>
        <pt x="211" y="115" on="0"/>
        <pt x="257" y="115" on="1"/>
        <pt x="316" y="115" on="0"/>
        <pt x="316" y="141" on="1"/>
        <pt x="316" y="154" on="0"/>
        <pt x="278" y="172" on="0"/>
        <pt x="230" y="182" on="1"/>
        <pt x="121" y="203" on="0"/>
        <pt x="26" y="280" on="0"/>
        <pt x="26" y="340" on="1"/>
        <pt x="26" y="402" on="0"/>
        <pt x="150" y="510" on="0"/>
        <pt x="283" y="510" on="1"/>
        <pt x="377" y="510" on="0"/>
        <pt x="489" y="461" on="0"/>
        <pt x="516" y="428" on="1"/>
        <pt x="427" y="330" on="1"/>
        <pt x="401" y="362" on="0"/>
        <pt x="330" y="385" on="0"/>
        <pt x="292" y="385" on="1"/>
        <pt x="228" y="385" on="0"/>
        <pt x="228" y="356" on="1"/>
        <pt x="228" y="336" on="0"/>
        <pt x="303" y="325" on="1"/>
        <pt x="416" y="309" on="0"/>
        <pt x="518" y="232" on="0"/>
      </contour>
    </TTGlyph>
    <TTGlyph name="uni0073.sc" xMin="21" yMin="-8" xMax="561" yMax="568">
      <contour>
        <pt x="28" y="376" on="1"/>
        <pt x="28" y="465" on="0"/>
        <pt x="173" y="568" on="0"/>
        <pt x="296" y="568" on="1"/>
        <pt x="391" y="568" on="0"/>
        <pt x="506" y="529" on="0"/>
        <pt x="561" y="488" on="1"/>
        <pt x="482" y="360" on="1"/>
        <pt x="431" y="398" on="0"/>
        <pt x="356" y="429" on="0"/>
        <pt x="298" y="429" on="1"/>
        <pt x="230" y="429" on="0"/>
        <pt x="230" y="391" on="1"/>
        <pt x="230" y="370" on="0"/>
        <pt x="296" y="355" on="0"/>
        <pt x="395" y="343" on="0"/>
        <pt x="493" y="315" on="0"/>
        <pt x="559" y="247" on="0"/>
        <pt x="559" y="182" on="1"/>
        <pt x="559" y="92" on="0"/>
        <pt x="413" y="-8" on="0"/>
        <pt x="291" y="-8" on="1"/>
        <pt x="205" y="-8" on="0"/>
        <pt x="77" y="27" on="0"/>
        <pt x="21" y="69" on="1"/>
        <pt x="98" y="198" on="1"/>
        <pt x="147" y="161" on="0"/>
        <pt x="230" y="132" on="0"/>
        <pt x="288" y="132" on="1"/>
        <pt x="357" y="132" on="0"/>
        <pt x="357" y="165" on="1"/>
        <pt x="357" y="186" on="0"/>
        <pt x="291" y="201" on="0"/>
        <pt x="193" y="212" on="0"/>
        <pt x="94" y="241" on="0"/>
        <pt x="28" y="310" on="0"/>
      </contour>
    </TTGlyph>
    <TTGlyph name="uni00730074" xMin="14" yMin="-10" xMax="929" yMax="722">
      <contour>
        <pt x="784" y="-10" on="1"/>
        <pt x="689" y="-10" on="0"/>
        <pt x="584" y="67" on="0"/>
        <pt x="584" y="160" on="1"/>
        <pt x="584" y="492" on="1"/>
        <pt x="584" y="539" on="0"/>
        <pt x="548" y="575" on="0"/>
        <pt x="525" y="575" on="1"/>
        <pt x="475" y="575" on="0"/>
        <pt x="475" y="521" on="1"/>
        <pt x="475" y="496" on="0"/>
        <pt x="491" y="454" on="0"/>
        <pt x="516" y="428" on="1"/>
        <pt x="425" y="330" on="1"/>
        <pt x="401" y="362" on="0"/>
        <pt x="330" y="385" on="0"/>
        <pt x="292" y="385" on="1"/>
        <pt x="228" y="385" on="0"/>
        <pt x="228" y="356" on="1"/>
        <pt x="228" y="346" on="0"/>
        <pt x="261" y="331" on="0"/>
        <pt x="311" y="323" on="1"/>
        <pt x="418" y="306" on="0"/>
        <pt x="518" y="234" on="0"/>
        <pt x="518" y="164" on="1"/>
        <pt x="518" y="94" on="0"/>
        <pt x="399" y="-10" on="0"/>
        <pt x="270" y="-10" on="1"/>
        <pt x="92" y="-10" on="0"/>
        <pt x="14" y="71" on="1"/>
        <pt x="108" y="179" on="1"/>
        <pt x="134" y="151" on="0"/>
        <pt x="211" y="115" on="0"/>
        <pt x="257" y="115" on="1"/>
        <pt x="316" y="115" on="0"/>
        <pt x="316" y="141" on="1"/>
        <pt x="316" y="154" on="0"/>
        <pt x="278" y="173" on="0"/>
        <pt x="230" y="182" on="1"/>
        <pt x="122" y="202" on="0"/>
        <pt x="26" y="280" on="0"/>
        <pt x="26" y="340" on="1"/>
        <pt x="26" y="402" on="0"/>
        <pt x="150" y="510" on="0"/>
        <pt x="283" y="510" on="1"/>
        <pt x="293" y="510" on="0"/>
        <pt x="323" y="509" on="0"/>
        <pt x="342" y="506" on="1"/>
        <pt x="329" y="527" on="0"/>
        <pt x="329" y="551" on="1"/>
        <pt x="329" y="635" on="0"/>
        <pt x="462" y="722" on="0"/>
        <pt x="557" y="722" on="1"/>
        <pt x="653" y="722" on="0"/>
        <pt x="786" y="633" on="0"/>
        <pt x="786" y="522" on="1"/>
        <pt x="786" y="500" on="1"/>
        <pt x="923" y="500" on="1"/>
        <pt x="923" y="361" on="1"/>
        <pt x="786" y="361" on="1"/>
        <pt x="786" y="192" on="1"/>
        <pt x="786" y="127" on="0"/>
        <pt x="849" y="127" on="1"/>
        <pt x="887" y="127" on="0"/>
        <pt x="916" y="144" on="1"/>
        <pt x="929" y="26" on="1"/>
        <pt x="904" y="10" on="0"/>
        <pt x="822" y="-10" on="0"/>
      </contour>
    </TTGlyph>
    <TTGlyph name="uni0074" xMin="7" yMin="-10" xMax="433" yMax="665">
      <contour>
        <pt x="433" y="26" on="1"/>
        <pt x="408" y="10" on="0"/>
        <pt x="326" y="-10" on="0"/>
        <pt x="288" y="-10" on="1"/>
        <pt x="192" y="-10" on="0"/>
        <pt x="88" y="67" on="0"/>
        <pt x="88" y="160" on="1"/>
        <pt x="88" y="361" on="1"/>
        <pt x="7" y="361" on="1"/>
        <pt x="7" y="500" on="1"/>
        <pt x="88" y="500" on="1"/>
        <pt x="88" y="609" on="1"/>
        <pt x="290" y="665" on="1"/>
        <pt x="290" y="500" on="1"/>
        <pt x="427" y="500" on="1"/>
        <pt x="427" y="361" on="1"/>
        <pt x="290" y="361" on="1"/>
        <pt x="290" y="192" on="1"/>
        <pt x="290" y="127" on="0"/>
        <pt x="353" y="127" on="1"/>
        <pt x="391" y="127" on="0"/>
        <pt x="420" y="144" on="1"/>
      </contour>
    </TTGlyph>
    <TTGlyph name="uni0074.sc" xMin="28" yMin="0" xMax="600" yMax="560">
      <contour>
        <pt x="600" y="410" on="1"/>
        <pt x="414" y="410" on="1"/>
        <pt x="414" y="0" on="1"/>
        <pt x="213" y="0" on="1"/>
        <pt x="213" y="410" on="1"/>
        <pt x="28" y="410" on="1"/>
        <pt x="28" y="560" on="1"/>
        <pt x="600" y="560" on="1"/>
      </contour>
    </TTGlyph>
    <TTGlyph name="uni0074.swsh" xMin="7" yMin="-10" xMax="636" yMax="665">
      <contour>
        <pt x="433" y="26" on="1"/>
        <pt x="408" y="10" on="0"/>
        <pt x="326" y="-10" on="0"/>
        <pt x="288" y="-10" on="1"/>
        <pt x="192" y="-10" on="0"/>
        <pt x="88" y="67" on="0"/>
        <pt x="88" y="160" on="1"/>
        <pt x="88" y="361" on="1"/>
        <pt x="7" y="361" on="1"/>
        <pt x="7" y="500" on="1"/>
        <pt x="88" y="500" on="1"/>
        <pt x="88" y="609" on="1"/>
        <pt x="290" y="665" on="1"/>
        <pt x="290" y="500" on="1"/>
        <pt x="421" y="500" on="1"/>
        <pt x="474" y="500" on="0"/>
        <pt x="544" y="518" on="0"/>
        <pt x="578" y="545" on="1"/>
        <pt x="636" y="434" on="1"/>
        <pt x="600" y="394" on="0"/>
        <pt x="498" y="361" on="0"/>
        <pt x="429" y="361" on="1"/>
        <pt x="290" y="361" on="1"/>
        <pt x="290" y="192" on="1"/>
        <pt x="290" y="127" on="0"/>
        <pt x="353" y="127" on="1"/>
        <pt x="391" y="127" on="0"/>
        <pt x="420" y="144" on="1"/>
      </contour>
    </TTGlyph>
    <TTGlyph name="uni0075" xMin="47" yMin="-10" xMax="571" yMax="500">
      <contour>
        <pt x="389" y="0" on="1"/>
        <pt x="384" y="99" on="1"/>
        <pt x="339" y="-10" on="0"/>
        <pt x="213" y="-10" on="1"/>
        <pt x="136" y="-10" on="0"/>
        <pt x="47" y="71" on="0"/>
        <pt x="47" y="164" on="1"/>
        <pt x="47" y="500" on="1"/>
        <pt x="249" y="500" on="1"/>
        <pt x="249" y="214" on="1"/>
        <pt x="249" y="173" on="0"/>
        <pt x="276" y="141" on="0"/>
        <pt x="301" y="141" on="1"/>
        <pt x="369" y="141" on="0"/>
        <pt x="369" y="237" on="1"/>
        <pt x="369" y="500" on="1"/>
        <pt x="571" y="500" on="1"/>
        <pt x="571" y="0" on="1"/>
      </contour>
    </TTGlyph>
    <TTGlyph name="uni0075.sc" xMin="50" yMin="-8" xMax="610" yMax="560">
      <contour>
        <pt x="409" y="560" on="1"/>
        <pt x="610" y="560" on="1"/>
        <pt x="610" y="241" on="1"/>
        <pt x="610" y="120" on="0"/>
        <pt x="474" y="-8" on="0"/>
        <pt x="330" y="-8" on="1"/>
        <pt x="186" y="-8" on="0"/>
        <pt x="50" y="120" on="0"/>
        <pt x="50" y="241" on="1"/>
        <pt x="50" y="560" on="1"/>
        <pt x="252" y="560" on="1"/>
        <pt x="252" y="233" on="1"/>
        <pt x="252" y="143" on="0"/>
        <pt x="330" y="143" on="1"/>
        <pt x="409" y="143" on="0"/>
        <pt x="409" y="233" on="1"/>
      </contour>
    </TTGlyph>
    <TTGlyph name="uni0076" xMin="-6" yMin="0" xMax="581" yMax="500">
      <contour>
        <pt x="164" y="0" on="1"/>
        <pt x="-6" y="500" on="1"/>
        <pt x="205" y="500" on="1"/>
        <pt x="288" y="126" on="1"/>
        <pt x="372" y="500" on="1"/>
        <pt x="581" y="500" on="1"/>
        <pt x="411" y="0" on="1"/>
      </contour>
    </TTGlyph>
    <TTGlyph name="uni0076.sc" xMin="-3" yMin="0" xMax="655" yMax="560">
      <contour>
        <pt x="450" y="560" on="1"/>
        <pt x="655" y="560" on="1"/>
        <pt x="447" y="0" on="1"/>
        <pt x="207" y="0" on="1"/>
        <pt x="-3" y="560" on="1"/>
        <pt x="213" y="560" on="1"/>
        <pt x="291" y="308" on="1"/>
        <pt x="331" y="156" on="1"/>
        <pt x="332" y="156" on="1"/>
        <pt x="371" y="307" on="1"/>
      </contour>
    </TTGlyph>
    <TTGlyph name="uni0077" xMin="0" yMin="0" xMax="926" yMax="500">
      <contour>
        <pt x="143" y="0" on="1"/>
        <pt x="0" y="500" on="1"/>
        <pt x="210" y="500" on="1"/>
        <pt x="279" y="138" on="1"/>
        <pt x="364" y="500" on="1"/>
        <pt x="562" y="500" on="1"/>
        <pt x="647" y="138" on="1"/>
        <pt x="716" y="500" on="1"/>
        <pt x="926" y="500" on="1"/>
        <pt x="783" y="0" on="1"/>
        <pt x="536" y="0" on="1"/>
        <pt x="462" y="285" on="1"/>
        <pt x="390" y="0" on="1"/>
      </contour>
    </TTGlyph>
    <TTGlyph name="uni0077.sc" xMin="-1" yMin="0" xMax="966" yMax="560">
      <contour>
        <pt x="485" y="380" on="1"/>
        <pt x="484" y="380" on="1"/>
        <pt x="447" y="160" on="1"/>
        <pt x="410" y="0" on="1"/>
        <pt x="161" y="0" on="1"/>
        <pt x="-1" y="560" on="1"/>
        <pt x="215" y="560" on="1"/>
        <pt x="275" y="271" on="1"/>
        <pt x="299" y="144" on="1"/>
        <pt x="380" y="560" on="1"/>
        <pt x="587" y="560" on="1"/>
        <pt x="671" y="144" on="1"/>
        <pt x="694" y="271" on="1"/>
        <pt x="754" y="560" on="1"/>
        <pt x="966" y="560" on="1"/>
        <pt x="804" y="0" on="1"/>
        <pt x="562" y="0" on="1"/>
        <pt x="525" y="160" on="1"/>
      </contour>
    </TTGlyph>
</ttFont>
